{
.appVersion = "3234";
.formatVersion = 3;
axes = (
{
name = Weight;
tag = wght;
}
);
classes = (
{
code = "dotcenter-ar
dotcenter_threedotsdownbelow-ar
twodotshorizontalcenter-ar
twodotshorizontalcenter_tahabove-ar
twodotsverticalcenter-ar
threedotsupcenter-ar
threedotsdowncenter-ar
fourdotscenter-ar
#fourcenter-ar
tahcenter-ar
vinvertedcenter-ar
";
name = dotcenter;
},
{
code = "dotbelow-ar
dotbelow_threedotsdownbelow-ar
twodotshorizontalbelow-ar
twodotshorizontalbelow_tahabove-ar
twodotsverticalbelow-ar
threedotsupbelow-ar
threedotsdownbelow-ar
fourdotsbelow-ar
#fourbelow-ar
tahbelow-ar
vinvertedbelow-ar
";
name = dotbelow;
},
{
code = "hamzaabove-ar
wasla-ar
madda-ar
shadda-ar
fatha-ar
damma-ar
fathatan-ar
dammatan-ar
sukun-ar
kasra-ar
kasratan-ar
";
name = marktop;
},
{
code = "dotbelow-ar
dotbelow_threedotsdownbelow-ar
twodotshorizontalbelow-ar
twodotshorizontalbelow_tahabove-ar
twodotsverticalbelow-ar
threedotsupbelow-ar
threedotsdownbelow-ar
fourdotsbelow-ar
hamzabelow-ar
vbelow-ar
vinvertedbelow-ar
ring-ar
doubleverticalbarbelow-ar
tahbelow-ar
ringbelow-ar
kasra-ar
kasratan-ar
alefbelow-ar
";
name = markbottom;
},
{
code = "dotbelow-ar
twodotshorizontalbelow-ar
twodotsverticalbelow-ar
threedotsupbelow-ar
threedotsdownbelow-ar
fourdotsbelow-ar
vbelow-ar
vinvertedbelow-ar
ring-ar
ringbelow-ar
";
name = behdotbelow;
},
{
code = "dotbelow-ar.alt
twodotshorizontalbelow-ar.alt
twodotsverticalbelow-ar.alt
threedotsupbelow-ar.alt
threedotsdownbelow-ar.alt
fourdotsbelow-ar.alt
vbelow-ar.alt
vinvertedbelow-ar.alt
ring-ar.alt
ringbelow-ar.alt
";
name = behdotbelow.alt;
},
{
automatic = 1;

glyphs = (
{
color = 5;
glyphname = A;
kernLeft = A;
kernRight = A;
layers = (
{
anchors = (
{
name = bottom;
pos = (313,0);
},
{
name = ogonek;
pos = (597,0);
},
{
name = top;
pos = (314,700);
}
);
guides = (
{
pos = (30,8);
}
);
layerId = "3114FB65-9464-41A5-B67E-A8F9F43C0EF1";
shapes = (
{
closed = 1;
nodes = (
(597,0,l),
(597,8,l),
(331,700,l),
(296,700,l),
(305,686,l),
(568,0,l)
);
},
{
closed = 1;
nodes = (
(58,0,l),
(321,686,l),
(331,700,l),
(296,700,l),
(30,8,l),
(30,0,l)
);
},
{
closed = 1;
nodes = (
(499,208,l),
(486,236,l),
(141,236,l),
(128,208,l)
);
}
);
width = 627;
},
{
anchors = (
{
name = bottom;
pos = (329,0);
},
{
name = ogonek;
pos = (632,0);
},
{
name = top;
pos = (329,700);
}
);
guides = (
{
pos = (30,8);
}
);
layerId = "14EEE41F-D714-4243-A717-73445EE7DABA";
shapes = (
{
closed = 1;
nodes = (
(632,0,l),
(632,8,l),
(366,700,l),
(291,700,l),
(298,679,l),
(551,0,l)
);
},
{
closed = 1;
nodes = (
(106,0,l),
(359,679,l),
(366,700,l),
(291,700,l),
(25,8,l),
(25,0,l)
);
},
{
closed = 1;
nodes = (
(544,185,l),
(514,258,l),
(153,258,l),
(123,185,l)
);
}
);
width = 657;
},
{
anchors = (
{
name = bottom;
pos = (339,0);
},
{
name = ogonek;
pos = (672,0);
},
{
name = top;
pos = (339,700);
}
);
guides = (
{
pos = (27,8);
}
);
layerId = "090CB6A0-BE7C-4D17-A551-206C7456A8A3";
shapes = (
{
closed = 1;
nodes = (
(672,0,l),
(672,8,l),
(406,700,l),
(271,700,l),
(277,679,l),
(530,0,l)
);
},
{
closed = 1;
nodes = (
(144,0,l),
(397,679,l),
(406,700,l),
(271,700,l),
(5,8,l),
(5,0,l)
);
},
{
closed = 1;
nodes = (
(554,157,l),
(524,285,l),
(163,285,l),
(133,157,l)
);
}
);
width = 677;
},
{
anchors = (
{
name = bottom;
pos = (316,0);
},
{
name = ogonek;
pos = (603,0);
},
{
name = top;
pos = (317,700);
}
);
associatedMasterId = "3114FB65-9464-41A5-B67E-A8F9F43C0EF1";
layerId = "A86ADE33-EB0D-4504-9E5F-887D1CED7A27";
name = "27 Jan 24, 20:53";
shapes = (
{
closed = 1;
nodes = (
(603,0,l),
(334,700,l),
(299,700,l),
(308,686,l),
(571,0,l)
);
},
{
closed = 1;
nodes = (
(61,0,l),
(324,686,l),
(334,700,l),
(299,700,l),
(30,0,l)
);
},
{
closed = 1;
nodes = (
(502,208,l),
(489,236,l),
(144,236,l),
(131,208,l)
);
}
);
width = 633;
},
{
associatedMasterId = "090CB6A0-BE7C-4D17-A551-206C7456A8A3";
layerId = "C3DD7AFA-4E48-4ED3-B403-CD17DE0DC211";
name = "28 Jan 24, 13:21";
shapes = (
{
closed = 1;
nodes = (
(678,0,l),
(409,700,l),
(274,700,l),
(280,679,l),
(533,0,l)
);
},
{
closed = 1;
nodes = (
(148,0,l),
(401,679,l),
(409,700,l),
(274,700,l),
(5,0,l)
);
},
{
closed = 1;
nodes = (
(557,157,l),
(527,285,l),
(166,285,l),
(136,157,l)
);
}
);
width = 683;
}
);
metricRight = "=|";
unicode = 65;
},
{
color = 5;
glyphname = AE;
kernLeft = A;
layers = (
{
guides = (
{
pos = (604,672);
}
);
layerId = "3114FB65-9464-41A5-B67E-A8F9F43C0EF1";
shapes = (
{
alignment = -1;
pos = (381,0);
ref = E;
},
{
closed = 1;
nodes = (
(58,0,l),
(459,686,l),
(459,700,l),
(436,700,l),
(31,8,l),
(30,0,l)
);
},
{
closed = 1;
nodes = (
(466,208,l),
(466,236,l),
(179,236,l),
(166,208,l)
);
}
);
width = 917;
},
{
guides = (
{
pos = (566,627);
}
);
layerId = "14EEE41F-D714-4243-A717-73445EE7DABA";
shapes = (
{
alignment = -1;
pos = (391,0);
ref = E;
},
{
closed = 1;
nodes = (
(112,0,l),
(484,679,l),
(488,700,l),
(413,700,l),
(26,9,l),
(25,0,l)
);
},
{
closed = 1;
nodes = (
(484,185,l),
(484,258,l),
(198,258,l),
(155,185,l)
);
}
);
width = 932;
},
{
guides = (
{
pos = (602,572);
}
);
layerId = "090CB6A0-BE7C-4D17-A551-206C7456A8A3";
shapes = (
{
alignment = -1;
pos = (425,0);
ref = E;
},
{
closed = 1;
nodes = (
(152,0,l),
(535,679,l),
(539,700,l),
(405,700,l),
(6,8,l),
(5,0,l)
);
},
{
closed = 1;
nodes = (
(560,157,l),
(560,285,l),
(199,285,l),
(169,157,l)
);
}
);
width = 964;
}
);
metricLeft = A;
metricRight = E;
unicode = 198;
},
{
color = 5;
glyphname = B;
kernRight = B;
layers = (
{
layerId = "3114FB65-9464-41A5-B67E-A8F9F43C0EF1";
shapes = (
{
closed = 1;
nodes = (
(310,0,ls),
(439,0,o),
(516,80,o),
(516,197,cs),
(516,288,o),
(460,367,o),
(356,379,c),
(356,370,l),
(425,390,o),
(480,451,o),
(480,527,cs),
(480,628,o),
(411,700,o),
(292,700,cs),
(86,700,l),
(86,672,l),
(292,672,ls),
(396,672,o),
(450,612,o),
(450,527,cs),
(450,450,o),
(390,386,o),
(294,386,cs),
(86,386,l),
(86,358,l),
(312,358,ls),
(420,358,o),
(486,297,o),
(486,197,cs),
(486,94,o),
(423,28,o),
(310,28,cs),
(86,28,l),
(86,0,l)
);
},
{
closed = 1;
nodes = (
(100,0,l),
(100,700,l),
(70,700,l),
(70,0,l)
);
}
);
width = 561;
},
{
background = {
shapes = (
{
pos = (5,700);
ref = P;
scale = (1,-1);
}
);
};
layerId = "14EEE41F-D714-4243-A717-73445EE7DABA";
shapes = (
{
closed = 1;
nodes = (
(324,0,ls),
(460,0,o),
(540,81,o),
(540,207,cs),
(540,296,o),
(471,374,o),
(385,389,c),
(385,365,l),
(453,384,o),
(507,448,o),
(507,517,cs),
(507,624,o),
(433,700,o),
(306,700,cs),
(108,700,l),
(108,626,l),
(306,626,ls),
(385,626,o),
(426,581,o),
(426,517,cs),
(426,453,o),
(380,408,o),
(306,408,cs),
(108,408,l),
(108,335,l),
(324,335,ls),
(408,335,o),
(459,287,o),
(459,207,cs),
(459,124,o),
(413,74,o),
(324,74,cs),
(108,74,l),
(108,0,l)
);
},
{
closed = 1;
nodes = (
(140,0,l),
(140,700,l),
(65,700,l),
(65,0,l)
);
}
);
width = 580;
},
{
layerId = "090CB6A0-BE7C-4D17-A551-206C7456A8A3";
shapes = (
{
closed = 1;
nodes = (
(337,0,ls),
(477,0,o),
(562,81,o),
(562,207,cs),
(562,308,o),
(487,386,o),
(393,389,c),
(393,365,l),
(469,373,o),
(529,437,o),
(529,515,cs),
(529,623,o),
(447,700,o),
(311,700,cs),
(116,700,l),
(116,581,l),
(311,581,ls),
(367,581,o),
(404,551,o),
(404,505,cs),
(404,459,o),
(366,428,o),
(311,428,cs),
(116,428,l),
(116,313,l),
(324,313,ls),
(389,313,o),
(432,277,o),
(432,217,cs),
(432,156,o),
(393,119,o),
(324,119,cs),
(116,119,l),
(116,0,l)
);
},
{
closed = 1;
nodes = (
(180,0,l),
(180,700,l),
(50,700,l),
(50,0,l)
);
}
);
width = 582;
},
{
associatedMasterId = "14EEE41F-D714-4243-A717-73445EE7DABA";
background = {
shapes = (
{
pos = (0,700);
ref = P;
scale = (1,-1);
}
);
};
layerId = "632DA8FF-F61B-4FA8-81E9-67CCA595D024";
name = "18 Oct 23, 03:27";
shapes = (
{
closed = 1;
nodes = (
(309,0,ls),
(446,0,o),
(535,81,o),
(535,207,cs),
(535,327,o),
(441,404,o),
(295,404,cs),
(103,404,l),
(103,335,l),
(309,335,ls),
(399,335,o),
(454,287,o),
(454,207,cs),
(454,124,o),
(399,74,o),
(309,74,cs),
(103,74,l),
(103,0,l)
);
},
{
closed = 1;
nodes = (
(60,0,l),
(135,0,l),
(135,700,l),
(60,700,l)
);
},
{
closed = 1;
nodes = (
(103,626,l),
(291,626,ls),
(371,626,o),
(421,581,o),
(421,517,cs),
(421,453,o),
(371,408,o),
(291,408,cs),
(103,408,l),
(103,335,l),
(277,335,ls),
(413,335,o),
(502,411,o),
(502,517,cs),
(502,624,o),
(419,700,o),
(291,700,cs),
(103,700,l)
);
}
);
width = 540;
}
);
metricLeft = H;
unicode = 66;
},
{
color = 5;
glyphname = C;
kernLeft = O;
kernRight = C;
layers = (
{
anchors = (
{
name = bottom;
pos = (373,0);
},
{
name = top;
pos = (373,700);
}
);
background = {
shapes = (
{
pos = (12,0);
ref = G;
}
);
};
layerId = "3114FB65-9464-41A5-B67E-A8F9F43C0EF1";
shapes = (
{
closed = 1;
nodes = (
(503,-8,o),
(604,63,o),
(653,192,c),
(633,197,l),
(623,195,l),
(575,80,o),
(488,20,o),
(374,20,cs),
(208,20,o),
(95,153,o),
(95,350,cs),
(95,547,o),
(208,680,o),
(374,680,cs),
(488,680,o),
(575,620,o),
(623,505,c),
(633,503,l),
(653,508,l),
(604,637,o),
(503,708,o),
(374,708,cs),
(191,708,o),
(65,563,o),
(65,350,cs),
(65,137,o),
(191,-8,o),
(374,-8,cs)
);
}
);
width = 718;
},
{
anchors = (
{
name = bottom;
pos = (366,0);
},
{
name = top;
pos = (371,700);
}
);
background = {
shapes = (
{
pos = (10,0);
ref = G;
}
);
};
layerId = "14EEE41F-D714-4243-A717-73445EE7DABA";
shapes = (
{
closed = 1;
nodes = (
(505,-12,o),
(617,62,o),
(669,194,c),
(604,213,l),
(593,211,l),
(552,113,o),
(472,61,o),
(374,61,cs),
(231,61,o),
(127,172,o),
(127,350,cs),
(127,528,o),
(231,639,o),
(374,639,cs),
(472,639,o),
(552,587,o),
(593,489,c),
(604,487,l),
(669,506,l),
(617,638,o),
(505,712,o),
(371,712,cs),
(184,712,o),
(50,569,o),
(50,350,cs),
(50,131,o),
(184,-12,o),
(371,-12,cs)
);
}
);
width = 719;
},
{
anchors = (
{
name = bottom;
pos = (357,0);
},
{
name = top;
pos = (357,700);
}
);
background = {
shapes = (
{
pos = (6,0);
ref = G;
}
);
};
layerId = "090CB6A0-BE7C-4D17-A551-206C7456A8A3";
shapes = (
{
closed = 1;
nodes = (
(504,-16,o),
(617,61,o),
(660,186,c),
(541,221,l),
(530,219,l),
(504,152,o),
(440,112,o),
(366,112,cs),
(242,112,o),
(165,206,o),
(165,350,cs),
(165,494,o),
(242,588,o),
(366,588,cs),
(440,588,o),
(504,548,o),
(530,481,c),
(541,479,l),
(660,514,l),
(617,639,o),
(504,716,o),
(366,716,cs),
(163,716,o),
(30,569,o),
(30,350,cs),
(30,131,o),
(163,-16,o),
(366,-16,cs)
);
}
);
width = 690;
},
{
associatedMasterId = "14EEE41F-D714-4243-A717-73445EE7DABA";
background = {
shapes = (
{
ref = G;
}
);
};
layerId = "B50BC454-146D-4EB9-A370-7098DEBBC603";
name = "18 Oct 23, 21:04";
shapes = (
{
closed = 1;
nodes = (
(505,-12,o),
(619,62,o),
(672,194,c),
(606,213,l),
(595,211,l),
(553,113,o),
(471,61,o),
(371,61,cs),
(224,61,o),
(117,172,o),
(117,350,cs),
(117,528,o),
(224,639,o),
(371,639,cs),
(471,639,o),
(553,587,o),
(595,489,c),
(606,487,l),
(672,506,l),
(619,638,o),
(505,712,o),
(368,712,cs),
(177,712,o),
(40,569,o),
(40,350,cs),
(40,131,o),
(177,-12,o),
(368,-12,cs)
);
}
);
width = 753;
},
{
associatedMasterId = "090CB6A0-BE7C-4D17-A551-206C7456A8A3";
background = {
shapes = (
{
pos = (15,0);
ref = G;
}
);
};
layerId = "24268C23-25E7-4BE3-86D9-E179B27E3EE3";
name = "28 Jan 24, 14:49";
shapes = (
{
closed = 1;
nodes = (
(180,350,l),
(180,493,o),
(261,584,o),
(375,584,cs),
(441,584,o),
(500,548,o),
(533,484,c),
(544,482,l),
(663,517,l),
(614,638,o),
(506,712,o),
(375,712,cs),
(180,712,o),
(45,566,o),
(45,350,c)
);
}
);
width = 740;
}
);
metricLeft = O;
metricRight = O;
unicode = 67;
},
{
color = 5;
glyphname = D;
kernRight = O;
layers = (
{
anchors = (
{
name = bottom;
pos = (256,0);
},
{
name = center;
pos = (141,350);
},
{
name = top;
pos = (256,700);
}
);
layerId = "3114FB65-9464-41A5-B67E-A8F9F43C0EF1";
shapes = (
{
closed = 1;
nodes = (
(239,0,ls),
(471,0,o),
(601,125,o),
(601,350,cs),
(601,575,o),
(471,700,o),
(239,700,cs),
(90,700,l),
(90,672,l),
(239,672,ls),
(452,672,o),
(571,557,o),
(571,350,cs),
(571,143,o),
(452,28,o),
(239,28,cs),
(90,28,l),
(90,0,l)
);
},
{
closed = 1;
nodes = (
(100,0,l),
(100,700,l),
(70,700,l),
(70,0,l)
);
}
);
width = 666;
},
{
anchors = (
{
name = bottom;
pos = (300,0);
},
{
name = center;
pos = (141,350);
},
{
name = top;
pos = (300,700);
}
);
layerId = "14EEE41F-D714-4243-A717-73445EE7DABA";
shapes = (
{
closed = 1;
nodes = (
(300,0,ls),
(497,0,o),
(617,141,o),
(617,350,cs),
(617,559,o),
(497,700,o),
(300,700,cs),
(101,700,l),
(101,627,l),
(300,627,ls),
(451,627,o),
(540,519,o),
(540,350,cs),
(540,182,o),
(451,73,o),
(300,73,cs),
(101,73,l),
(101,0,l)
);
},
{
closed = 1;
nodes = (
(140,0,l),
(140,700,l),
(65,700,l),
(65,0,l)
);
}
);
width = 667;
},
{
anchors = (
{
name = bottom;
pos = (304,0);
},
{
name = center;
pos = (149,350);
},
{
name = top;
pos = (304,700);
}
);
background = {
shapes = (
{
ref = H;
}
);
};
layerId = "090CB6A0-BE7C-4D17-A551-206C7456A8A3";
shapes = (
{
closed = 1;
nodes = (
(310,0,ls),
(511,0,o),
(638,146,o),
(638,350,cs),
(638,554,o),
(511,700,o),
(310,700,cs),
(137,700,l),
(137,572,l),
(310,572,ls),
(430,572,o),
(503,481,o),
(503,350,cs),
(503,220,o),
(430,128,o),
(310,128,cs),
(137,128,l),
(137,0,l)
);
},
{
closed = 1;
nodes = (
(185,0,l),
(185,700,l),
(50,700,l),
(50,0,l)
);
}
);
width = 668;
}
);
metricLeft = H;
metricRight = O;
unicode = 68;
},
{
color = 5;
glyphname = Eth;
kernRight = O;
layers = (
{
layerId = "3114FB65-9464-41A5-B67E-A8F9F43C0EF1";
shapes = (
{
ref = D;
},
{
pos = (-45,0);
ref = strokeshortcomb.case;
}
);
width = 666;
},
{
layerId = "14EEE41F-D714-4243-A717-73445EE7DABA";
shapes = (
{
ref = D;
},
{
pos = (-45,0);
ref = strokeshortcomb.case;
}
);
width = 667;
},
{
layerId = "090CB6A0-BE7C-4D17-A551-206C7456A8A3";
shapes = (
{
ref = D;
},
{
pos = (-38,0);
ref = strokeshortcomb.case;
}
);
width = 668;
},
{
associatedMasterId = "14EEE41F-D714-4243-A717-73445EE7DABA";
layerId = "3A1C0409-9BC3-48EE-B4B2-915F0BB751E4";
name = "29 Jan 24, 16:25";
shapes = (
{
pos = (25,0);
ref = D;
},
{
closed = 1;
nodes = (
(322,385,l),
(10,385,l),
(10,316,l),
(322,316,l)
);
}
);
width = 682;
},
{
associatedMasterId = "3114FB65-9464-41A5-B67E-A8F9F43C0EF1";
layerId = "EE0159B8-E778-4635-AD91-CAEA74213C06";
name = "29 Jan 24, 16:30";
shapes = (
{
ref = D;
},
{
closed = 1;
nodes = (
(317,365,l),
(5,365,l),
(5,337,l),
(317,337,l)
);
}
);
width = 666;
}
);
metricRight = D;
unicode = 208;
},
{
color = 5;
glyphname = E;
layers = (
{
anchors = (
{
name = bottom;
pos = (273,0);
},
{
name = ogonek;
pos = (496,0);
},
{
name = top;
pos = (273,700);
},
{
name = topleft;
pos = (20,700);
}
);
layerId = "3114FB65-9464-41A5-B67E-A8F9F43C0EF1";
shapes = (
{
closed = 1;
nodes = (
(100,0,l),
(100,700,l),
(70,700,l),
(70,0,l)
);
},
{
closed = 1;
nodes = (
(496,0,l),
(496,28,l),
(87,28,l),
(87,0,l)
);
},
{
closed = 1;
nodes = (
(476,341,l),
(476,369,l),
(87,369,l),
(87,341,l)
);
},
{
closed = 1;
nodes = (
(496,672,l),
(496,700,l),
(87,700,l),
(87,672,l)
);
}
);
width = 536;
},
{
anchors = (
{
name = bottom;
pos = (273,0);
},
{
name = ogonek;
pos = (506,0);
},
{
name = top;
pos = (273,700);
},
{
name = topleft;
pos = (20,700);
}
);
background = {
shapes = (
{
pos = (5,0);
ref = H;
}
);
};
layerId = "14EEE41F-D714-4243-A717-73445EE7DABA";
shapes = (
{
closed = 1;
nodes = (
(140,0,l),
(140,700,l),
(65,700,l),
(65,0,l)
);
},
{
closed = 1;
nodes = (
(506,0,l),
(506,73,l),
(104,73,l),
(104,0,l)
);
},
{
closed = 1;
nodes = (
(486,318,l),
(486,391,l),
(104,391,l),
(104,318,l)
);
},
{
closed = 1;
nodes = (
(506,627,l),
(506,700,l),
(104,700,l),
(104,627,l)
);
}
);
width = 541;
},
{
anchors = (
{
name = bottom;
pos = (277,0);
},
{
name = ogonek;
pos = (524,0);
},
{
name = top;
pos = (277,700);
},
{
name = topleft;
pos = (20,700);
}
);
background = {
shapes = (
{
ref = H;
}
);
};
layerId = "090CB6A0-BE7C-4D17-A551-206C7456A8A3";
shapes = (
{
closed = 1;
nodes = (
(185,0,l),
(185,700,l),
(50,700,l),
(50,0,l)
);
},
{
closed = 1;
nodes = (
(524,0,l),
(524,128,l),
(119,128,l),
(119,0,l)
);
},
{
closed = 1;
nodes = (
(494,291,l),
(494,419,l),
(119,419,l),
(119,291,l)
);
},
{
closed = 1;
nodes = (
(524,572,l),
(524,700,l),
(119,700,l),
(119,572,l)
);
}
);
width = 539;
}
);
metricLeft = H;
unicode = 69;
},
{
color = 5;
glyphname = F;
kernRight = F;
layers = (
{
background = {
shapes = (
{
ref = E;
}
);
};
layerId = "3114FB65-9464-41A5-B67E-A8F9F43C0EF1";
shapes = (
{
closed = 1;
nodes = (
(100,0,l),
(100,700,l),
(70,700,l),
(70,0,l)
);
},
{
closed = 1;
nodes = (
(456,336,l),
(456,364,l),
(87,364,l),
(87,336,l)
);
},
{
closed = 1;
nodes = (
(476,672,l),
(476,700,l),
(87,700,l),
(87,672,l)
);
}
);
width = 506;
},
{
background = {
shapes = (
{
pos = (5,0);
ref = E;
}
);
};
layerId = "14EEE41F-D714-4243-A717-73445EE7DABA";
shapes = (
{
closed = 1;
nodes = (
(140,0,l),
(140,700,l),
(65,700,l),
(65,0,l)
);
},
{
closed = 1;
nodes = (
(466,313,l),
(466,386,l),
(104,386,l),
(104,313,l)
);
},
{
closed = 1;
nodes = (
(496,627,l),
(496,700,l),
(104,700,l),
(104,627,l)
);
}
);
width = 521;
},
{
background = {
shapes = (
{
ref = E;
}
);
};
layerId = "090CB6A0-BE7C-4D17-A551-206C7456A8A3";
shapes = (
{
closed = 1;
nodes = (
(185,0,l),
(185,700,l),
(50,700,l),
(50,0,l)
);
},
{
closed = 1;
nodes = (
(474,286,l),
(474,414,l),
(119,414,l),
(119,286,l)
);
},
{
closed = 1;
nodes = (
(504,572,l),
(504,700,l),
(119,700,l),
(119,572,l)
);
}
);
width = 509;
}
);
metricLeft = H;
unicode = 70;
},
{
color = 5;
glyphname = G;
kernLeft = O;
kernRight = H;
layers = (
{
anchors = (
{
name = bottom;
pos = (396,0);
},
{
name = top;
pos = (396,700);
}
);
background = {
shapes = (
{
pos = (15,0);
ref = O;
}
);
};
layerId = "3114FB65-9464-41A5-B67E-A8F9F43C0EF1";
shapes = (
{
closed = 1;
nodes = (
(523,-8,o),
(638,91,o),
(671,234,c),
(659,234,l),
(659,0,l),
(688,0,l),
(688,347,l),
(674,361,l),
(409,361,l),
(409,333,l),
(672,333,l),
(659,340,l),
(659,338,ls),
(659,150,o),
(538,20,o),
(377,20,cs),
(212,20,o),
(95,150,o),
(95,350,cs),
(95,551,o),
(214,680,o),
(382,680,cs),
(501,680,o),
(592,621,o),
(638,514,c),
(648,512,l),
(668,518,l),
(618,636,o),
(515,708,o),
(382,708,cs),
(195,708,o),
(65,564,o),
(65,350,cs),
(65,136,o),
(193,-8,o),
(377,-8,cs)
);
}
);
width = 777;
},
{
anchors = (
{
name = bottom;
pos = (388,0);
},
{
name = top;
pos = (376,700);
}
);
background = {
shapes = (
{
pos = (10,0);
ref = O;
}
);
};
layerId = "14EEE41F-D714-4243-A717-73445EE7DABA";
shapes = (
{
closed = 1;
nodes = (
(505,-12,o),
(606,51,o),
(650,170,c),
(623,170,l),
(623,0,l),
(693,0,l),
(693,363,l),
(678,377,l),
(399,377,l),
(399,304,l),
(668,304,l),
(624,339,l),
(624,297,ls),
(624,175,o),
(535,61,o),
(384,61,cs),
(233,61,o),
(127,175,o),
(127,352,cs),
(127,526,o),
(234,639,o),
(385,639,cs),
(482,639,o),
(559,591,o),
(600,502,c),
(611,500,l),
(673,519,l),
(626,638,o),
(518,712,o),
(382,712,cs),
(186,712,o),
(50,566,o),
(50,351,cs),
(50,134,o),
(186,-12,o),
(381,-12,cs)
);
}
);
width = 743;
},
{
anchors = (
{
name = bottom;
pos = (370,0);
},
{
name = top;
pos = (370,700);
}
);
background = {
shapes = (
{
ref = O;
}
);
};
layerId = "090CB6A0-BE7C-4D17-A551-206C7456A8A3";
shapes = (
{
closed = 1;
nodes = (
(450,-16,o),
(548,30,o),
(602,140,c),
(557,140,l),
(557,0,l),
(680,0,l),
(680,386,l),
(666,400,l),
(374,400,l),
(374,272,l),
(587,272,l),
(550,290,l),
(550,282,ls),
(550,168,o),
(452,112,o),
(374,112,cs),
(252,112,o),
(165,204,o),
(165,350,cs),
(165,497,o),
(248,588,o),
(365,588,cs),
(436,588,o),
(495,552,o),
(528,488,c),
(539,486,l),
(658,521,l),
(609,642,o),
(501,716,o),
(365,716,cs),
(167,716,o),
(30,570,o),
(30,350,cs),
(30,130,o),
(164,-16,o),
(357,-16,cs)
);
}
);
width = 740;
},
{
associatedMasterId = "14EEE41F-D714-4243-A717-73445EE7DABA";
background = {
shapes = (
{
ref = O;
}
);
};
layerId = "22AC10F0-8103-42EE-9733-F8B765942E33";
name = "10 Aug 23, 03:27";
shapes = (
{
closed = 1;
nodes = (
(570,-12,o),
(708,134,o),
(708,332,cs),
(708,373,l),
(693,387,l),
(400,387,l),
(400,314,l),
(546,314,ls),
(593,314,o),
(618,316,o),
(674,324,c),
(634,351,l),
(642,181,o),
(539,61,o),
(380,61,cs),
(229,61,o),
(117,175,o),
(117,352,cs),
(117,526,o),
(226,639,o),
(383,639,cs),
(485,639,o),
(564,591,o),
(607,502,c),
(618,500,l),
(687,519,l),
(634,638,o),
(523,712,o),
(380,712,cs),
(179,712,o),
(40,566,o),
(40,351,cs),
(40,134,o),
(182,-12,o),
(377,-12,cs)
);
}
);
width = 760;
},
{
associatedMasterId = "14EEE41F-D714-4243-A717-73445EE7DABA";
background = {
shapes = (
{
ref = O;
}
);
};
layerId = "67BC7098-00E0-49B0-8813-574060ADFF36";
name = "10 Aug 23, 03:29";
shapes = (
{
closed = 1;
nodes = (
(571,-12,o),
(708,134,o),
(708,332,cs),
(708,373,l),
(693,387,l),
(400,387,l),
(400,314,l),
(674,314,l),
(633,351,l),
(641,181,o),
(539,61,o),
(382,61,cs),
(226,61,o),
(117,175,o),
(117,352,cs),
(117,526,o),
(226,639,o),
(382,639,cs),
(484,639,o),
(564,591,o),
(607,502,c),
(618,500,l),
(687,519,l),
(634,638,o),
(522,712,o),
(379,712,cs),
(179,712,o),
(40,566,o),
(40,351,cs),
(40,134,o),
(179,-12,o),
(379,-12,cs)
);
}
);
width = 760;
},
{
associatedMasterId = "14EEE41F-D714-4243-A717-73445EE7DABA";
background = {
shapes = (
{
ref = O;
}
);
};
layerId = "14420FAB-4531-430D-86AC-3B7F80C9531D";
name = "18 Oct 23, 20:53";
shapes = (
{
closed = 1;
nodes = (
(498,-12,o),
(613,51,o),
(659,170,c),
(633,170,l),
(633,0,l),
(703,0,l),
(703,373,l),
(688,387,l),
(400,387,l),
(400,314,l),
(678,314,l),
(634,349,l),
(642,180,o),
(539,61,o),
(382,61,cs),
(226,61,o),
(117,175,o),
(117,352,cs),
(117,526,o),
(226,639,o),
(382,639,cs),
(484,639,o),
(564,591,o),
(607,502,c),
(618,500,l),
(687,519,l),
(634,638,o),
(522,712,o),
(379,712,cs),
(179,712,o),
(40,566,o),
(40,351,cs),
(40,134,o),
(179,-12,o),
(379,-12,cs)
);
}
);
width = 753;
},
{
associatedMasterId = "3114FB65-9464-41A5-B67E-A8F9F43C0EF1";
background = {
shapes = (
{
ref = O;
}
);
};
layerId = "C11C349B-9E1E-4B32-80D8-77D071B227A9";
name = "18 Oct 23, 20:54";
shapes = (
{
closed = 1;
nodes = (
(529,-8,o),
(650,91,o),
(684,234,c),
(673,234,l),
(673,0,l),
(702,0,l),
(702,357,l),
(687,371,l),
(410,371,l),
(410,343,l),
(685,343,l),
(673,350,l),
(673,151,o),
(547,20,o),
(377,20,cs),
(203,20,o),
(80,150,o),
(80,350,cs),
(80,551,o),
(205,680,o),
(382,680,cs),
(506,680,o),
(602,621,o),
(650,514,c),
(660,512,l),
(681,518,l),
(629,636,o),
(521,708,o),
(382,708,cs),
(186,708,o),
(50,564,o),
(50,350,cs),
(50,136,o),
(184,-8,o),
(377,-8,cs)
);
}
);
width = 762;
},
{
associatedMasterId = "090CB6A0-BE7C-4D17-A551-206C7456A8A3";
background = {
shapes = (
{
ref = O;
}
);
};
layerId = "D40CD601-D676-4B70-B3AD-5D05F3F7B58A";
name = "18 Oct 23, 20:55";
shapes = (
{
closed = 1;
nodes = (
(462,-12,o),
(563,34,o),
(619,144,c),
(577,144,l),
(577,0,l),
(700,0,l),
(700,381,l),
(685,395,l),
(384,395,l),
(384,267,l),
(604,267,l),
(566,282,l),
(551,176,o),
(466,116,o),
(365,116,cs),
(248,116,o),
(165,208,o),
(165,350,cs),
(165,493,o),
(250,584,o),
(370,584,cs),
(445,584,o),
(508,548,o),
(543,484,c),
(554,482,l),
(677,517,l),
(625,638,o),
(512,712,o),
(370,712,cs),
(169,712,o),
(30,566,o),
(30,350,cs),
(30,134,o),
(167,-12,o),
(365,-12,cs)
);
}
);
width = 740;
},
{
associatedMasterId = "14EEE41F-D714-4243-A717-73445EE7DABA";
background = {
shapes = (
{
ref = O;
}
);
};
layerId = "1895828C-A41F-42B2-884E-682B602E1A4F";
name = "15 Dec 23, 03:15";
shapes = (
{
closed = 1;
nodes = (
(486,-12,o),
(596,51,o),
(640,170,c),
(613,170,l),
(613,0,l),
(683,0,l),
(683,363,l),
(668,377,l),
(389,377,l),
(389,304,l),
(658,304,l),
(614,339,l),
(622,180,o),
(521,61,o),
(374,61,cs),
(223,61,o),
(117,175,o),
(117,352,cs),
(117,526,o),
(222,639,o),
(371,639,cs),
(470,639,o),
(548,591,o),
(590,502,c),
(601,500,l),
(667,519,l),
(615,638,o),
(508,712,o),
(368,712,cs),
(174,712,o),
(40,566,o),
(40,351,cs),
(40,134,o),
(176,-12,o),
(371,-12,cs)
);
}
);
width = 733;
},
{
associatedMasterId = "090CB6A0-BE7C-4D17-A551-206C7456A8A3";
background = {
shapes = (
{
ref = O;
}
);
};
layerId = "53C61873-8108-4259-9B01-B5A3CEC87917";
name = "15 Dec 23, 03:20";
shapes = (
{
closed = 1;
nodes = (
(449,-12,o),
(547,34,o),
(602,144,c),
(557,144,l),
(557,0,l),
(680,0,l),
(680,381,l),
(666,395,l),
(374,395,l),
(374,267,l),
(587,267,l),
(550,282,l),
(536,176,o),
(453,116,o),
(355,116,cs),
(244,116,o),
(165,208,o),
(165,350,cs),
(165,493,o),
(246,584,o),
(360,584,cs),
(433,584,o),
(494,548,o),
(528,484,c),
(539,482,l),
(658,517,l),
(608,638,o),
(498,712,o),
(360,712,cs),
(165,712,o),
(30,566,o),
(30,350,cs),
(30,134,o),
(163,-12,o),
(355,-12,cs)
);
}
);
width = 740;
},
{
associatedMasterId = "3114FB65-9464-41A5-B67E-A8F9F43C0EF1";
background = {
shapes = (
{
ref = O;
}
);
};
layerId = "7F99C448-9CB0-4785-8892-4A16BA40471B";
name = "15 Dec 23, 03:21";
shapes = (
{
closed = 1;
nodes = (
(508,-8,o),
(623,91,o),
(656,234,c),
(644,234,l),
(644,0,l),
(673,0,l),
(673,347,l),
(659,361,l),
(394,361,l),
(394,333,l),
(657,333,l),
(644,340,l),
(644,151,o),
(524,20,o),
(362,20,cs),
(197,20,o),
(80,150,o),
(80,350,cs),
(80,551,o),
(199,680,o),
(367,680,cs),
(486,680,o),
(577,621,o),
(623,514,c),
(633,512,l),
(653,518,l),
(603,636,o),
(500,708,o),
(367,708,cs),
(180,708,o),
(50,564,o),
(50,350,cs),
(50,136,o),
(178,-8,o),
(362,-8,cs)
);
}
);
width = 762;
}
);
metricLeft = O;
unicode = 71;
},
{
color = 5;
glyphname = H;
kernRight = H;
layers = (
{
anchors = (
{
name = bottom;
pos = (315,0);
},
{
name = center;
pos = (315,538);
},
{
name = top;
pos = (315,700);
},
{
name = topleft;
pos = (20,700);
}
);
background = {
shapes = (
{
closed = 1;
nodes = (
(128,0,l),
(128,700,l),
(53,700,l),
(53,0,l)
);
},
{
closed = 1;
nodes = (
(577,0,l),
(577,700,l),
(502,700,l),
(502,0,l)
);
},
{
closed = 1;
nodes = (
(547,396,l),
(92,396,l),
(92,323,l),
(547,323,l)
);
}
);
};
layerId = "3114FB65-9464-41A5-B67E-A8F9F43C0EF1";
shapes = (
{
closed = 1;
nodes = (
(100,0,l),
(100,700,l),
(70,700,l),
(70,0,l)
);
},
{
closed = 1;
nodes = (
(560,0,l),
(560,700,l),
(530,700,l),
(530,0,l)
);
},
{
closed = 1;
nodes = (
(552,374,l),
(87,374,l),
(87,346,l),
(552,346,l)
);
}
);
width = 630;
},
{
anchors = (
{
name = bottom;
pos = (327,0);
},
{
name = center;
pos = (327,541);
},
{
name = top;
pos = (327,700);
},
{
name = topleft;
pos = (20,700);
}
);
layerId = "14EEE41F-D714-4243-A717-73445EE7DABA";
shapes = (
{
closed = 1;
nodes = (
(140,0,l),
(140,700,l),
(65,700,l),
(65,0,l)
);
},
{
closed = 1;
nodes = (
(589,0,l),
(589,700,l),
(514,700,l),
(514,0,l)
);
},
{
closed = 1;
nodes = (
(559,396,l),
(104,396,l),
(104,323,l),
(559,323,l)
);
}
);
width = 654;
},
{
anchors = (
{
name = bottom;
pos = (342,0);
},
{
name = center;
pos = (342,550);
},
{
name = top;
pos = (342,700);
},
{
name = topleft;
pos = (20,700);
}
);
layerId = "090CB6A0-BE7C-4D17-A551-206C7456A8A3";
shapes = (
{
closed = 1;
nodes = (
(185,0,l),
(185,700,l),
(50,700,l),
(50,0,l)
);
},
{
closed = 1;
nodes = (
(634,0,l),
(634,700,l),
(499,700,l),
(499,0,l)
);
},
{
closed = 1;
nodes = (
(574,424,l),
(119,424,l),
(119,296,l),
(574,296,l)
);
}
);
width = 684;
}
);
metricRight = "=|";
unicode = 72;
},
{
color = 5;
glyphname = Hbar;
kernRight = H;
layers = (
{
layerId = "3114FB65-9464-41A5-B67E-A8F9F43C0EF1";
shapes = (
{
ref = H;
},
{
pos = (-49,-12);
ref = strokelongcomb.case;
}
);
width = 630;
},
{
layerId = "14EEE41F-D714-4243-A717-73445EE7DABA";
shapes = (
{
ref = H;
},
{
pos = (-45,-2);
ref = strokelongcomb.case;
}
);
width = 654;
},
{
layerId = "090CB6A0-BE7C-4D17-A551-206C7456A8A3";
shapes = (
{
ref = H;
},
{
pos = (-46,0);
ref = strokelongcomb.case;
}
);
width = 684;
},
{
associatedMasterId = "14EEE41F-D714-4243-A717-73445EE7DABA";
layerId = "26AC3D61-BAB1-45AD-A9E7-C1BA1B9CFB55";
name = "29 Jan 24, 16:33";
shapes = (
{
pos = (25,0);
ref = H;
},
{
closed = 1;
nodes = (
(694,575,l),
(10,575,l),
(10,506,l),
(694,506,l)
);
}
);
width = 704;
}
);
unicode = 294;
},
{
color = 5;
glyphname = I;
kernRight = H;
layers = (
{
anchors = (
{
name = bottom;
pos = (95,0);
},
{
name = ogonek;
pos = (110,0);
},
{
name = top;
pos = (95,700);
},
{
name = topleft;
pos = (20,700);
}
);
layerId = "3114FB65-9464-41A5-B67E-A8F9F43C0EF1";
shapes = (
{
closed = 1;
nodes = (
(110,0,l),
(110,700,l),
(80,700,l),
(80,0,l)
);
}
);
width = 190;
},
{
anchors = (
{
name = bottom;
pos = (113,0);
},
{
name = ogonek;
pos = (150,0);
},
{
name = top;
pos = (113,700);
},
{
name = topleft;
pos = (20,700);
}
);
layerId = "14EEE41F-D714-4243-A717-73445EE7DABA";
shapes = (
{
closed = 1;
nodes = (
(150,0,l),
(150,700,l),
(75,700,l),
(75,0,l)
);
}
);
width = 225;
},
{
anchors = (
{
name = bottom;
pos = (128,0);
},
{
name = ogonek;
pos = (195,0);
},
{
name = top;
pos = (128,700);
},
{
name = topleft;
pos = (20,700);
}
);
layerId = "090CB6A0-BE7C-4D17-A551-206C7456A8A3";
shapes = (
{
closed = 1;
nodes = (
(195,0,l),
(195,700,l),
(60,700,l),
(60,0,l)
);
}
);
width = 255;
}
);
metricLeft = "=H+10";
metricRight = "=H+10";
unicode = 73;
},
{
color = 5;
glyphname = J;
kernLeft = J;
kernRight = H;
layers = (
{
layerId = "3114FB65-9464-41A5-B67E-A8F9F43C0EF1";
shapes = (
{
closed = 1;
nodes = (
(322,-8,o),
(401,69,o),
(401,185,cs),
(401,700,l),
(371,700,l),
(371,183,ls),
(371,84,o),
(304,20,o),
(213,20,cs),
(121,20,o),
(54,81,o),
(54,175,cs),
(54,223,l),
(43,228,l),
(25,228,l),
(25,175,ls),
(25,67,o),
(104,-8,o),
(213,-8,cs)
);
}
);
width = 471;
},
{
background = {
shapes = (
{
pos = (-85,0);
ref = U;
}
);
};
layerId = "14EEE41F-D714-4243-A717-73445EE7DABA";
shapes = (
{
closed = 1;
nodes = (
(339,-12,o),
(418,69,o),
(418,191,cs),
(418,700,l),
(343,700,l),
(343,189,ls),
(343,109,o),
(294,61,o),
(219,61,cs),
(144,61,o),
(95,108,o),
(95,181,cs),
(95,224,l),
(84,229,l),
(20,229,l),
(20,181,ls),
(20,67,o),
(99,-12,o),
(219,-12,cs)
);
}
);
width = 483;
},
{
layerId = "090CB6A0-BE7C-4D17-A551-206C7456A8A3";
shapes = (
{
closed = 1;
nodes = (
(356,-16,o),
(443,66,o),
(443,189,cs),
(443,700,l),
(308,700,l),
(308,187,ls),
(308,144,o),
(273,112,o),
(224,112,cs),
(176,112,o),
(140,144,o),
(140,187,cs),
(140,225,l),
(129,230,l),
(5,230,l),
(5,187,ls),
(5,66,o),
(93,-16,o),
(224,-16,cs)
);
}
);
width = 488;
}
);
unicode = 74;
},
{
color = 5;
glyphname = K;
kernRight = K;
layers = (
{
anchors = (
{
name = bottom;
pos = (293,0);
},
{
name = top;
pos = (275,700);
}
);
layerId = "3114FB65-9464-41A5-B67E-A8F9F43C0EF1";
shapes = (
{
closed = 1;
nodes = (
(521,692,l),
(521,700,l),
(488,700,l),
(86,263,l),
(86,221,l)
);
},
{
closed = 1;
nodes = (
(100,0,l),
(100,700,l),
(70,700,l),
(70,0,l)
);
},
{
closed = 1;
nodes = (
(546,0,l),
(546,8,l),
(239,401,l),
(219,380,l),
(515,0,l)
);
}
);
width = 554;
},
{
anchors = (
{
name = bottom;
pos = (313,0);
},
{
name = top;
pos = (290,700);
}
);
layerId = "14EEE41F-D714-4243-A717-73445EE7DABA";
shapes = (
{
closed = 1;
nodes = (
(563,692,l),
(563,700,l),
(470,700,l),
(101,293,l),
(101,185,l)
);
},
{
closed = 1;
nodes = (
(140,0,l),
(140,700,l),
(65,700,l),
(65,0,l)
);
},
{
closed = 1;
nodes = (
(583,0,l),
(583,8,l),
(283,415,l),
(228,363,l),
(497,0,l)
);
}
);
width = 580;
},
{
anchors = (
{
name = bottom;
pos = (323,0);
},
{
name = top;
pos = (295,700);
}
);
layerId = "090CB6A0-BE7C-4D17-A551-206C7456A8A3";
shapes = (
{
closed = 1;
nodes = (
(612,692,l),
(612,700,l),
(447,700,l),
(120,319,l),
(120,132,l)
);
},
{
closed = 1;
nodes = (
(185,0,l),
(185,700,l),
(50,700,l),
(50,0,l)
);
},
{
closed = 1;
nodes = (
(623,0,l),
(623,8,l),
(337,435,l),
(236,347,l),
(469,0,l)
);
}
);
width = 613;
},
{
associatedMasterId = "14EEE41F-D714-4243-A717-73445EE7DABA";
layerId = "1503252D-B6D6-4DBD-9278-69D89DFF53E8";
name = "18 Oct 23, 11:29";
shapes = (
{
closed = 1;
nodes = (
(135,0,l),
(135,700,l),
(60,700,l),
(60,0,l)
);
},
{
closed = 1;
nodes = (
(225,363,l),
(495,0,l),
(568,0,l),
(575,16,l),
(278,415,l)
);
},
{
closed = 1;
nodes = (
(558,700,l),
(464,700,l),
(96,291,l),
(96,188,l),
(558,691,l)
);
}
);
width = 575;
}
);
metricLeft = H;
unicode = 75;
},
{
color = 5;
glyphname = L;
kernRight = L;
layers = (
{
anchors = (
{
name = bottom;
pos = (258,0);
},
{
name = center;
pos = (113,350);
},
{
name = top;
pos = (85,700);
},
{
name = topright;
pos = (171,700);
}
);
layerId = "3114FB65-9464-41A5-B67E-A8F9F43C0EF1";
shapes = (
{
closed = 1;
nodes = (
(100,0,l),
(100,700,l),
(70,700,l),
(70,0,l)
);
},
{
closed = 1;
nodes = (
(476,0,l),
(476,28,l),
(87,28,l),
(87,0,l)
);
}
);
width = 516;
},
{
anchors = (
{
name = bottom;
pos = (284,0);
},
{
name = center;
pos = (151,350);
},
{
name = top;
pos = (102,700);
},
{
name = topright;
pos = (211,700);
}
);
layerId = "14EEE41F-D714-4243-A717-73445EE7DABA";
shapes = (
{
closed = 1;
nodes = (
(140,0,l),
(140,700,l),
(65,700,l),
(65,0,l)
);
},
{
closed = 1;
nodes = (
(496,0,l),
(496,73,l),
(104,73,l),
(104,0,l)
);
}
);
width = 526;
},
{
anchors = (
{
name = bottom;
pos = (291,0);
},
{
name = center;
pos = (170,350);
},
{
name = top;
pos = (117,700);
},
{
name = topright;
pos = (256,700);
}
);
layerId = "090CB6A0-BE7C-4D17-A551-206C7456A8A3";
shapes = (
{
closed = 1;
nodes = (
(185,0,l),
(185,700,l),
(50,700,l),
(50,0,l)
);
},
{
closed = 1;
nodes = (
(514,0,l),
(514,128,l),
(119,128,l),
(119,0,l)
);
}
);
width = 534;
}
);
metricLeft = H;
unicode = 76;
},
{
color = 5;
glyphname = M;
kernLeft = M;
kernRight = H;
layers = (
{
layerId = "3114FB65-9464-41A5-B67E-A8F9F43C0EF1";
shapes = (
{
closed = 1;
nodes = (
(100,0,l),
(100,700,l),
(70,700,l),
(70,0,l)
);
},
{
closed = 1;
nodes = (
(718,679,l),
(718,700,l),
(696,700,l),
(392,23,l),
(391,0,l),
(413,0,l)
);
},
{
closed = 1;
nodes = (
(734,700,l),
(704,700,l),
(704,0,l),
(734,0,l)
);
},
{
closed = 1;
nodes = (
(413,0,l),
(413,23,l),
(109,700,l),
(86,700,l),
(86,679,l),
(392,0,l)
);
}
);
width = 804;
},
{
guides = (
{
pos = (718,568);
}
);
layerId = "14EEE41F-D714-4243-A717-73445EE7DABA";
shapes = (
{
closed = 1;
nodes = (
(140,0,l),
(140,700,l),
(65,700,l),
(65,0,l)
);
},
{
closed = 1;
nodes = (
(743,679,l),
(743,700,l),
(672,700,l),
(382,21,l),
(381,0,l),
(453,0,l)
);
},
{
closed = 1;
nodes = (
(769,700,l),
(694,700,l),
(694,0,l),
(769,0,l)
);
},
{
closed = 1;
nodes = (
(453,0,l),
(453,21,l),
(163,700,l),
(91,700,l),
(91,679,l),
(382,0,l)
);
}
);
width = 834;
},
{
layerId = "090CB6A0-BE7C-4D17-A551-206C7456A8A3";
shapes = (
{
closed = 1;
nodes = (
(185,0,l),
(185,700,l),
(50,700,l),
(50,0,l)
);
},
{
closed = 1;
nodes = (
(788,679,l),
(788,700,l),
(657,700,l),
(367,21,l),
(366,0,l),
(498,0,l)
);
},
{
closed = 1;
nodes = (
(814,700,l),
(679,700,l),
(679,0,l),
(814,0,l)
);
},
{
closed = 1;
nodes = (
(498,0,l),
(498,21,l),
(208,700,l),
(76,700,l),
(76,679,l),
(367,0,l)
);
}
);
width = 864;
},
{
associatedMasterId = "14EEE41F-D714-4243-A717-73445EE7DABA";
guides = (
{
pos = (728,568);
}
);
layerId = "0158E840-C3CD-4F1E-BCA9-17488F8E1975";
name = "15 Dec 23, 05:06";
shapes = (
{
closed = 1;
nodes = (
(140,0,l),
(140,700,l),
(65,700,l),
(65,0,l)
);
},
{
closed = 1;
nodes = (
(763,679,l),
(763,700,l),
(692,700,l),
(392,21,l),
(391,0,l),
(463,0,l)
);
},
{
closed = 1;
nodes = (
(789,700,l),
(714,700,l),
(714,0,l),
(789,0,l)
);
},
{
closed = 1;
nodes = (
(463,0,l),
(463,21,l),
(163,700,l),
(91,700,l),
(91,679,l),
(392,0,l)
);
}
);
width = 854;
}
);
metricLeft = H;
metricRight = "=|";
unicode = 77;
},
{
color = 5;
glyphname = N;
kernRight = H;
layers = (
{
anchors = (
{
name = bottom;
pos = (320,0);
},
{
name = top;
pos = (320,700);
}
);
background = {
shapes = (
{
ref = H;
}
);
};
layerId = "3114FB65-9464-41A5-B67E-A8F9F43C0EF1";
shapes = (
{
closed = 1;
nodes = (
(570,0,l),
(570,8,l),
(100,700,l),
(70,700,l),
(70,692,l),
(540,0,l)
);
},
{
closed = 1;
nodes = (
(100,0,l),
(100,700,l),
(70,700,l),
(70,0,l)
);
},
{
closed = 1;
nodes = (
(570,0,l),
(570,700,l),
(540,700,l),
(540,0,l)
);
}
);
width = 640;
},
{
anchors = (
{
name = bottom;
pos = (347,0);
},
{
name = top;
pos = (347,700);
}
);
background = {
shapes = (
{
pos = (5,0);
ref = H;
}
);
};
layerId = "14EEE41F-D714-4243-A717-73445EE7DABA";
shapes = (
{
closed = 1;
nodes = (
(599,0,l),
(599,21,l),
(140,700,l),
(65,700,l),
(65,679,l),
(524,0,l)
);
},
{
closed = 1;
nodes = (
(140,0,l),
(140,700,l),
(65,700,l),
(65,0,l)
);
},
{
closed = 1;
nodes = (
(599,0,l),
(599,700,l),
(524,700,l),
(524,0,l)
);
}
);
width = 664;
},
{
anchors = (
{
name = bottom;
pos = (347,0);
},
{
name = top;
pos = (347,700);
}
);
background = {
shapes = (
{
ref = H;
}
);
};
layerId = "090CB6A0-BE7C-4D17-A551-206C7456A8A3";
shapes = (
{
closed = 1;
nodes = (
(644,0,l),
(644,36,l),
(185,700,l),
(50,700,l),
(50,664,l),
(508,0,l)
);
},
{
closed = 1;
nodes = (
(185,0,l),
(185,700,l),
(50,700,l),
(50,0,l)
);
},
{
closed = 1;
nodes = (
(644,0,l),
(644,700,l),
(508,700,l),
(508,0,l)
);
}
);
width = 694;
}
);
metricLeft = H;
metricRight = "=|";
unicode = 78;
},
{
color = 5;
glyphname = Eng;
kernRight = H;
layers = (
{
layerId = "3114FB65-9464-41A5-B67E-A8F9F43C0EF1";
shapes = (
{
ref = N;
},
{
closed = 1;
nodes = (
(540,62,l),
(540,-56,ls),
(540,-142,o),
(503,-172,o),
(431,-172,cs),
(417,-172,l),
(413,-182,l),
(413,-200,l),
(431,-200,ls),
(515,-200,o),
(570,-162,o),
(570,-57,cs),
(570,62,l)
);
}
);
width = 640;
},
{
layerId = "14EEE41F-D714-4243-A717-73445EE7DABA";
shapes = (
{
ref = N;
},
{
closed = 1;
nodes = (
(524,83,l),
(524,-24,ls),
(524,-100,o),
(495,-127,o),
(421,-127,cs),
(400,-127,l),
(395,-138,l),
(395,-200,l),
(436,-200,ls),
(531,-200,o),
(599,-134,o),
(599,-30,cs),
(599,83,l)
);
}
);
width = 664;
},
{
layerId = "090CB6A0-BE7C-4D17-A551-206C7456A8A3";
shapes = (
{
ref = N;
},
{
closed = 1;
nodes = (
(508,122,l),
(508,-10,ls),
(508,-59,o),
(486,-81,o),
(438,-81,cs),
(406,-81,l),
(401,-92,l),
(401,-200,l),
(472,-200,ls),
(577,-200,o),
(644,-129,o),
(644,-16,cs),
(644,122,l)
);
}
);
width = 694;
}
);
metricLeft = N;
metricRight = N;
unicode = 330;
},
{
color = 5;
glyphname = O;
kernLeft = O;
kernRight = O;
layers = (
{
anchors = (
{
name = bottom;
pos = (382,0);
},
{
name = center;
pos = (382,350);
},
{
name = ogonek;
pos = (453,0);
},
{
name = top;
pos = (382,700);
},
{
name = topleft;
pos = (20,700);
},
{
name = topright;
pos = (744,700);
}
);
layerId = "3114FB65-9464-41A5-B67E-A8F9F43C0EF1";
shapes = (
{
closed = 1;
nodes = (
(563,-8,o),
(699,136,o),
(699,350,cs),
(699,564,o),
(563,708,o),
(382,708,cs),
(201,708,o),
(65,564,o),
(65,350,cs),
(65,136,o),
(201,-8,o),
(382,-8,cs)
);
},
{
closed = 1;
nodes = (
(220,20,o),
(95,150,o),
(95,350,cs),
(95,551,o),
(220,680,o),
(382,680,cs),
(544,680,o),
(669,551,o),
(669,350,cs),
(669,150,o),
(544,20,o),
(382,20,cs)
);
}
);
width = 764;
},
{
anchors = (
{
name = bottom;
pos = (380,0);
},
{
name = center;
pos = (380,350);
},
{
name = ogonek;
pos = (471,0);
},
{
name = top;
pos = (380,700);
},
{
name = topleft;
pos = (20,700);
},
{
name = topright;
pos = (740,700);
}
);
layerId = "14EEE41F-D714-4243-A717-73445EE7DABA";
shapes = (
{
closed = 1;
nodes = (
(571,-12,o),
(710,134,o),
(710,350,cs),
(710,566,o),
(571,712,o),
(380,712,cs),
(189,712,o),
(50,566,o),
(50,350,cs),
(50,134,o),
(189,-12,o),
(380,-12,cs)
);
},
{
closed = 1;
nodes = (
(236,61,o),
(127,175,o),
(127,350,cs),
(127,526,o),
(236,639,o),
(380,639,cs),
(524,639,o),
(633,526,o),
(633,350,cs),
(633,175,o),
(524,61,o),
(380,61,cs)
);
}
);
width = 760;
},
{
anchors = (
{
name = bottom;
pos = (370,0);
},
{
name = center;
pos = (370,350);
},
{
name = ogonek;
pos = (479,0);
},
{
name = top;
pos = (370,700);
},
{
name = topleft;
pos = (20,700);
},
{
name = topright;
pos = (720,700);
}
);
layerId = "090CB6A0-BE7C-4D17-A551-206C7456A8A3";
shapes = (
{
closed = 1;
nodes = (
(571,-16,o),
(710,130,o),
(710,350,cs),
(710,570,o),
(571,716,o),
(370,716,cs),
(169,716,o),
(30,570,o),
(30,350,cs),
(30,130,o),
(169,-16,o),
(370,-16,cs)
);
},
{
closed = 1;
nodes = (
(250,112,o),
(165,204,o),
(165,350,cs),
(165,497,o),
(250,588,o),
(370,588,cs),
(490,588,o),
(575,497,o),
(575,350,cs),
(575,204,o),
(490,112,o),
(370,112,cs)
);
}
);
width = 740;
}
);
unicode = 79;
},
{
color = 5;
glyphname = P;
kernRight = P;
layers = (
{
layerId = "3114FB65-9464-41A5-B67E-A8F9F43C0EF1";
shapes = (
{
closed = 1;
nodes = (
(86,672,l),
(295,672,ls),
(408,672,o),
(471,606,o),
(471,503,c),
(501,503,l),
(501,620,o),
(424,700,o),
(295,700,cs),
(86,700,l)
);
},
{
closed = 1;
nodes = (
(100,0,l),
(100,700,l),
(70,700,l),
(70,0,l)
);
},
{
closed = 1;
nodes = (
(295,306,ls),
(424,306,o),
(501,386,o),
(501,503,c),
(471,503,l),
(471,400,o),
(408,334,o),
(295,334,cs),
(86,334,l),
(86,306,l)
);
}
);
width = 526;
},
{
background = {
shapes = (
{
pos = (5,0);
ref = R;
}
);
};
layerId = "14EEE41F-D714-4243-A717-73445EE7DABA";
shapes = (
{
closed = 1;
nodes = (
(108,626,l),
(309,626,ls),
(393,626,o),
(444,576,o),
(444,493,c),
(525,493,l),
(525,619,o),
(440,700,o),
(309,700,cs),
(108,700,l)
);
},
{
closed = 1;
nodes = (
(140,0,l),
(140,700,l),
(65,700,l),
(65,0,l)
);
},
{
closed = 1;
nodes = (
(309,286,ls),
(440,286,o),
(525,367,o),
(525,493,c),
(444,493,l),
(444,410,o),
(393,360,o),
(309,360,cs),
(108,360,l),
(108,286,l)
);
}
);
width = 545;
},
{
layerId = "090CB6A0-BE7C-4D17-A551-206C7456A8A3";
shapes = (
{
closed = 1;
nodes = (
(116,581,l),
(324,581,ls),
(393,581,o),
(432,544,o),
(432,483,c),
(562,483,l),
(562,615,o),
(477,700,o),
(337,700,cs),
(116,700,l)
);
},
{
closed = 1;
nodes = (
(180,0,l),
(180,700,l),
(50,700,l),
(50,0,l)
);
},
{
closed = 1;
nodes = (
(337,266,ls),
(477,266,o),
(562,351,o),
(562,483,c),
(432,483,l),
(432,422,o),
(393,385,o),
(324,385,cs),
(116,385,l),
(116,266,l)
);
}
);
width = 567;
}
);
metricLeft = H;
unicode = 80;
},
{
color = 5;
glyphname = Thorn;
kernRight = O;
layers = (
{
layerId = "3114FB65-9464-41A5-B67E-A8F9F43C0EF1";
shapes = (
{
closed = 1;
nodes = (
(86,519,l),
(295,519,ls),
(408,519,o),
(471,453,o),
(471,350,c),
(501,350,l),
(501,467,o),
(424,547,o),
(295,547,cs),
(86,547,l)
);
},
{
closed = 1;
nodes = (
(100,0,l),
(100,700,l),
(70,700,l),
(70,0,l)
);
},
{
closed = 1;
nodes = (
(295,153,ls),
(424,153,o),
(501,233,o),
(501,350,c),
(471,350,l),
(471,247,o),
(408,181,o),
(295,181,cs),
(86,181,l),
(86,153,l)
);
}
);
width = 526;
},
{
layerId = "14EEE41F-D714-4243-A717-73445EE7DABA";
shapes = (
{
closed = 1;
nodes = (
(108,483,l),
(309,483,ls),
(393,483,o),
(444,433,o),
(444,350,c),
(525,350,l),
(525,476,o),
(440,557,o),
(309,557,cs),
(108,557,l)
);
},
{
closed = 1;
nodes = (
(140,0,l),
(140,700,l),
(65,700,l),
(65,0,l)
);
},
{
closed = 1;
nodes = (
(309,143,ls),
(440,143,o),
(525,224,o),
(525,350,c),
(444,350,l),
(444,267,o),
(393,217,o),
(309,217,cs),
(108,217,l),
(108,143,l)
);
}
);
width = 545;
},
{
layerId = "090CB6A0-BE7C-4D17-A551-206C7456A8A3";
shapes = (
{
closed = 1;
nodes = (
(116,448,l),
(324,448,ls),
(393,448,o),
(432,411,o),
(432,350,c),
(562,350,l),
(562,482,o),
(477,567,o),
(337,567,cs),
(116,567,l)
);
},
{
closed = 1;
nodes = (
(180,0,l),
(180,700,l),
(50,700,l),
(50,0,l)
);
},
{
closed = 1;
nodes = (
(337,133,ls),
(477,133,o),
(562,218,o),
(562,350,c),
(432,350,l),
(432,289,o),
(393,252,o),
(324,252,cs),
(116,252,l),
(116,133,l)
);
}
);
width = 567;
}
);
metricLeft = B;
metricRight = P;
unicode = 222;
},
{
color = 5;
glyphname = Q;
kernLeft = O;
kernRight = O;
layers = (
{
layerId = "3114FB65-9464-41A5-B67E-A8F9F43C0EF1";
shapes = (
{
closed = 1;
nodes = (
(693,0,l),
(693,8,l),
(443,293,l),
(421,272,l),
(660,0,l)
);
},
{
ref = O;
}
);
width = 764;
},
{
layerId = "14EEE41F-D714-4243-A717-73445EE7DABA";
shapes = (
{
closed = 1;
nodes = (
(720,0,l),
(720,8,l),
(444,323,l),
(390,272,l),
(629,0,l)
);
},
{
ref = O;
}
);
width = 760;
},
{
layerId = "090CB6A0-BE7C-4D17-A551-206C7456A8A3";
shapes = (
{
closed = 1;
nodes = (
(751,0,l),
(751,8,l),
(446,350,l),
(351,261,l),
(584,0,l)
);
},
{
ref = O;
}
);
width = 740;
},
{
associatedMasterId = "14EEE41F-D714-4243-A717-73445EE7DABA";
layerId = "C81B9ED9-2AA9-4622-890C-062D601D1A2A";
name = "18 Oct 23, 02:58";
shapes = (
{
ref = O;
},
{
closed = 1;
nodes = (
(635,-56,l),
(687,-11,l),
(416,312,l),
(364,267,l)
);
}
);
width = 760;
},
{
associatedMasterId = "14EEE41F-D714-4243-A717-73445EE7DABA";
layerId = "44EAACBF-E8F4-43B8-9088-0D583C08F639";
name = "18 Oct 23, 12:40";
shapes = (
{
ref = O;
},
{
closed = 1;
nodes = (
(392,272,l),
(635,0,l),
(713,0,l),
(720,16,l),
(446,323,l)
);
}
);
width = 760;
}
);
unicode = 81;
},
{
color = 5;
glyphname = R;
kernRight = R;
layers = (
{
anchors = (
{
name = bottom;
pos = (283,0);
},
{
name = top;
pos = (283,700);
}
);
background = {
shapes = (
{
ref = P;
}
);
};
layerId = "3114FB65-9464-41A5-B67E-A8F9F43C0EF1";
shapes = (
{
closed = 1;
nodes = (
(511,503,l),
(511,620,o),
(434,700,o),
(305,700,cs),
(86,700,l),
(86,672,l),
(305,672,ls),
(418,672,o),
(481,606,o),
(481,503,c)
);
},
{
closed = 1;
nodes = (
(305,306,ls),
(434,306,o),
(511,386,o),
(511,503,c),
(481,503,l),
(481,400,o),
(418,334,o),
(305,334,cs),
(86,334,l),
(86,306,l)
);
},
{
closed = 1;
nodes = (
(100,0,l),
(100,700,l),
(70,700,l),
(70,0,l)
);
},
{
closed = 1;
nodes = (
(511,0,l),
(511,8,l),
(314,326,l),
(286,314,l),
(481,0,l)
);
}
);
width = 561;
},
{
anchors = (
{
name = bottom;
pos = (302,0);
},
{
name = top;
pos = (265,700);
}
);
background = {
shapes = (
{
ref = P;
}
);
};
layerId = "14EEE41F-D714-4243-A717-73445EE7DABA";
shapes = (
{
closed = 1;
nodes = (
(535,493,l),
(535,619,o),
(450,700,o),
(319,700,cs),
(108,700,l),
(108,626,l),
(319,626,ls),
(403,626,o),
(454,576,o),
(454,493,c)
);
},
{
closed = 1;
nodes = (
(319,286,ls),
(450,286,o),
(535,367,o),
(535,493,c),
(454,493,l),
(454,410,o),
(403,360,o),
(319,360,cs),
(108,360,l),
(108,286,l)
);
},
{
closed = 1;
nodes = (
(140,0,l),
(140,700,l),
(65,700,l),
(65,0,l)
);
},
{
closed = 1;
nodes = (
(540,0,l),
(540,8,l),
(353,336,l),
(285,304,l),
(458,0,l)
);
}
);
width = 585;
},
{
anchors = (
{
name = bottom;
pos = (299,0);
},
{
name = top;
pos = (299,700);
}
);
background = {
shapes = (
{
ref = P;
}
);
};
layerId = "090CB6A0-BE7C-4D17-A551-206C7456A8A3";
shapes = (
{
closed = 1;
nodes = (
(572,483,l),
(572,615,o),
(487,700,o),
(347,700,cs),
(116,700,l),
(116,581,l),
(334,581,ls),
(403,581,o),
(442,544,o),
(442,483,c)
);
},
{
closed = 1;
nodes = (
(347,266,ls),
(487,266,o),
(572,351,o),
(572,483,c),
(442,483,l),
(442,422,o),
(403,385,o),
(334,385,cs),
(116,385,l),
(116,266,l)
);
},
{
closed = 1;
nodes = (
(180,0,l),
(180,700,l),
(50,700,l),
(50,0,l)
);
},
{
closed = 1;
nodes = (
(577,0,l),
(577,8,l),
(409,336,l),
(280,304,l),
(434,0,l)
);
}
);
width = 597;
},
{
associatedMasterId = "14EEE41F-D714-4243-A717-73445EE7DABA";
layerId = "A9883E72-D335-457B-9DAF-935B74B140DA";
name = "18 Oct 23, 12:41";
shapes = (
{
closed = 1;
nodes = (
(103,626,l),
(304,626,ls),
(394,626,o),
(449,576,o),
(449,493,c),
(530,493,l),
(530,619,o),
(441,700,o),
(304,700,cs),
(103,700,l)
);
},
{
closed = 1;
nodes = (
(135,0,l),
(135,700,l),
(60,700,l),
(60,0,l)
);
},
{
closed = 1;
nodes = (
(275,304,l),
(459,0,l),
(530,0,l),
(537,16,l),
(342,336,l)
);
},
{
closed = 1;
nodes = (
(304,286,ls),
(441,286,o),
(530,367,o),
(530,493,c),
(449,493,l),
(449,410,o),
(394,360,o),
(304,360,cs),
(103,360,l),
(103,286,l)
);
}
);
width = 570;
},
{
associatedMasterId = "14EEE41F-D714-4243-A717-73445EE7DABA";
layerId = "F9C506AF-DCCB-40E1-B355-3887FC752619";
name = "15 Dec 23, 05:02";
shapes = (
{
closed = 1;
nodes = (
(108,626,l),
(319,626,ls),
(403,626,o),
(454,576,o),
(454,493,c),
(535,493,l),
(535,619,o),
(450,700,o),
(319,700,cs),
(108,700,l)
);
},
{
closed = 1;
nodes = (
(140,0,l),
(140,700,l),
(65,700,l),
(65,0,l)
);
},
{
closed = 1;
nodes = (
(319,286,ls),
(450,286,o),
(535,367,o),
(535,493,c),
(454,493,l),
(454,410,o),
(403,360,o),
(319,360,cs),
(108,360,l),
(108,286,l)
);
},
{
closed = 1;
nodes = (
(545,9,l),
(347,336,l),
(280,304,l),
(464,0,l),
(545,0,l)
);
}
);
width = 585;
}
);
metricLeft = H;
unicode = 82;
},
{
color = 5;
glyphname = S;
kernLeft = S;
layers = (
{
anchors = (
{
name = bottom;
pos = (297,0);
},
{
name = top;
pos = (297,700);
}
);
background = {
shapes = (
{
closed = 1;
nodes = (
(34,197,l),
(59,74,o),
(168,-8,o),
(308,-8,cs),
(459,-8,o),
(556,73,o),
(556,195,cs),
(556,287,o),
(496,353,o),
(396,379,cs),
(251,416,ls),
(177,435,o),
(136,472,o),
(136,527,cs),
(136,593,o),
(193,636,o),
(286,636,cs),
(375,636,o),
(441,583,o),
(458,501,c),
(469,499,l),
(538,514,l),
(516,631,o),
(418,708,o),
(286,708,cs),
(150,708,o),
(59,634,o),
(59,528,cs),
(59,442,o),
(117,372,o),
(227,343,cs),
(372,306,ls),
(436,289,o),
(479,257,o),
(479,191,cs),
(479,117,o),
(410,64,o),
(307,64,cs),
(212,64,o),
(135,129,o),
(113,212,c),
(102,214,l)
);
}
);
};
layerId = "3114FB65-9464-41A5-B67E-A8F9F43C0EF1";
shapes = (
{
closed = 1;
nodes = (
(450,-8,o),
(549,70,o),
(549,186,cs),
(549,270,o),
(491,329,o),
(393,355,cs),
(256,392,ls),
(158,418,o),
(109,466,o),
(109,535,cs),
(109,623,o),
(184,680,o),
(293,680,cs),
(399,680,o),
(479,616,o),
(499,512,c),
(509,510,l),
(528,514,l),
(508,632,o),
(417,708,o),
(293,708,cs),
(169,708,o),
(79,637,o),
(79,536,cs),
(79,456,o),
(133,395,o),
(235,367,cs),
(372,330,ls),
(462,306,o),
(519,267,o),
(519,182,cs),
(519,84,o),
(430,20,o),
(306,20,cs),
(194,20,o),
(98,86,o),
(75,203,c),
(65,205,l),
(45,200,l),
(70,77,o),
(163,-8,o),
(307,-8,cs)
);
}
);
width = 594;
},
{
anchors = (
{
name = bottom;
pos = (295,0);
},
{
name = top;
pos = (304,700);
}
);
layerId = "14EEE41F-D714-4243-A717-73445EE7DABA";
shapes = (
{
closed = 1;
nodes = (
(455,-12,o),
(553,69,o),
(553,191,cs),
(553,284,o),
(493,349,o),
(393,377,cs),
(256,415,ls),
(185,435,o),
(147,470,o),
(147,525,cs),
(147,594,o),
(204,639,o),
(292,639,cs),
(377,639,o),
(444,586,o),
(461,503,c),
(472,501,l),
(542,516,l),
(520,634,o),
(421,712,o),
(292,712,cs),
(159,712,o),
(67,635,o),
(67,526,cs),
(67,440,o),
(124,371,o),
(232,341,cs),
(369,303,ls),
(433,285,o),
(473,254,o),
(473,187,cs),
(473,113,o),
(404,61,o),
(306,61,cs),
(215,61,o),
(137,126,o),
(115,210,c),
(104,212,l),
(35,195,l),
(60,71,o),
(170,-12,o),
(307,-12,cs)
);
}
);
width = 588;
},
{
anchors = (
{
name = bottom;
pos = (306,0);
},
{
name = top;
pos = (306,700);
}
);
background = {
shapes = (
{
closed = 1;
nodes = (
(38,195,l),
(63,71,o),
(173,-12,o),
(315,-12,cs),
(468,-12,o),
(566,70,o),
(566,193,cs),
(566,286,o),
(505,353,o),
(404,379,cs),
(257,417,ls),
(183,436,o),
(141,473,o),
(141,529,cs),
(141,596,o),
(199,639,o),
(293,639,cs),
(383,639,o),
(450,586,o),
(467,503,c),
(478,501,l),
(548,516,l),
(526,634,o),
(427,712,o),
(293,712,cs),
(155,712,o),
(63,637,o),
(63,530,cs),
(63,443,o),
(122,372,o),
(233,343,cs),
(380,305,ls),
(445,288,o),
(488,256,o),
(488,189,cs),
(488,114,o),
(418,61,o),
(314,61,cs),
(218,61,o),
(140,126,o),
(118,210,c),
(107,212,l)
);
}
);
};
layerId = "090CB6A0-BE7C-4D17-A551-206C7456A8A3";
shapes = (
{
closed = 1;
nodes = (
(478,-16,o),
(586,69,o),
(586,200,cs),
(586,299,o),
(522,366,o),
(394,399,cs),
(274,430,ls),
(220,444,o),
(191,472,o),
(191,512,cs),
(191,554,o),
(231,588,o),
(293,588,cs),
(367,588,o),
(419,554,o),
(435,494,c),
(446,492,l),
(565,517,l),
(540,640,o),
(436,716,o),
(294,716,cs),
(145,716,o),
(43,632,o),
(43,511,cs),
(43,413,o),
(110,337,o),
(239,304,cs),
(359,273,ls),
(412,259,o),
(438,234,o),
(438,196,cs),
(438,146,o),
(388,112,o),
(320,112,cs),
(249,112,o),
(191,155,o),
(164,224,c),
(153,226,l),
(25,194,l),
(51,67,o),
(164,-16,o),
(316,-16,cs)
);
}
);
width = 611;
},
{
associatedMasterId = "14EEE41F-D714-4243-A717-73445EE7DABA";
layerId = "9E3768B2-563E-487C-88CD-4C35E22057DD";
name = "20 Oct 23, 02:08";
shapes = (
{
closed = 1;
nodes = (
(465,-12,o),
(563,70,o),
(563,193,cs),
(563,285,o),
(502,351,o),
(401,377,cs),
(254,415,ls),
(180,434,o),
(138,471,o),
(138,527,cs),
(138,595,o),
(196,639,o),
(290,639,cs),
(380,639,o),
(447,586,o),
(464,503,c),
(475,501,l),
(545,516,l),
(523,634,o),
(424,712,o),
(290,712,cs),
(152,712,o),
(60,636,o),
(60,528,cs),
(60,441,o),
(119,370,o),
(230,341,cs),
(377,303,ls),
(442,286,o),
(485,255,o),
(485,189,cs),
(485,114,o),
(415,61,o),
(311,61,cs),
(215,61,o),
(137,126,o),
(115,210,c),
(104,212,l),
(35,195,l),
(60,71,o),
(170,-12,o),
(312,-12,cs)
);
}
);
width = 598;
},
{
associatedMasterId = "14EEE41F-D714-4243-A717-73445EE7DABA";
layerId = "2482C75B-6B12-48AB-84A7-D05C021C9CB0";
name = "20 Oct 23, 14:08";
shapes = (
{
closed = 1;
nodes = (
(455,-12,o),
(553,70,o),
(553,193,cs),
(553,285,o),
(492,351,o),
(391,377,cs),
(254,415,ls),
(180,434,o),
(138,471,o),
(138,527,cs),
(138,595,o),
(196,639,o),
(285,639,cs),
(370,639,o),
(437,586,o),
(454,503,c),
(465,501,l),
(535,516,l),
(513,634,o),
(414,712,o),
(285,712,cs),
(152,712,o),
(60,636,o),
(60,528,cs),
(60,441,o),
(119,370,o),
(230,341,cs),
(367,303,ls),
(432,286,o),
(475,255,o),
(475,189,cs),
(475,114,o),
(405,61,o),
(306,61,cs),
(215,61,o),
(137,126,o),
(115,210,c),
(104,212,l),
(35,195,l),
(60,71,o),
(170,-12,o),
(307,-12,cs)
);
}
);
width = 588;
}
);
unicode = 83;
},
{
color = 5;
glyphname = Germandbls;
kernLeft = Germandbls;
layers = (
{
background = {
shapes = (
{
pos = (117,0);
ref = three;
}
);
};
layerId = "3114FB65-9464-41A5-B67E-A8F9F43C0EF1";
shapes = (
{
closed = 1;
nodes = (
(492,-8,o),
(568,75,o),
(568,191,cs),
(568,311,o),
(483,390,o),
(353,390,cs),
(315,390,l),
(322,377,l),
(539,677,l),
(539,700,l),
(227,700,ls),
(126,700,o),
(70,644,o),
(70,543,cs),
(70,0,l),
(100,0,l),
(100,549,ls),
(100,627,o),
(145,672,o),
(223,672,cs),
(517,672,l),
(513,690,l),
(293,387,l),
(293,362,l),
(355,362,ls),
(466,362,o),
(538,294,o),
(538,190,cs),
(538,89,o),
(476,20,o),
(385,20,cs),
(296,20,o),
(226,97,o),
(223,197,c),
(212,199,l),
(194,194,l),
(197,80,o),
(280,-8,o),
(385,-8,cs)
);
}
);
width = 613;
},
{
background = {
shapes = (
{
pos = (159,0);
ref = three;
}
);
};
layerId = "14EEE41F-D714-4243-A717-73445EE7DABA";
shapes = (
{
closed = 1;
nodes = (
(536,-12,o),
(625,75,o),
(625,199,cs),
(625,327,o),
(543,421,o),
(386,421,cs),
(328,421,l),
(349,385,l),
(579,631,l),
(579,700,l),
(226,700,ls),
(134,700,o),
(65,631,o),
(65,539,cs),
(65,0,l),
(140,0,l),
(140,538,ls),
(140,589,o),
(178,627,o),
(229,627,cs),
(551,627,l),
(516,665,l),
(286,417,l),
(286,352,l),
(389,352,ls),
(478,352,o),
(547,301,o),
(547,206,cs),
(547,116,o),
(486,61,o),
(416,61,cs),
(338,61,o),
(275,122,o),
(275,226,c),
(264,228,l),
(199,213,l),
(199,77,o),
(298,-12,o),
(419,-12,cs)
);
}
);
width = 660;
},
{
background = {
shapes = (
{
pos = (202,0);
ref = three;
}
);
};
layerId = "090CB6A0-BE7C-4D17-A551-206C7456A8A3";
shapes = (
{
closed = 1;
nodes = (
(587,-16,o),
(690,78,o),
(690,202,cs),
(690,336,o),
(581,432,o),
(436,432,cs),
(378,432,l),
(426,379,l),
(614,579,l),
(614,700,l),
(280,700,ls),
(130,700,o),
(50,620,o),
(50,470,cs),
(50,0,l),
(185,0,l),
(185,455,ls),
(185,533,o),
(227,575,o),
(305,575,cs),
(520,575,l),
(533,665,l),
(309,428,l),
(309,316,l),
(418,316,ls),
(507,316,o),
(555,281,o),
(555,210,cs),
(555,150,o),
(515,112,o),
(466,112,cs),
(409,112,o),
(370,157,o),
(370,230,c),
(359,232,l),
(235,207,l),
(245,61,o),
(327,-16,o),
(459,-16,cs)
);
}
);
width = 715;
}
);
metricLeft = H;
metricRight = S;
unicode = 7838;
},
{
color = 5;
glyphname = T;
kernLeft = T;
kernRight = T;
layers = (
{
anchors = (
{
name = bottom;
pos = (260,0);
},
{
name = center;
pos = (260,350);
},
{
name = top;
pos = (260,700);
}
);
layerId = "3114FB65-9464-41A5-B67E-A8F9F43C0EF1";
shapes = (
{
closed = 1;
nodes = (
(274,0,l),
(274,700,l),
(244,700,l),
(244,0,l)
);
},
{
closed = 1;
nodes = (
(494,672,l),
(494,700,l),
(25,700,l),
(25,672,l)
);
}
);
width = 519;
},
{
anchors = (
{
name = bottom;
pos = (277,0);
},
{
name = center;
pos = (277,350);
},
{
name = top;
pos = (277,700);
}
);
layerId = "14EEE41F-D714-4243-A717-73445EE7DABA";
shapes = (
{
closed = 1;
nodes = (
(315,0,l),
(315,700,l),
(240,700,l),
(240,0,l)
);
},
{
closed = 1;
nodes = (
(534,627,l),
(534,700,l),
(20,700,l),
(20,627,l)
);
}
);
width = 554;
},
{
anchors = (
{
name = bottom;
pos = (287,0);
},
{
name = center;
pos = (287,350);
},
{
name = top;
pos = (287,700);
}
);
background = {
shapes = (
{
pos = (-55,0);
ref = H;
}
);
};
layerId = "090CB6A0-BE7C-4D17-A551-206C7456A8A3";
shapes = (
{
closed = 1;
nodes = (
(354,0,l),
(354,700,l),
(219,700,l),
(219,0,l)
);
},
{
closed = 1;
nodes = (
(558,572,l),
(558,700,l),
(15,700,l),
(15,572,l)
);
}
);
width = 573;
}
);
unicode = 84;
},
{
color = 5;
glyphname = U;
kernLeft = U;
kernRight = U;
layers = (
{
anchors = (
{
name = bottom;
pos = (293,0);
},
{
name = ogonek;
pos = (362,0);
},
{
name = top;
pos = (293,700);
},
{
name = topright;
pos = (566,700);
}
);
layerId = "3114FB65-9464-41A5-B67E-A8F9F43C0EF1";
shapes = (
{
closed = 1;
nodes = (
(454,-8,o),
(541,94,o),
(541,262,cs),
(541,700,l),
(511,700,l),
(511,260,ls),
(511,108,o),
(436,20,o),
(293,20,cs),
(150,20,o),
(75,108,o),
(75,260,cs),
(75,700,l),
(45,700,l),
(45,262,ls),
(45,94,o),
(132,-8,o),
(293,-8,cs)
);
}
);
width = 586;
},
{
anchors = (
{
name = bottom;
pos = (304,0);
},
{
name = ogonek;
pos = (392,0);
},
{
name = top;
pos = (304,700);
},
{
name = topright;
pos = (588,700);
}
);
layerId = "14EEE41F-D714-4243-A717-73445EE7DABA";
shapes = (
{
closed = 1;
nodes = (
(462,-12,o),
(558,87,o),
(558,258,cs),
(558,700,l),
(483,700,l),
(483,256,ls),
(483,131,o),
(420,61,o),
(304,61,cs),
(188,61,o),
(125,131,o),
(125,256,cs),
(125,700,l),
(50,700,l),
(50,258,ls),
(50,87,o),
(146,-12,o),
(304,-12,cs)
);
}
);
width = 608;
},
{
anchors = (
{
name = bottom;
pos = (304,0);
},
{
name = ogonek;
pos = (409,0);
},
{
name = top;
pos = (304,700);
},
{
name = topright;
pos = (588,700);
}
);
layerId = "090CB6A0-BE7C-4D17-A551-206C7456A8A3";
shapes = (
{
closed = 1;
nodes = (
(472,-16,o),
(578,88,o),
(578,254,cs),
(578,700,l),
(443,700,l),
(443,252,ls),
(443,162,o),
(394,112,o),
(304,112,cs),
(214,112,o),
(165,162,o),
(165,252,cs),
(165,700,l),
(30,700,l),
(30,254,ls),
(30,88,o),
(136,-16,o),
(304,-16,cs)
);
}
);
width = 608;
}
);
metricRight = "=|";
unicode = 85;
},
{
color = 5;
glyphname = V;
kernLeft = V;
kernRight = V;
layers = (
{
anchors = (
{
name = bottom;
pos = (316,0);
},
{
name = top;
pos = (316,700);
}
);
layerId = "3114FB65-9464-41A5-B67E-A8F9F43C0EF1";
shapes = (
{
closed = 1;
nodes = (
(333,0,l),
(601,692,l),
(601,700,l),
(573,700,l),
(308,14,l),
(298,0,l)
);
},
{
closed = 1;
nodes = (
(333,0,l),
(324,14,l),
(59,700,l),
(30,700,l),
(30,692,l),
(298,0,l)
);
}
);
width = 631;
},
{
anchors = (
{
name = bottom;
pos = (339,0);
},
{
name = top;
pos = (339,700);
}
);
layerId = "14EEE41F-D714-4243-A717-73445EE7DABA";
shapes = (
{
closed = 1;
nodes = (
(371,0,l),
(642,692,l),
(642,700,l),
(561,700,l),
(303,21,l),
(296,0,l)
);
},
{
closed = 1;
nodes = (
(371,0,l),
(364,21,l),
(106,700,l),
(25,700,l),
(25,692,l),
(296,0,l)
);
}
);
width = 667;
},
{
anchors = (
{
name = bottom;
pos = (344,0);
},
{
name = top;
pos = (344,700);
}
);
layerId = "090CB6A0-BE7C-4D17-A551-206C7456A8A3";
shapes = (
{
closed = 1;
nodes = (
(411,0,l),
(682,692,l),
(682,700,l),
(542,700,l),
(284,21,l),
(276,0,l)
);
},
{
closed = 1;
nodes = (
(411,0,l),
(405,21,l),
(147,700,l),
(5,700,l),
(5,692,l),
(276,0,l)
);
}
);
width = 687;
},
{
associatedMasterId = "3114FB65-9464-41A5-B67E-A8F9F43C0EF1";
layerId = "B4DD3696-BBCE-4C9B-8891-37F62B513C44";
name = "28 Jan 24, 20:57";
shapes = (
{
closed = 1;
nodes = (
(628,700,l),
(599,700,l),
(341,21,l),
(329,0,l),
(364,0,l),
(628,692,l)
);
},
{
closed = 1;
nodes = (
(329,0,l),
(364,0,l),
(352,21,l),
(94,700,l),
(65,700,l),
(65,692,l)
);
}
);
width = 693;
}
);
metricRight = "=|";
unicode = 86;
},
{
color = 5;
glyphname = W;
kernLeft = V;
kernRight = V;
layers = (
{
anchors = (
{
name = bottom;
pos = (467,0);
},
{
name = top;
pos = (467,700);
}
);
background = {
shapes = (
{
pos = (-60,0);
ref = V;
}
);
};
layerId = "3114FB65-9464-41A5-B67E-A8F9F43C0EF1";
shapes = (
{
closed = 1;
nodes = (
(696,0,l),
(904,692,l),
(904,700,l),
(875,700,l),
(670,14,l),
(661,0,l)
);
},
{
closed = 1;
nodes = (
(696,0,l),
(686,14,l),
(481,700,l),
(453,700,l),
(661,0,l)
);
},
{
closed = 1;
nodes = (
(273,0,l),
(264,14,l),
(59,700,l),
(30,700,l),
(30,692,l),
(238,0,l)
);
},
{
closed = 1;
nodes = (
(273,0,l),
(481,700,l),
(453,700,l),
(248,14,l),
(238,0,l)
);
}
);
width = 934;
},
{
anchors = (
{
name = bottom;
pos = (483,0);
},
{
name = top;
pos = (483,700);
}
);
background = {
shapes = (
{
pos = (-70,0);
ref = V;
}
);
};
layerId = "14EEE41F-D714-4243-A717-73445EE7DABA";
shapes = (
{
closed = 1;
nodes = (
(739,0,l),
(940,692,l),
(940,700,l),
(861,700,l),
(672,21,l),
(668,0,l)
);
},
{
closed = 1;
nodes = (
(739,0,l),
(730,21,l),
(521,700,l),
(444,700,l),
(668,0,l)
);
},
{
closed = 1;
nodes = (
(297,0,l),
(293,21,l),
(104,700,l),
(25,700,l),
(25,692,l),
(226,0,l)
);
},
{
closed = 1;
nodes = (
(297,0,l),
(521,700,l),
(444,700,l),
(235,21,l),
(226,0,l)
);
}
);
width = 965;
},
{
anchors = (
{
name = bottom;
pos = (493,0);
},
{
name = top;
pos = (493,700);
}
);
background = {
shapes = (
{
pos = (-60,0);
ref = V;
}
);
};
layerId = "090CB6A0-BE7C-4D17-A551-206C7456A8A3";
shapes = (
{
closed = 1;
nodes = (
(770,0,l),
(981,692,l),
(981,700,l),
(844,700,l),
(641,21,l),
(635,0,l)
);
},
{
closed = 1;
nodes = (
(770,0,l),
(762,21,l),
(562,700,l),
(424,700,l),
(635,0,l)
);
},
{
closed = 1;
nodes = (
(351,0,l),
(345,21,l),
(142,700,l),
(5,700,l),
(5,692,l),
(216,0,l)
);
},
{
closed = 1;
nodes = (
(351,0,l),
(562,700,l),
(424,700,l),
(224,21,l),
(216,0,l)
);
}
);
width = 986;
}
);
metricLeft = V;
metricRight = V;
unicode = 87;
},
{
color = 5;
glyphname = X;
kernLeft = X;
kernRight = X;
layers = (
{
layerId = "3114FB65-9464-41A5-B67E-A8F9F43C0EF1";
shapes = (
{
closed = 1;
nodes = (
(40,692,l),
(487,0,l),
(517,0,l),
(517,8,l),
(70,700,l),
(40,700,l)
);
},
{
closed = 1;
nodes = (
(279,336,l),
(507,692,l),
(507,700,l),
(478,700,l),
(263,363,l)
);
},
{
closed = 1;
nodes = (
(259,362,l),
(30,8,l),
(30,0,l),
(59,0,l),
(275,335,l)
);
}
);
width = 547;
},
{
layerId = "090CB6A0-BE7C-4D17-A551-206C7456A8A3";
shapes = (
{
closed = 1;
nodes = (
(17,692,l),
(446,0,l),
(598,0,l),
(598,8,l),
(169,700,l),
(17,700,l)
);
},
{
closed = 1;
nodes = (
(344,288,l),
(583,692,l),
(583,700,l),
(435,700,l),
(263,403,l)
);
},
{
closed = 1;
nodes = (
(251,409,l),
(2,8,l),
(2,0,l),
(151,0,l),
(333,294,l)
);
}
);
width = 600;
},
{
associatedMasterId = "14EEE41F-D714-4243-A717-73445EE7DABA";
layerId = "8664D7E8-CFE6-426C-864F-9CDC476931E2";
name = "20 Oct 23, 00:33";
shapes = (
{
closed = 1;
nodes = (
(25,691,l),
(460,0,l),
(540,0,l),
(540,9,l),
(106,700,l),
(25,700,l)
);
},
{
closed = 1;
nodes = (
(459,700,l),
(25,9,l),
(25,0,l),
(105,0,l),
(540,691,l),
(540,700,l)
);
}
);
width = 565;
},
{
guides = (
{
angle = 238.2033;
pos = (120,195);
},
{
angle = 58.1664;
pos = (306,346);
}
);
layerId = "14EEE41F-D714-4243-A717-73445EE7DABA";
name = Regular;
shapes = (
{
closed = 1;
nodes = (
(15,692,l),
(444,0,l),
(530,0,l),
(530,8,l),
(101,700,l),
(15,700,l)
);
},
{
closed = 1;
nodes = (
(289,311,l),
(520,692,l),
(520,700,l),
(437,700,l),
(248,384,l)
);
},
{
closed = 1;
nodes = (
(236,382,l),
(5,8,l),
(5,0,l),
(89,0,l),
(277,309,l)
);
}
);
width = 535;
},
{
associatedMasterId = "14EEE41F-D714-4243-A717-73445EE7DABA";
guides = (
{
angle = 238.2033;
pos = (140,195);
},
{
angle = 58.1664;
pos = (326,346);
}
);
layerId = "2C060345-8E5D-4372-A077-E9976E5795D5";
name = "20 Oct 23, 01:02";
shapes = (
{
closed = 1;
nodes = (
(25,691,l),
(454,0,l),
(540,0,l),
(540,9,l),
(111,700,l),
(25,700,l)
);
},
{
closed = 1;
nodes = (
(454,700,l),
(25,9,l),
(25,0,l),
(111,0,l),
(540,691,l),
(540,700,l)
);
}
);
width = 565;
}
);
unicode = 88;
},
{
color = 5;
glyphname = Y;
kernLeft = Y;
kernRight = Y;
layers = (
{
anchors = (
{
name = bottom;
pos = (282,0);
},
{
name = top;
pos = (282,700);
},
{
name = topleft;
pos = (20,700);
}
);
layerId = "3114FB65-9464-41A5-B67E-A8F9F43C0EF1";
shapes = (
{
closed = 1;
nodes = (
(296,0,l),
(296,280,l),
(528,692,l),
(528,700,l),
(499,700,l),
(276,299,l),
(289,299,l),
(65,700,l),
(35,700,l),
(35,692,l),
(266,280,l),
(266,0,l)
);
}
);
width = 563;
},
{
anchors = (
{
name = bottom;
pos = (282,0);
},
{
name = top;
pos = (282,700);
},
{
name = topleft;
pos = (20,700);
}
);
layerId = "14EEE41F-D714-4243-A717-73445EE7DABA";
shapes = (
{
closed = 1;
nodes = (
(319,0,l),
(319,273,l),
(548,692,l),
(548,700,l),
(466,700,l),
(263,313,l),
(303,313,l),
(99,700,l),
(15,700,l),
(15,692,l),
(244,273,l),
(244,0,l)
);
}
);
width = 563;
},
{
anchors = (
{
name = bottom;
pos = (282,0);
},
{
name = top;
pos = (282,700);
},
{
name = topleft;
pos = (20,700);
}
);
layerId = "090CB6A0-BE7C-4D17-A551-206C7456A8A3";
shapes = (
{
closed = 1;
nodes = (
(349,0,l),
(349,273,l),
(578,692,l),
(578,700,l),
(433,700,l),
(250,349,l),
(316,349,l),
(132,700,l),
(-15,700,l),
(-15,692,l),
(214,273,l),
(214,0,l)
);
}
);
width = 563;
}
);
unicode = 89;
},
{
color = 5;
glyphname = Z;
kernLeft = Z;
kernRight = Z;
layers = (
{
anchors = (
{
name = bottom;
pos = (276,0);
},
{
name = center;
pos = (276,350);
},
{
name = top;
pos = (276,700);
}
);
layerId = "3114FB65-9464-41A5-B67E-A8F9F43C0EF1";
shapes = (
{
closed = 1;
nodes = (
(512,0,l),
(512,28,l),
(59,28,l),
(68,15,l),
(507,675,l),
(507,700,l),
(45,700,l),
(45,672,l),
(494,672,l),
(481,688,l),
(40,25,l),
(40,0,l)
);
}
);
width = 552;
},
{
anchors = (
{
name = bottom;
pos = (281,0);
},
{
name = center;
pos = (281,350);
},
{
name = top;
pos = (281,700);
}
);
background = {
shapes = (
{
pos = (-20,0);
ref = E;
}
);
};
layerId = "14EEE41F-D714-4243-A717-73445EE7DABA";
shapes = (
{
closed = 1;
nodes = (
(527,0,l),
(527,73,l),
(87,73,l),
(101,35,l),
(522,630,l),
(522,700,l),
(40,700,l),
(40,627,l),
(469,627,l),
(456,665,l),
(35,70,l),
(35,0,l)
);
}
);
width = 562;
},
{
anchors = (
{
name = bottom;
pos = (281,0);
},
{
name = center;
pos = (281,350);
},
{
name = top;
pos = (281,700);
}
);
layerId = "090CB6A0-BE7C-4D17-A551-206C7456A8A3";
shapes = (
{
closed = 1;
nodes = (
(547,0,l),
(547,128,l),
(87,128,l),
(114,35,l),
(542,582,l),
(542,700,l),
(25,700,l),
(25,572,l),
(469,572,l),
(443,665,l),
(15,118,l),
(15,0,l)
);
}
);
width = 562;
}
);
unicode = 90;
},
{
color = 5;
glyphname = a;
kernLeft = a;
kernRight = a;
layers = (
{
anchors = (
{
name = bottom;
pos = (249,0);
},
{
name = ogonek;
pos = (438,0);
},
{
name = top;
pos = (249,492);
}
);
layerId = "3114FB65-9464-41A5-B67E-A8F9F43C0EF1";
shapes = (
{
closed = 1;
nodes = (
(312,-8,o),
(393,56,o),
(417,134,c),
(408,144,l),
(408,0,l),
(438,0,l),
(438,283,ls),
(438,422,o),
(368,500,o),
(249,500,cs),
(159,500,o),
(91,453,o),
(60,371,c),
(79,364,l),
(90,364,l),
(118,432,o),
(172,472,o),
(248,472,cs),
(352,472,o),
(408,402,o),
(408,288,cs),
(408,209,ls),
(408,106,o),
(317,20,o),
(218,20,cs),
(142,20,o),
(80,66,o),
(80,138,cs),
(80,193,o),
(119,240,o),
(214,247,cs),
(419,262,l),
(419,291,l),
(204,275,ls),
(98,267,o),
(50,206,o),
(50,136,cs),
(50,56,o),
(119,-8,o),
(217,-8,cs)
);
}
);
width = 498;
},
{
anchors = (
{
name = bottom;
pos = (269,0);
},
{
name = ogonek;
pos = (498,0);
},
{
name = top;
pos = (269,508);
}
);
layerId = "090CB6A0-BE7C-4D17-A551-206C7456A8A3";
shapes = (
{
closed = 1;
nodes = (
(320,-16,o),
(405,60,o),
(430,148,c),
(381,148,l),
(381,0,l),
(498,0,l),
(498,287,ls),
(498,437,o),
(407,524,o),
(261,524,cs),
(139,524,o),
(56,455,o),
(36,364,c),
(150,340,l),
(161,340,l),
(168,375,o),
(203,409,o),
(261,409,cs),
(322,409,o),
(367,367,o),
(367,310,cs),
(367,227,ls),
(367,163,o),
(310,102,o),
(241,102,cs),
(198,102,o),
(167,121,o),
(167,151,cs),
(167,180,o),
(187,200,o),
(245,205,cs),
(425,220,l),
(425,328,l),
(228,311,ls),
(98,300,o),
(30,240,o),
(30,142,cs),
(30,49,o),
(105,-16,o),
(209,-16,cs)
);
}
);
width = 538;
},
{
associatedMasterId = "14EEE41F-D714-4243-A717-73445EE7DABA";
layerId = "D42253C8-C2D4-4376-9630-735954ED741C";
name = "1 Aug 23, 16:04";
shapes = (
{
closed = 1;
nodes = (
(481,428,o),
(394,513,o),
(263,513,cs),
(151,513,o),
(66,441,o),
(60,341,c),
(141,341,l),
(148,397,o),
(198,438,o),
(262,438,cs),
(342,438,o),
(392,394,o),
(400,315,cs),
(401,311,o),
(401,305,o),
(401,281,cs),
(401,216,ls),
(401,137,o),
(325,63,o),
(242,63,cs),
(177,63,o),
(130,97,o),
(130,145,cs),
(130,193,o),
(166,219,o),
(234,219,cs),
(419,219,l),
(419,289,l),
(219,289,ls),
(118,289,o),
(50,238,o),
(50,145,cs),
(50,50,o),
(119,-12,o),
(224,-12,cs),
(319,-12,o),
(397,41,o),
(424,125,c),
(401,145,l),
(401,0,l),
(481,0,l),
(481,281,ls)
);
}
);
width = 541;
},
{
associatedMasterId = "14EEE41F-D714-4243-A717-73445EE7DABA";
layerId = "E49259B7-98F6-4CEE-81A8-62722EA588E8";
name = "2 Aug 23, 18:26";
shapes = (
{
closed = 1;
nodes = (
(310,-12,o),
(392,42,o),
(418,126,c),
(394,145,l),
(394,0,l),
(469,0,l),
(469,281,ls),
(469,433,o),
(388,513,o),
(260,513,cs),
(155,513,o),
(77,459,o),
(56,365,c),
(138,349,l),
(150,408,o),
(195,443,o),
(259,443,cs),
(326,443,o),
(391,396,o),
(391,309,cs),
(391,230,ls),
(391,134,o),
(310,58,o),
(226,58,cs),
(167,58,o),
(120,94,o),
(120,145,cs),
(120,196,o),
(155,228,o),
(232,228,cs),
(409,228,l),
(409,294,l),
(217,294,ls),
(107,294,o),
(40,235,o),
(40,145,cs),
(40,50,o),
(113,-12,o),
(218,-12,cs)
);
}
);
width = 519;
},
{
associatedMasterId = "14EEE41F-D714-4243-A717-73445EE7DABA";
layerId = "B7FED326-67A2-48F0-A1E5-A04E3C460255";
name = "2 Aug 23, 18:29";
shapes = (
{
closed = 1;
nodes = (
(310,-12,o),
(392,42,o),
(418,126,c),
(394,145,l),
(394,0,l),
(469,0,l),
(469,281,ls),
(469,433,o),
(388,513,o),
(260,513,cs),
(155,513,o),
(77,459,o),
(56,365,c),
(138,349,l),
(150,408,o),
(195,443,o),
(259,443,cs),
(326,443,o),
(391,396,o),
(391,309,cs),
(391,230,ls),
(391,134,o),
(310,58,o),
(226,58,cs),
(167,58,o),
(120,94,o),
(120,145,cs),
(120,196,o),
(155,222,o),
(232,228,cs),
(409,242,l),
(409,308,l),
(217,294,ls),
(107,286,o),
(40,235,o),
(40,145,cs),
(40,50,o),
(113,-12,o),
(218,-12,cs)
);
}
);
width = 519;
},
{
associatedMasterId = "14EEE41F-D714-4243-A717-73445EE7DABA";
layerId = "3F6C0B1F-ECCB-4A39-A78C-DCED287BC76D";
name = "3 Aug 23, 13:44";
shapes = (
{
closed = 1;
nodes = (
(135,352,l),
(153,412,o),
(195,443,o),
(259,443,cs),
(335,443,o),
(391,387,o),
(391,309,cs),
(391,230,ls),
(391,138,o),
(314,58,o),
(226,58,cs),
(165,58,o),
(120,95,o),
(120,145,cs),
(120,194,o),
(155,222,o),
(234,229,cs),
(409,244,l),
(409,310,l),
(217,294,ls),
(103,285,o),
(40,229,o),
(40,145,cs),
(40,51,o),
(112,-12,o),
(218,-12,cs),
(312,-12,o),
(393,44,o),
(418,126,c),
(394,145,l),
(394,97,o),
(394,39,o),
(402,0,c),
(469,0,l),
(469,281,ls),
(469,428,o),
(392,513,o),
(260,513,cs),
(159,513,o),
(89,465,o),
(58,376,c),
(124,352,l)
);
},
{
closed = 1;
nodes = (
(469,0,l),
(484,14,l),
(484,14,o),
(469,138,o),
(469,247,cs),
(469,268,l),
(466,276,l),
(394,267,l),
(394,101,l)
);
}
);
width = 519;
},
{
associatedMasterId = "14EEE41F-D714-4243-A717-73445EE7DABA";
layerId = "D12F0501-09D4-47B1-9251-83F36F70B1FF";
name = "3 Aug 23, 15:36";
shapes = (
{
closed = 1;
nodes = (
(135,352,l),
(153,412,o),
(195,443,o),
(259,443,cs),
(337,443,o),
(394,387,o),
(394,309,cs),
(394,225,ls),
(394,131,o),
(321,58,o),
(226,58,cs),
(165,58,o),
(120,95,o),
(120,145,cs),
(120,194,o),
(155,223,o),
(234,229,cs),
(345,238,ls),
(366,240,o),
(388,242,o),
(409,252,c),
(409,310,l),
(217,294,ls),
(103,285,o),
(40,229,o),
(40,145,cs),
(40,51,o),
(112,-12,o),
(218,-12,cs),
(312,-12,o),
(393,44,o),
(418,126,c),
(396,145,l),
(396,0,l),
(469,0,l),
(469,281,ls),
(469,428,o),
(392,513,o),
(260,513,cs),
(159,513,o),
(89,465,o),
(58,376,c),
(124,352,l)
);
},
{
closed = 1;
nodes = (
(467,611,l),
(474,621,l),
(473,641,o),
(471,670,o),
(471,695,cs),
(471,864,o),
(406,992,o),
(282,992,cs),
(185,992,o),
(103,913,o),
(103,804,cs),
(103,715,o),
(157,630,o),
(308,630,c),
(308,686,l),
(221,686,o),
(178,727,o),
(178,797,cs),
(178,871,o),
(225,917,o),
(280,917,cs),
(352,917,o),
(395,836,o),
(396,695,cs),
(396,690,o),
(396,684,o),
(396,679,c),
(416,679,l),
(416,679,o),
(360,686,o),
(310,686,cs),
(48,686,l),
(48,611,l)
);
}
);
width = 519;
},
{
anchors = (
{
name = bottom;
pos = (259,0);
},
{
name = ogonek;
pos = (467,0);
},
{
name = top;
pos = (267,500);
}
);
layerId = "14EEE41F-D714-4243-A717-73445EE7DABA";
name = Regular;
shapes = (
{
closed = 1;
nodes = (
(313,-12,o),
(395,45,o),
(420,126,c),
(394,145,l),
(394,0,l),
(467,0,l),
(467,281,ls),
(467,429,o),
(393,513,o),
(258,513,cs),
(158,513,o),
(83,465,o),
(51,376,c),
(117,352,l),
(128,352,l),
(147,409,o),
(194,440,o),
(257,440,cs),
(339,440,o),
(392,383,o),
(392,303,cs),
(392,222,ls),
(392,131,o),
(317,61,o),
(223,61,cs),
(160,61,o),
(117,96,o),
(117,144,cs),
(117,193,o),
(154,221,o),
(232,227,cs),
(407,240,l),
(407,310,l),
(215,296,ls),
(105,288,o),
(40,231,o),
(40,144,cs),
(40,52,o),
(115,-12,o),
(218,-12,cs)
);
}
);
width = 517;
},
{
associatedMasterId = "14EEE41F-D714-4243-A717-73445EE7DABA";
layerId = "9C9219BD-64B0-4E55-BF13-06BB6CF41F60";
name = "9 Aug 23, 02:44";
shapes = (
{
closed = 1;
nodes = (
(124,352,l),
(141,409,o),
(185,443,o),
(257,443,cs),
(338,443,o),
(394,384,o),
(394,303,cs),
(394,222,ls),
(394,130,o),
(321,58,o),
(226,58,cs),
(165,58,o),
(120,94,o),
(120,143,cs),
(120,192,o),
(155,220,o),
(234,227,cs),
(409,242,l),
(409,310,l),
(217,294,ls),
(103,285,o),
(40,228,o),
(40,143,cs),
(40,50,o),
(112,-12,o),
(218,-12,cs),
(312,-12,o),
(393,44,o),
(418,126,c),
(396,145,l),
(396,0,l),
(469,0,l),
(469,281,ls),
(469,428,o),
(393,513,o),
(258,513,cs),
(149,513,o),
(77,462,o),
(47,376,c),
(113,352,l)
);
}
);
width = 519;
},
{
associatedMasterId = "090CB6A0-BE7C-4D17-A551-206C7456A8A3";
layerId = "F0AB1B6D-2BDA-4020-B1FD-2C29C1276677";
name = "9 Aug 23, 03:15";
shapes = (
{
closed = 1;
nodes = (
(158,340,l),
(165,377,o),
(200,414,o),
(261,414,cs),
(323,414,o),
(369,370,o),
(369,310,cs),
(369,227,ls),
(369,159,o),
(311,94,o),
(241,94,cs),
(198,94,o),
(167,116,o),
(167,151,cs),
(167,182,o),
(192,204,o),
(251,209,cs),
(425,224,l),
(425,325,l),
(234,308,ls),
(103,296,o),
(30,238,o),
(30,142,cs),
(30,49,o),
(105,-16,o),
(209,-16,cs),
(320,-16,o),
(405,60,o),
(430,148,c),
(381,148,l),
(381,0,l),
(498,0,l),
(498,287,ls),
(498,437,o),
(407,524,o),
(261,524,cs),
(138,524,o),
(56,455,o),
(36,364,c),
(147,340,l)
);
}
);
width = 538;
},
{
associatedMasterId = "3114FB65-9464-41A5-B67E-A8F9F43C0EF1";
background = {
shapes = (
{
closed = 1;
nodes = (
(128,343,l),
(145,402,o),
(186,432,o),
(249,432,cs),
(325,432,o),
(380,374,o),
(380,295,cs),
(380,216,ls),
(380,127,o),
(309,56,o),
(216,56,cs),
(157,56,o),
(113,91,o),
(113,139,cs),
(113,188,o),
(147,216,o),
(224,223,cs),
(395,238,l),
(395,302,l),
(208,287,ls),
(96,278,o),
(35,222,o),
(35,139,cs),
(35,49,o),
(105,-12,o),
(209,-12,cs),
(300,-12,o),
(379,43,o),
(404,123,c),
(382,141,l),
(382,0,l),
(454,0,l),
(454,274,ls),
(454,417,o),
(378,500,o),
(250,500,cs),
(151,500,o),
(83,453,o),
(53,367,c),
(117,343,l)
);
}
);
};
layerId = "EAAEC28E-714C-4657-90B6-3434B531468C";
name = "9 Aug 23, 04:35";
shapes = (
{
closed = 1;
nodes = (
(90,364,l),
(118,432,o),
(172,472,o),
(248,472,cs),
(352,472,o),
(408,402,o),
(408,288,cs),
(408,209,ls),
(408,104,o),
(317,16,o),
(218,16,cs),
(142,16,o),
(80,63,o),
(80,137,cs),
(80,193,o),
(118,240,o),
(202,246,cs),
(419,262,l),
(419,291,l),
(192,274,ls),
(99,267,o),
(50,204,o),
(50,135,cs),
(50,53,o),
(119,-12,o),
(217,-12,cs),
(312,-12,o),
(393,54,o),
(417,134,c),
(408,144,l),
(408,0,l),
(438,0,l),
(438,283,ls),
(438,422,o),
(368,500,o),
(249,500,cs),
(159,500,o),
(91,453,o),
(60,371,c),
(79,364,l)
);
}
);
width = 498;
},
{
associatedMasterId = "14EEE41F-D714-4243-A717-73445EE7DABA";
background = {
shapes = (
{
closed = 1;
nodes = (
(122,352,l),
(139,409,o),
(183,443,o),
(255,443,cs),
(336,443,o),
(392,384,o),
(392,303,cs),
(392,222,ls),
(392,130,o),
(319,58,o),
(224,58,cs),
(163,58,o),
(118,94,o),
(118,143,cs),
(118,192,o),
(153,220,o),
(232,227,cs),
(407,242,l),
(407,310,l),
(215,294,ls),
(101,285,o),
(38,228,o),
(38,143,cs),
(38,50,o),
(110,-12,o),
(216,-12,cs),
(310,-12,o),
(391,44,o),
(416,126,c),
(394,145,l),
(394,0,l),
(467,0,l),
(467,281,ls),
(467,428,o),
(391,513,o),
(256,513,cs),
(147,513,o),
(75,462,o),
(45,376,c),
(111,352,l)
);
}
);
};
layerId = "70CC5D1E-7454-492D-ADA1-0A5695644E1D";
name = "20 Oct 23, 13:42";
shapes = (
{
closed = 1;
nodes = (
(124,352,l),
(143,409,o),
(189,440,o),
(255,440,cs),
(335,440,o),
(392,383,o),
(392,303,cs),
(392,222,ls),
(392,131,o),
(317,61,o),
(223,61,cs),
(160,61,o),
(117,96,o),
(117,144,cs),
(117,193,o),
(154,220,o),
(232,227,cs),
(407,242,l),
(407,312,l),
(215,296,ls),
(105,287,o),
(40,231,o),
(40,144,cs),
(40,52,o),
(115,-12,o),
(218,-12,cs),
(313,-12,o),
(395,45,o),
(420,126,c),
(394,145,l),
(394,0,l),
(467,0,l),
(467,281,ls),
(467,429,o),
(390,513,o),
(256,513,cs),
(153,513,o),
(79,465,o),
(47,376,c),
(113,352,l)
);
}
);
width = 517;
},
{
associatedMasterId = "14EEE41F-D714-4243-A717-73445EE7DABA";
background = {
shapes = (
{
closed = 1;
nodes = (
(122,352,l),
(139,409,o),
(183,443,o),
(255,443,cs),
(336,443,o),
(392,384,o),
(392,303,cs),
(392,222,ls),
(392,130,o),
(319,58,o),
(224,58,cs),
(163,58,o),
(118,94,o),
(118,143,cs),
(118,192,o),
(153,220,o),
(232,227,cs),
(407,242,l),
(407,310,l),
(215,294,ls),
(101,285,o),
(38,228,o),
(38,143,cs),
(38,50,o),
(110,-12,o),
(216,-12,cs),
(310,-12,o),
(391,44,o),
(416,126,c),
(394,145,l),
(394,0,l),
(467,0,l),
(467,281,ls),
(467,428,o),
(391,513,o),
(256,513,cs),
(147,513,o),
(75,462,o),
(45,376,c),
(111,352,l)
);
}
);
};
layerId = "5DF2880C-C719-4328-B7BB-0938FB077C49";
name = "15 Dec 23, 12:37";
shapes = (
{
closed = 1;
nodes = (
(128,352,l),
(147,409,o),
(193,440,o),
(255,440,cs),
(336,440,o),
(392,383,o),
(392,303,cs),
(392,222,ls),
(392,131,o),
(317,61,o),
(223,61,cs),
(160,61,o),
(117,96,o),
(117,144,cs),
(117,193,o),
(154,221,o),
(232,227,cs),
(407,240,l),
(407,310,l),
(215,296,ls),
(105,288,o),
(40,231,o),
(40,144,cs),
(40,52,o),
(115,-12,o),
(218,-12,cs),
(313,-12,o),
(395,45,o),
(420,126,c),
(394,145,l),
(394,0,l),
(467,0,l),
(467,281,ls),
(467,429,o),
(389,513,o),
(256,513,cs),
(157,513,o),
(83,465,o),
(51,376,c),
(117,352,l)
);
}
);
width = 517;
}
);
unicode = 97;
},
{
color = 5;
glyphname = a.ss03;
layers = (
{
anchors = (
{
name = bottom;
pos = (308,0);
},
{
name = ogonek;
pos = (566,0);
},
{
name = top;
pos = (308,508);
}
);
layerId = "090CB6A0-BE7C-4D17-A551-206C7456A8A3";
shapes = (
{
closed = 1;
nodes = (
(392,-16,o),
(471,65,o),
(492,143,c),
(492,363,l),
(471,442,o),
(392,524,o),
(276,524,cs),
(137,524,o),
(30,412,o),
(30,253,cs),
(30,95,o),
(137,-16,o),
(276,-16,cs)
);
},
{
closed = 1;
nodes = (
(219,104,o),
(165,165,o),
(165,254,cs),
(165,343,o),
(219,404,o),
(300,404,cs),
(381,404,o),
(435,343,o),
(435,254,cs),
(435,165,o),
(381,104,o),
(300,104,cs)
);
},
{
closed = 1;
nodes = (
(566,0,l),
(566,508,l),
(431,508,l),
(431,367,l),
(471,254,l),
(441,141,l),
(441,0,l)
);
}
);
width = 616;
},
{
anchors = (
{
name = bottom;
pos = (293,0);
},
{
name = ogonek;
pos = (516,0);
},
{
name = top;
pos = (293,492);
}
);
layerId = "3114FB65-9464-41A5-B67E-A8F9F43C0EF1";
shapes = (
{
closed = 1;
nodes = (
(400,-8,o),
(483,66,o),
(507,181,c),
(507,311,l),
(483,426,o),
(400,500,o),
(284,500,cs),
(148,500,o),
(50,397,o),
(50,246,cs),
(50,95,o),
(148,-8,o),
(284,-8,cs)
);
},
{
closed = 1;
nodes = (
(165,20,o),
(80,111,o),
(80,246,cs),
(80,381,o),
(165,472,o),
(284,472,cs),
(403,472,o),
(488,381,o),
(488,246,cs),
(488,111,o),
(403,20,o),
(284,20,cs)
);
},
{
closed = 1;
nodes = (
(516,0,l),
(516,492,l),
(486,492,l),
(486,327,l),
(500,246,l),
(486,165,l),
(486,0,l)
);
}
);
width = 586;
},
{
anchors = (
{
name = bottom;
pos = (293,0);
},
{
name = ogonek;
pos = (526,0);
},
{
name = top;
pos = (293,500);
}
);
background = {
shapes = (
{
ref = o;
}
);
};
layerId = "14EEE41F-D714-4243-A717-73445EE7DABA";
shapes = (
{
closed = 1;
nodes = (
(378,-12,o),
(460,53,o),
(490,152,c),
(490,348,l),
(460,447,o),
(378,512,o),
(276,512,cs),
(143,512,o),
(40,402,o),
(40,250,cs),
(40,98,o),
(143,-12,o),
(276,-12,cs)
);
},
{
closed = 1;
nodes = (
(184,61,o),
(115,138,o),
(115,250,cs),
(115,362,o),
(184,439,o),
(279,439,cs),
(378,439,o),
(451,362,o),
(451,250,cs),
(451,138,o),
(378,61,o),
(279,61,cs)
);
},
{
closed = 1;
nodes = (
(526,0,l),
(526,500,l),
(453,500,l),
(453,313,l),
(465,250,l),
(453,187,l),
(453,0,l)
);
}
);
width = 586;
},
{
associatedMasterId = "14EEE41F-D714-4243-A717-73445EE7DABA";
background = {
shapes = (
{
ref = o;
}
);
};
layerId = "69AF2C8C-FB17-469B-B885-BD7C16B764E3";
name = "18 Oct 23, 02:35";
shapes = (
{
closed = 1;
nodes = (
(378,-12,o),
(459,53,o),
(490,152,c),
(490,348,l),
(459,447,o),
(378,512,o),
(280,512,cs),
(145,512,o),
(40,402,o),
(40,250,cs),
(40,98,o),
(145,-12,o),
(280,-12,cs)
);
},
{
closed = 1;
nodes = (
(186,61,o),
(115,138,o),
(115,250,cs),
(115,362,o),
(186,439,o),
(283,439,cs),
(380,439,o),
(451,362,o),
(451,250,cs),
(451,138,o),
(380,61,o),
(283,61,cs)
);
},
{
closed = 1;
nodes = (
(526,0,l),
(526,500,l),
(453,500,l),
(453,313,l),
(465,250,l),
(453,187,l),
(453,0,l)
);
}
);
width = 586;
}
);
metricLeft = o;
metricRight = l;
},
{
color = 5;
glyphname = a.ss04;
layers = (
{
anchors = (
{
name = bottom;
pos = (293,0);
},
{
name = ogonek;
pos = (590,0);
},
{
name = top;
pos = (293,500);
}
);
layerId = "14EEE41F-D714-4243-A717-73445EE7DABA";
shapes = (
{
closed = 1;
nodes = (
(378,-12,o),
(460,53,o),
(490,152,c),
(490,348,l),
(460,447,o),
(378,512,o),
(276,512,cs),
(143,512,o),
(40,402,o),
(40,250,cs),
(40,98,o),
(143,-12,o),
(276,-12,cs)
);
},
{
closed = 1;
nodes = (
(184,61,o),
(115,138,o),
(115,250,cs),
(115,362,o),
(184,439,o),
(279,439,cs),
(378,439,o),
(451,362,o),
(451,250,cs),
(451,138,o),
(378,61,o),
(279,61,cs)
);
},
{
closed = 1;
nodes = (
(453,56,o),
(495,0,o),
(572,0,cs),
(590,0,l),
(590,62,l),
(585,73,l),
(547,73,o),
(526,87,o),
(526,137,cs),
(526,500,l),
(453,500,l),
(453,313,l),
(465,250,l),
(453,187,l),
(453,137,ls)
);
}
);
width = 586;
},
{
anchors = (
{
name = bottom;
pos = (293,0);
},
{
name = ogonek;
pos = (594,0);
},
{
name = top;
pos = (293,492);
}
);
layerId = "3114FB65-9464-41A5-B67E-A8F9F43C0EF1";
shapes = (
{
closed = 1;
nodes = (
(400,-8,o),
(483,66,o),
(507,181,c),
(507,311,l),
(483,426,o),
(400,500,o),
(284,500,cs),
(148,500,o),
(50,397,o),
(50,246,cs),
(50,95,o),
(148,-8,o),
(284,-8,cs)
);
},
{
closed = 1;
nodes = (
(165,20,o),
(80,111,o),
(80,246,cs),
(80,381,o),
(165,472,o),
(284,472,cs),
(403,472,o),
(488,381,o),
(488,246,cs),
(488,111,o),
(403,20,o),
(284,20,cs)
);
},
{
closed = 1;
nodes = (
(486,40,o),
(522,0,o),
(590,0,cs),
(594,0,l),
(594,18,l),
(590,28,l),
(539,28,o),
(516,58,o),
(516,133,cs),
(516,492,l),
(486,492,l),
(486,327,l),
(500,246,l),
(486,165,l),
(486,121,ls)
);
}
);
width = 586;
},
{
anchors = (
{
name = bottom;
pos = (308,0);
},
{
name = ogonek;
pos = (620,0);
},
{
name = top;
pos = (308,508);
}
);
layerId = "090CB6A0-BE7C-4D17-A551-206C7456A8A3";
shapes = (
{
closed = 1;
nodes = (
(392,-16,o),
(471,65,o),
(492,143,c),
(492,363,l),
(471,442,o),
(392,524,o),
(276,524,cs),
(137,524,o),
(30,412,o),
(30,253,cs),
(30,95,o),
(137,-16,o),
(276,-16,cs)
);
},
{
closed = 1;
nodes = (
(219,104,o),
(165,165,o),
(165,254,cs),
(165,343,o),
(219,404,o),
(300,404,cs),
(381,404,o),
(435,343,o),
(435,254,cs),
(435,165,o),
(381,104,o),
(300,104,cs)
);
},
{
closed = 1;
nodes = (
(441,49,o),
(499,0,o),
(596,0,cs),
(620,0,l),
(620,108,l),
(615,119,l),
(585,119,o),
(566,144,o),
(566,184,cs),
(566,508,l),
(431,508,l),
(431,367,l),
(471,254,l),
(441,171,l),
(441,149,ls)
);
}
);
width = 616;
}
);
metricLeft = o;
metricWidth = a.ss03;
},
{
color = 5;
glyphname = ae;
kernLeft = a;
kernRight = c;
layers = (
{
background = {
shapes = (
{
alignment = -1;
ref = a;
},
{
alignment = -1;
pos = (358,0);
ref = e;
}
);
};
layerId = "3114FB65-9464-41A5-B67E-A8F9F43C0EF1";
shapes = (
{
closed = 1;
nodes = (
(736,-8,o),
(802,40,o),
(837,114,c),
(820,124,l),
(809,124,l),
(777,60,o),
(721,20,o),
(639,20,cs),
(520,20,o),
(438,111,o),
(438,241,cs),
(438,254,ls),
(438,380,o),
(521,472,o),
(632,472,cs),
(738,472,o),
(822,398,o),
(822,260,c),
(834,271,l),
(422,271,l),
(422,243,l),
(838,243,l),
(852,256,l),
(852,265,ls),
(852,402,o),
(763,500,o),
(632,500,cs),
(499,500,o),
(408,398,o),
(408,246,cs),
(408,95,o),
(501,-8,o),
(639,-8,cs)
);
},
{
closed = 1;
nodes = (
(326,-8,o),
(420,81,o),
(427,175,c),
(408,162,l),
(438,162,l),
(438,283,ls),
(438,422,o),
(368,500,o),
(249,500,cs),
(159,500,o),
(91,453,o),
(60,371,c),
(79,364,l),
(90,364,l),
(118,432,o),
(172,472,o),
(248,472,cs),
(352,472,o),
(408,402,o),
(408,288,cs),
(408,209,ls),
(408,106,o),
(317,20,o),
(218,20,cs),
(142,20,o),
(80,66,o),
(80,138,cs),
(80,191,o),
(119,243,o),
(214,243,cs),
(419,243,l),
(419,271,l),
(204,271,ls),
(98,271,o),
(50,204,o),
(50,136,cs),
(50,56,o),
(119,-8,o),
(217,-8,cs)
);
}
);
width = 902;
},
{
background = {
shapes = (
{
ref = a;
},
{
pos = (354,0);
ref = e;
}
);
};
layerId = "14EEE41F-D714-4243-A717-73445EE7DABA";
shapes = (
{
closed = 1;
nodes = (
(735,-12,o),
(813,39,o),
(850,119,c),
(787,147,l),
(776,147,l),
(749,94,o),
(702,61,o),
(637,61,cs),
(539,61,o),
(469,136,o),
(469,245,cs),
(469,258,ls),
(469,366,o),
(542,439,o),
(635,439,cs),
(718,439,o),
(785,383,o),
(793,284,c),
(826,298,l),
(438,298,l),
(438,225,l),
(855,225,l),
(870,239,l),
(870,248,ls),
(870,408,o),
(774,512,o),
(635,512,cs),
(493,512,o),
(394,406,o),
(394,250,cs),
(394,94,o),
(494,-12,o),
(637,-12,cs)
);
},
{
closed = 1;
nodes = (
(320,-12,o),
(406,49,o),
(436,140,c),
(396,126,l),
(469,126,l),
(469,281,ls),
(469,429,o),
(395,513,o),
(258,513,cs),
(158,513,o),
(83,465,o),
(51,376,c),
(117,352,l),
(128,352,l),
(147,409,o),
(194,440,o),
(257,440,cs),
(341,440,o),
(394,383,o),
(394,303,cs),
(394,222,ls),
(394,131,o),
(317,61,o),
(223,61,cs),
(160,61,o),
(117,96,o),
(117,144,cs),
(117,194,o),
(152,225,o),
(232,225,cs),
(438,225,l),
(438,298,l),
(219,298,ls),
(113,298,o),
(40,235,o),
(40,144,cs),
(40,52,o),
(115,-12,o),
(218,-12,cs)
);
}
);
width = 910;
},
{
background = {
shapes = (
{
alignment = -1;
ref = a;
},
{
alignment = -1;
pos = (334,0);
ref = e;
}
);
};
layerId = "090CB6A0-BE7C-4D17-A551-206C7456A8A3";
shapes = (
{
closed = 1;
nodes = (
(738,-16,o),
(820,33,o),
(862,124,c),
(754,169,l),
(742,169,l),
(719,126,o),
(676,99,o),
(633,99,cs),
(561,99,o),
(499,159,o),
(499,229,cs),
(499,282,ls),
(499,356,o),
(553,409,o),
(630,409,cs),
(697,409,o),
(751,359,o),
(752,285,c),
(827,312,l),
(424,312,l),
(424,205,l),
(867,205,l),
(882,220,l),
(882,244,ls),
(882,412,o),
(780,524,o),
(627,524,cs),
(471,524,o),
(364,414,o),
(364,254,cs),
(364,94,o),
(473,-16,o),
(633,-16,cs)
);
},
{
closed = 1;
nodes = (
(320,-16,o),
(405,60,o),
(430,148,c),
(381,121,l),
(498,121,l),
(498,287,ls),
(498,437,o),
(407,524,o),
(261,524,cs),
(139,524,o),
(56,455,o),
(36,364,c),
(150,340,l),
(161,340,l),
(168,375,o),
(203,409,o),
(261,409,cs),
(322,409,o),
(367,367,o),
(367,310,cs),
(367,227,ls),
(367,163,o),
(310,102,o),
(241,102,cs),
(198,102,o),
(167,121,o),
(167,151,cs),
(167,180,o),
(187,205,o),
(245,205,cs),
(424,205,l),
(424,311,l),
(228,311,ls),
(98,311,o),
(30,240,o),
(30,142,cs),
(30,49,o),
(105,-16,o),
(209,-16,cs)
);
}
);
width = 912;
},
{
anchors = (
{
name = bottom;
pos = (259,0);
},
{
name = ogonek;
pos = (467,0);
},
{
name = top;
pos = (259,500);
}
);
associatedMasterId = "14EEE41F-D714-4243-A717-73445EE7DABA";
layerId = "583F3BFE-BDA7-4629-958E-DC6A6D6C43A5";
name = "15 Dec 23, 13:05";
shapes = (
{
closed = 1;
nodes = (
(128,352,l),
(147,409,o),
(194,440,o),
(257,440,cs),
(339,440,o),
(392,383,o),
(392,303,cs),
(392,222,ls),
(392,131,o),
(317,61,o),
(223,61,cs),
(160,61,o),
(117,96,o),
(117,144,cs),
(117,193,o),
(154,221,o),
(232,227,cs),
(407,240,l),
(407,310,l),
(215,296,ls),
(105,288,o),
(40,231,o),
(40,144,cs),
(40,52,o),
(115,-12,o),
(218,-12,cs),
(313,-12,o),
(395,45,o),
(420,126,c),
(394,145,l),
(394,0,l),
(467,0,l),
(467,281,ls),
(467,429,o),
(393,513,o),
(258,513,cs),
(158,513,o),
(83,465,o),
(51,376,c),
(117,352,l)
);
},
{
closed = 1;
nodes = (
(785,147,l),
(774,147,l),
(747,94,o),
(700,61,o),
(635,61,cs),
(537,61,o),
(467,136,o),
(467,245,cs),
(467,258,ls),
(467,366,o),
(540,439,o),
(633,439,cs),
(716,439,o),
(783,379,o),
(791,280,c),
(824,294,l),
(436,294,l),
(436,221,l),
(853,221,l),
(868,235,l),
(868,244,ls),
(868,404,o),
(772,512,o),
(633,512,cs),
(491,512,o),
(392,406,o),
(392,250,cs),
(392,94,o),
(492,-12,o),
(635,-12,cs),
(733,-12,o),
(811,39,o),
(848,119,c)
);
}
);
width = 1066;
}
);
metricLeft = a;
metricRight = e;
unicode = 230;
},
{
color = 5;
glyphname = b;
kernLeft = l;
kernRight = o;
layers = (
{
background = {
shapes = (
{
pos = (586,0);
ref = d;
scale = (-1,1);
}
);
};
layerId = "3114FB65-9464-41A5-B67E-A8F9F43C0EF1";
shapes = (
{
closed = 1;
nodes = (
(438,-8,o),
(536,95,o),
(536,246,cs),
(536,397,o),
(438,500,o),
(302,500,cs),
(186,500,o),
(103,426,o),
(79,311,c),
(79,181,l),
(103,66,o),
(186,-8,o),
(302,-8,cs)
);
},
{
closed = 1;
nodes = (
(100,0,l),
(100,165,l),
(86,246,l),
(100,327,l),
(100,716,l),
(97,724,l),
(70,720,l),
(70,0,l)
);
},
{
closed = 1;
nodes = (
(183,20,o),
(98,111,o),
(98,246,cs),
(98,381,o),
(183,472,o),
(302,472,cs),
(421,472,o),
(506,381,o),
(506,246,cs),
(506,111,o),
(421,20,o),
(302,20,cs)
);
}
);
width = 586;
},
{
background = {
shapes = (
{
pos = (586,0);
ref = d;
scale = (-1,1);
}
);
};
layerId = "14EEE41F-D714-4243-A717-73445EE7DABA";
shapes = (
{
closed = 1;
nodes = (
(443,-12,o),
(546,98,o),
(546,250,cs),
(546,402,o),
(443,512,o),
(310,512,cs),
(208,512,o),
(126,447,o),
(96,348,c),
(96,152,l),
(126,53,o),
(208,-12,o),
(310,-12,cs)
);
},
{
closed = 1;
nodes = (
(133,0,l),
(133,187,l),
(121,250,l),
(135,313,l),
(135,721,l),
(132,729,l),
(60,720,l),
(60,0,l)
);
},
{
closed = 1;
nodes = (
(208,61,o),
(135,138,o),
(135,250,cs),
(135,362,o),
(208,439,o),
(307,439,cs),
(402,439,o),
(471,362,o),
(471,250,cs),
(471,138,o),
(402,61,o),
(307,61,cs)
);
}
);
width = 586;
},
{
background = {
shapes = (
{
pos = (616,0);
ref = d;
scale = (-1,1);
}
);
};
layerId = "090CB6A0-BE7C-4D17-A551-206C7456A8A3";
shapes = (
{
closed = 1;
nodes = (
(479,-16,o),
(586,95,o),
(586,253,cs),
(586,412,o),
(479,524,o),
(340,524,cs),
(224,524,o),
(145,442,o),
(124,363,c),
(124,143,l),
(145,65,o),
(224,-16,o),
(340,-16,cs)
);
},
{
closed = 1;
nodes = (
(175,0,l),
(175,141,l),
(145,254,l),
(185,367,l),
(185,728,l),
(182,736,l),
(50,720,l),
(50,0,l)
);
},
{
closed = 1;
nodes = (
(235,104,o),
(181,165,o),
(181,254,cs),
(181,343,o),
(235,404,o),
(316,404,cs),
(397,404,o),
(451,343,o),
(451,254,cs),
(451,165,o),
(397,104,o),
(316,104,cs)
);
}
);
width = 616;
},
{
associatedMasterId = "14EEE41F-D714-4243-A717-73445EE7DABA";
background = {
shapes = (
{
pos = (586,0);
ref = d;
scale = (-1,1);
}
);
};
layerId = "3279023E-5728-43E6-8B1A-BEAFC769DB07";
name = "18 Oct 23, 02:36";
shapes = (
{
closed = 1;
nodes = (
(441,-12,o),
(546,98,o),
(546,250,cs),
(546,402,o),
(441,512,o),
(306,512,cs),
(208,512,o),
(127,447,o),
(96,348,c),
(96,152,l),
(127,53,o),
(208,-12,o),
(306,-12,cs)
);
},
{
closed = 1;
nodes = (
(133,0,l),
(133,187,l),
(121,250,l),
(135,313,l),
(135,721,l),
(132,729,l),
(60,720,l),
(60,0,l)
);
},
{
closed = 1;
nodes = (
(206,61,o),
(135,138,o),
(135,250,cs),
(135,362,o),
(206,439,o),
(303,439,cs),
(400,439,o),
(471,362,o),
(471,250,cs),
(471,138,o),
(400,61,o),
(303,61,cs)
);
},
{
closed = 1;
nodes = (
(208,61,o),
(135,138,o),
(135,250,cs),
(135,362,o),
(208,439,o),
(307,439,cs),
(402,439,o),
(471,362,o),
(471,250,cs),
(471,138,o),
(402,61,o),
(307,61,cs)
);
}
);
width = 586;
}
);
metricLeft = l;
metricRight = o;
unicode = 98;
},
{
color = 5;
glyphname = c;
kernLeft = o;
kernRight = c;
layers = (
{
anchors = (
{
name = bottom;
pos = (277,0);
},
{
name = top;
pos = (277,492);
}
);
background = {
shapes = (
{
alignment = -1;
ref = e;
}
);
};
layerId = "3114FB65-9464-41A5-B67E-A8F9F43C0EF1";
shapes = (
{
closed = 1;
nodes = (
(403,-8,o),
(465,63,o),
(497,142,c),
(480,149,l),
(469,149,l),
(440,80,o),
(384,20,o),
(281,20,cs),
(154,20,o),
(80,119,o),
(80,246,cs),
(80,373,o),
(154,472,o),
(281,472,cs),
(380,472,o),
(436,412,o),
(465,343,c),
(476,343,l),
(493,350,l),
(461,429,o),
(399,500,o),
(281,500,cs),
(143,500,o),
(50,397,o),
(50,246,cs),
(50,95,o),
(143,-8,o),
(281,-8,cs)
);
}
);
width = 547;
},
{
anchors = (
{
name = bottom;
pos = (275,0);
},
{
name = top;
pos = (275,500);
}
);
background = {
shapes = (
{
ref = e;
}
);
};
layerId = "14EEE41F-D714-4243-A717-73445EE7DABA";
shapes = (
{
closed = 1;
nodes = (
(400,-12,o),
(483,49,o),
(520,156,c),
(453,175,l),
(442,175,l),
(416,102,o),
(362,61,o),
(289,61,cs),
(183,61,o),
(115,139,o),
(115,250,cs),
(115,361,o),
(183,439,o),
(289,439,cs),
(360,439,o),
(414,395,o),
(438,325,c),
(449,325,l),
(516,344,l),
(484,448,o),
(400,512,o),
(289,512,cs),
(142,512,o),
(40,406,o),
(40,250,cs),
(40,94,o),
(142,-12,o),
(289,-12,cs)
);
}
);
width = 560;
},
{
anchors = (
{
name = bottom;
pos = (289,0);
},
{
name = top;
pos = (289,508);
}
);
background = {
shapes = (
{
ref = e;
}
);
};
layerId = "090CB6A0-BE7C-4D17-A551-206C7456A8A3";
shapes = (
{
closed = 1;
nodes = (
(428,-16,o),
(512,43,o),
(548,163,c),
(437,194,l),
(425,194,l),
(408,138,o),
(356,103,o),
(299,103,cs),
(217,103,o),
(165,161,o),
(165,254,cs),
(165,347,o),
(217,405,o),
(299,405,cs),
(351,405,o),
(403,370,o),
(420,314,c),
(432,314,l),
(543,345,l),
(507,465,o),
(423,524,o),
(299,524,cs),
(139,524,o),
(30,414,o),
(30,254,cs),
(30,94,o),
(139,-16,o),
(299,-16,cs)
);
}
);
width = 578;
}
);
metricLeft = o;
unicode = 99;
},
{
color = 5;
glyphname = d;
kernLeft = o;
kernRight = l;
layers = (
{
anchors = (
{
name = bottom;
pos = (293,0);
},
{
name = center;
pos = (471,586);
},
{
name = top;
pos = (602,492);
},
{
name = topright;
pos = (566,720);
}
);
background = {
shapes = (
{
pos = (-5,0);
ref = o;
}
);
};
layerId = "3114FB65-9464-41A5-B67E-A8F9F43C0EF1";
shapes = (
{
closed = 1;
nodes = (
(400,-8,o),
(483,66,o),
(507,181,c),
(507,311,l),
(483,426,o),
(400,500,o),
(284,500,cs),
(148,500,o),
(50,397,o),
(50,246,cs),
(50,95,o),
(148,-8,o),
(284,-8,cs)
);
},
{
closed = 1;
nodes = (
(165,20,o),
(80,111,o),
(80,246,cs),
(80,381,o),
(165,472,o),
(284,472,cs),
(403,472,o),
(488,381,o),
(488,246,cs),
(488,111,o),
(403,20,o),
(284,20,cs)
);
},
{
closed = 1;
nodes = (
(516,0,l),
(516,716,l),
(513,724,l),
(486,720,l),
(486,327,l),
(500,246,l),
(486,165,l),
(486,0,l)
);
}
);
width = 586;
},
{
anchors = (
{
name = bottom;
pos = (293,0);
},
{
name = center;
pos = (453,605);
},
{
name = top;
pos = (613,500);
},
{
name = topright;
pos = (566,720);
}
);
background = {
shapes = (
{
ref = o;
}
);
};
layerId = "14EEE41F-D714-4243-A717-73445EE7DABA";
shapes = (
{
closed = 1;
nodes = (
(378,-12,o),
(460,53,o),
(490,152,c),
(490,348,l),
(460,447,o),
(378,512,o),
(276,512,cs),
(143,512,o),
(40,402,o),
(40,250,cs),
(40,98,o),
(143,-12,o),
(276,-12,cs)
);
},
{
closed = 1;
nodes = (
(184,61,o),
(115,138,o),
(115,250,cs),
(115,362,o),
(184,439,o),
(279,439,cs),
(378,439,o),
(451,362,o),
(451,250,cs),
(451,138,o),
(378,61,o),
(279,61,cs)
);
},
{
closed = 1;
nodes = (
(526,0,l),
(526,721,l),
(523,729,l),
(451,720,l),
(451,313,l),
(465,250,l),
(453,187,l),
(453,0,l)
);
}
);
width = 586;
},
{
anchors = (
{
name = bottom;
pos = (308,0);
},
{
name = center;
pos = (453,605);
},
{
name = top;
pos = (642,508);
},
{
name = topright;
pos = (596,720);
}
);
background = {
shapes = (
{
ref = o;
}
);
};
layerId = "090CB6A0-BE7C-4D17-A551-206C7456A8A3";
shapes = (
{
closed = 1;
nodes = (
(392,-16,o),
(471,65,o),
(492,143,c),
(492,363,l),
(471,442,o),
(392,524,o),
(276,524,cs),
(137,524,o),
(30,412,o),
(30,253,cs),
(30,95,o),
(137,-16,o),
(276,-16,cs)
);
},
{
closed = 1;
nodes = (
(219,104,o),
(165,165,o),
(165,254,cs),
(165,343,o),
(219,404,o),
(300,404,cs),
(381,404,o),
(435,343,o),
(435,254,cs),
(435,165,o),
(381,104,o),
(300,104,cs)
);
},
{
closed = 1;
nodes = (
(566,0,l),
(566,728,l),
(563,736,l),
(431,720,l),
(431,367,l),
(471,254,l),
(441,141,l),
(441,0,l)
);
}
);
width = 616;
},
{
associatedMasterId = "14EEE41F-D714-4243-A717-73445EE7DABA";
background = {
shapes = (
{
ref = o;
}
);
};
layerId = "BA6F4FD5-AE2E-4317-BFF9-7C03C7A3F571";
name = "18 Oct 23, 02:37";
shapes = (
{
closed = 1;
nodes = (
(378,-12,o),
(459,53,o),
(490,152,c),
(490,348,l),
(459,447,o),
(378,512,o),
(280,512,cs),
(145,512,o),
(40,402,o),
(40,250,cs),
(40,98,o),
(145,-12,o),
(280,-12,cs)
);
},
{
closed = 1;
nodes = (
(186,61,o),
(115,138,o),
(115,250,cs),
(115,362,o),
(186,439,o),
(283,439,cs),
(380,439,o),
(451,362,o),
(451,250,cs),
(451,138,o),
(380,61,o),
(283,61,cs)
);
},
{
closed = 1;
nodes = (
(526,0,l),
(526,721,l),
(523,729,l),
(451,720,l),
(451,313,l),
(465,250,l),
(453,187,l),
(453,0,l)
);
}
);
width = 586;
}
);
metricLeft = o;
metricRight = l;
unicode = 100;
},
{
color = 5;
glyphname = dcroat;
kernLeft = o;
kernRight = l;
layers = (
{
layerId = "3114FB65-9464-41A5-B67E-A8F9F43C0EF1";
shapes = (
{
ref = d;
},
{
pos = (284,236);
ref = strokeshortcomb;
}
);
width = 586;
},
{
layerId = "14EEE41F-D714-4243-A717-73445EE7DABA";
shapes = (
{
ref = d;
},
{
pos = (275,254);
ref = strokeshortcomb;
}
);
width = 586;
},
{
layerId = "090CB6A0-BE7C-4D17-A551-206C7456A8A3";
shapes = (
{
ref = d;
},
{
pos = (266,255);
ref = strokeshortcomb;
}
);
width = 616;
},
{
associatedMasterId = "14EEE41F-D714-4243-A717-73445EE7DABA";
layerId = "233BE8E5-26E5-471F-B0F8-3F91AEAD6B28";
name = "29 Jan 24, 16:43";
shapes = (
{
ref = d;
},
{
closed = 1;
nodes = (
(301,569,l),
(597,569,l),
(597,642,l),
(301,642,l)
);
}
);
width = 586;
}
);
unicode = 273;
},
{
color = 5;
glyphname = eth;
kernLeft = oaccent;
kernRight = oaccent;
layers = (
{
background = {
shapes = (
{
closed = 1;
nodes = (
(412,-12,o),
(521,98,o),
(521,275,cs),
(521,474,o),
(386,636,o),
(146,725,c),
(117,659,l),
(286,601,o),
(408,485,o),
(437,356,c),
(456,385,l),
(411,443,o),
(338,481,o),
(262,481,cs),
(132,481,o),
(29,374,o),
(29,237,cs),
(29,89,o),
(130,-12,o),
(272,-12,cs)
);
},
{
closed = 1;
nodes = (
(104,334,o),
(173,408,o),
(265,408,cs),
(364,408,o),
(440,334,o),
(440,237,cs),
(440,130,o),
(369,61,o),
(272,61,cs),
(175,61,o),
(104,130,o),
(104,237,cs)
);
},
{
closed = 1;
nodes = (
(453,640,l),
(424,706,l),
(119,569,l),
(148,503,l)
);
}
);
};
layerId = "3114FB65-9464-41A5-B67E-A8F9F43C0EF1";
shapes = (
{
closed = 1;
nodes = (
(406,-8,o),
(500,92,o),
(500,259,cs),
(500,426,o),
(387,626,o),
(167,720,c),
(154,693,l),
(326,618,o),
(435,477,o),
(466,330,c),
(457,381,l),
(422,440,o),
(352,480,o),
(275,480,cs),
(144,480,o),
(50,381,o),
(50,236,cs),
(50,95,o),
(144,-8,o),
(275,-8,cs)
);
},
{
closed = 1;
nodes = (
(162,20,o),
(80,111,o),
(80,236,cs),
(80,365,o),
(162,452,o),
(275,452,cs),
(388,452,o),
(470,365,o),
(470,236,cs),
(470,111,o),
(388,20,o),
(275,20,cs)
);
},
{
closed = 1;
nodes = (
(437,658,l),
(425,685,l),
(152,562,l),
(164,535,l)
);
}
);
width = 550;
},
{
background = {
shapes = (
{
pos = (-3,0);
ref = o;
}
);
};
layerId = "14EEE41F-D714-4243-A717-73445EE7DABA";
shapes = (
{
closed = 1;
nodes = (
(423,-12,o),
(532,98,o),
(532,275,cs),
(532,474,o),
(397,636,o),
(157,725,c),
(128,659,l),
(297,601,o),
(419,485,o),
(448,356,c),
(467,385,l),
(422,443,o),
(349,481,o),
(273,481,cs),
(143,481,o),
(40,374,o),
(40,237,cs),
(40,89,o),
(141,-12,o),
(283,-12,cs)
);
},
{
closed = 1;
nodes = (
(186,61,o),
(115,130,o),
(115,237,cs),
(115,334,o),
(184,408,o),
(276,408,cs),
(375,408,o),
(451,334,o),
(451,237,cs),
(451,130,o),
(380,61,o),
(283,61,cs)
);
},
{
closed = 1;
nodes = (
(462,640,l),
(433,706,l),
(128,569,l),
(157,503,l)
);
}
);
width = 572;
},
{
layerId = "090CB6A0-BE7C-4D17-A551-206C7456A8A3";
shapes = (
{
closed = 1;
nodes = (
(417,-16,o),
(514,109,o),
(514,288,cs),
(514,499,o),
(375,665,o),
(150,742,c),
(102,631,l),
(252,589,o),
(390,448,o),
(390,280,c),
(461,347,l),
(442,429,o),
(335,471,o),
(272,471,cs),
(130,471,o),
(30,370,o),
(30,228,cs),
(30,85,o),
(133,-16,o),
(272,-16,cs)
);
},
{
closed = 1;
nodes = (
(209,106,o),
(165,158,o),
(165,231,cs),
(165,304,o),
(209,355,o),
(272,355,cs),
(335,355,o),
(379,304,o),
(379,231,cs),
(379,158,o),
(335,106,o),
(272,106,cs)
);
},
{
closed = 1;
nodes = (
(468,612,l),
(423,715,l),
(102,571,l),
(147,468,l)
);
}
);
width = 544;
},
{
associatedMasterId = "14EEE41F-D714-4243-A717-73445EE7DABA";
layerId = "6CBA1CE6-5609-4EEE-A245-7AD8FF9C9F1D";
name = "15 Dec 23, 13:46";
shapes = (
{
ref = o;
},
{
closed = 1;
nodes = (
(209,541,l),
(496,646,l),
(471,714,l),
(184,609,l)
);
}
);
width = 572;
}
);
metricLeft = o;
metricRight = o;
unicode = 240;
},
{
color = 5;
glyphname = e;
kernLeft = o;
kernRight = c;
layers = (
{
anchors = (
{
name = bottom;
pos = (272,0);
},
{
name = ogonek;
pos = (345,0);
},
{
name = top;
pos = (272,492);
}
);
layerId = "3114FB65-9464-41A5-B67E-A8F9F43C0EF1";
shapes = (
{
closed = 1;
nodes = (
(462,124,l),
(451,124,l),
(419,60,o),
(363,20,o),
(281,20,cs),
(162,20,o),
(80,111,o),
(80,241,cs),
(80,254,ls),
(80,380,o),
(163,472,o),
(274,472,cs),
(380,472,o),
(464,397,o),
(464,256,c),
(476,267,l),
(64,267,l),
(64,239,l),
(480,239,l),
(494,252,l),
(494,261,ls),
(494,400,o),
(405,500,o),
(274,500,cs),
(141,500,o),
(50,398,o),
(50,246,cs),
(50,95,o),
(143,-8,o),
(281,-8,cs),
(378,-8,o),
(444,40,o),
(479,114,c)
);
}
);
width = 544;
},
{
anchors = (
{
name = bottom;
pos = (275,0);
},
{
name = ogonek;
pos = (361,0);
},
{
name = top;
pos = (275,500);
}
);
background = {
shapes = (
{
ref = o;
}
);
};
layerId = "14EEE41F-D714-4243-A717-73445EE7DABA";
shapes = (
{
closed = 1;
nodes = (
(433,147,l),
(422,147,l),
(395,94,o),
(348,61,o),
(283,61,cs),
(185,61,o),
(115,136,o),
(115,245,cs),
(115,258,ls),
(115,366,o),
(188,439,o),
(281,439,cs),
(364,439,o),
(431,379,o),
(439,280,c),
(472,294,l),
(84,294,l),
(84,221,l),
(501,221,l),
(516,235,l),
(516,244,ls),
(516,404,o),
(420,512,o),
(281,512,cs),
(139,512,o),
(40,406,o),
(40,250,cs),
(40,94,o),
(140,-12,o),
(283,-12,cs),
(381,-12,o),
(459,39,o),
(496,119,c)
);
}
);
width = 556;
},
{
anchors = (
{
name = bottom;
pos = (289,0);
},
{
name = ogonek;
pos = (395,0);
},
{
name = top;
pos = (289,508);
}
);
background = {
shapes = (
{
ref = o;
}
);
};
layerId = "090CB6A0-BE7C-4D17-A551-206C7456A8A3";
shapes = (
{
closed = 1;
nodes = (
(420,169,l),
(408,169,l),
(385,126,o),
(342,99,o),
(299,99,cs),
(227,99,o),
(165,159,o),
(165,229,cs),
(165,282,ls),
(165,356,o),
(219,409,o),
(296,409,cs),
(363,409,o),
(417,359,o),
(418,285,c),
(493,312,l),
(90,312,l),
(90,205,l),
(533,205,l),
(548,220,l),
(548,244,ls),
(548,412,o),
(446,524,o),
(293,524,cs),
(137,524,o),
(30,414,o),
(30,254,cs),
(30,94,o),
(139,-16,o),
(299,-16,cs),
(404,-16,o),
(486,33,o),
(528,124,c)
);
}
);
width = 578;
},
{
associatedMasterId = "14EEE41F-D714-4243-A717-73445EE7DABA";
layerId = "E6FEB9C0-7785-4F34-B919-9C944A45C2F5";
name = "1 Aug 23, 18:48";
shapes = (
{
closed = 1;
nodes = (
(428,164,l),
(402,102,o),
(352,63,o),
(281,63,cs),
(187,63,o),
(120,139,o),
(120,250,cs),
(120,361,o),
(187,437,o),
(281,437,cs),
(364,437,o),
(429,378,o),
(437,280,c),
(475,292,l),
(84,292,l),
(84,220,l),
(519,220,l),
(519,245,ls),
(519,404,o),
(423,512,o),
(281,512,cs),
(139,512,o),
(40,406,o),
(40,250,cs),
(40,94,o),
(139,-12,o),
(281,-12,cs),
(393,-12,o),
(471,49,o),
(506,148,c)
);
}
);
width = 549;
},
{
associatedMasterId = "14EEE41F-D714-4243-A717-73445EE7DABA";
layerId = "FD4EEDC7-54BC-4026-8CC9-C5BC455FC794";
name = "3 Aug 23, 15:50";
shapes = (
{
closed = 1;
nodes = (
(431,149,l),
(404,96,o),
(358,63,o),
(286,63,cs),
(189,63,o),
(120,139,o),
(120,250,cs),
(120,361,o),
(187,437,o),
(281,437,cs),
(364,437,o),
(429,378,o),
(437,280,c),
(475,292,l),
(84,292,l),
(84,222,l),
(519,222,l),
(519,245,ls),
(519,404,o),
(423,512,o),
(281,512,cs),
(139,512,o),
(40,406,o),
(40,250,cs),
(40,94,o),
(141,-12,o),
(286,-12,cs),
(399,-12,o),
(472,42,o),
(509,131,c)
);
}
);
width = 549;
},
{
associatedMasterId = "14EEE41F-D714-4243-A717-73445EE7DABA";
layerId = "2AB4AD40-AE2E-4142-AA1E-45822D056764";
name = "3 Aug 23, 16:00";
shapes = (
{
closed = 1;
nodes = (
(428,145,l),
(401,94,o),
(356,63,o),
(286,63,cs),
(189,63,o),
(120,139,o),
(120,250,cs),
(120,361,o),
(187,437,o),
(281,437,cs),
(364,437,o),
(429,378,o),
(437,280,c),
(475,292,l),
(84,292,l),
(84,222,l),
(519,222,l),
(519,245,ls),
(519,404,o),
(423,512,o),
(281,512,cs),
(139,512,o),
(40,406,o),
(40,250,cs),
(40,94,o),
(141,-12,o),
(286,-12,cs),
(397,-12,o),
(470,41,o),
(507,125,c),
(439,147,l)
);
}
);
width = 549;
},
{
associatedMasterId = "14EEE41F-D714-4243-A717-73445EE7DABA";
layerId = "6255B6D2-3378-49A0-9776-C1AEBA7A79ED";
name = "3 Aug 23, 16:08";
shapes = (
{
closed = 1;
nodes = (
(439,147,l),
(428,145,l),
(401,94,o),
(357,63,o),
(289,63,cs),
(190,63,o),
(120,139,o),
(120,250,cs),
(120,361,o),
(187,437,o),
(281,437,cs),
(365,437,o),
(431,378,o),
(439,280,c),
(475,292,l),
(84,292,l),
(84,222,l),
(505,222,l),
(519,232,l),
(519,245,ls),
(519,404,o),
(423,512,o),
(281,512,cs),
(139,512,o),
(40,406,o),
(40,250,cs),
(40,94,o),
(142,-12,o),
(289,-12,cs),
(397,-12,o),
(469,39,o),
(506,119,c)
);
}
);
width = 549;
},
{
associatedMasterId = "14EEE41F-D714-4243-A717-73445EE7DABA";
background = {
shapes = (
{
ref = o;
}
);
};
layerId = "F5C6E2AD-7BB8-48D1-B0F8-5F3D9E1285AF";
name = "19 Oct 23, 12:43";
shapes = (
{
closed = 1;
nodes = (
(441,147,l),
(430,147,l),
(403,94,o),
(358,61,o),
(289,61,cs),
(187,61,o),
(115,136,o),
(115,245,cs),
(115,258,ls),
(115,366,o),
(188,439,o),
(281,439,cs),
(367,439,o),
(434,379,o),
(442,280,c),
(475,294,l),
(84,294,l),
(84,221,l),
(504,221,l),
(519,235,l),
(519,244,ls),
(519,404,o),
(423,512,o),
(281,512,cs),
(139,512,o),
(40,406,o),
(40,250,cs),
(40,94,o),
(142,-12,o),
(289,-12,cs),
(397,-12,o),
(469,39,o),
(506,119,c)
);
}
);
width = 549;
}
);
metricLeft = o;
unicode = 101;
},
{
color = 5;
glyphname = f;
kernLeft = f;
kernRight = f;
layers = (
{
layerId = "3114FB65-9464-41A5-B67E-A8F9F43C0EF1";
shapes = (
{
closed = 1;
nodes = (
(133,0,l),
(133,576,ls),
(133,662,o),
(161,692,o),
(232,692,cs),
(262,692,l),
(266,702,l),
(266,720,l),
(232,720,ls),
(148,720,o),
(103,682,o),
(103,577,cs),
(103,0,l)
);
},
{
closed = 1;
nodes = (
(266,464,l),
(266,492,l),
(20,492,l),
(20,464,l)
);
}
);
width = 296;
},
{
layerId = "14EEE41F-D714-4243-A717-73445EE7DABA";
shapes = (
{
closed = 1;
nodes = (
(171,0,l),
(171,567,ls),
(171,626,o),
(194,647,o),
(251,647,cs),
(288,647,l),
(293,658,l),
(293,720,l),
(238,720,ls),
(155,720,o),
(96,663,o),
(96,572,cs),
(96,0,l)
);
},
{
closed = 1;
nodes = (
(293,427,l),
(293,500,l),
(10,500,l),
(10,427,l)
);
}
);
width = 313;
},
{
layerId = "090CB6A0-BE7C-4D17-A551-206C7456A8A3";
shapes = (
{
closed = 1;
nodes = (
(226,0,l),
(226,530,ls),
(226,579,o),
(248,601,o),
(297,601,cs),
(329,601,l),
(334,612,l),
(334,720,l),
(263,720,ls),
(158,720,o),
(91,649,o),
(91,536,cs),
(91,0,l)
);
},
{
closed = 1;
nodes = (
(334,389,l),
(334,508,l),
(5,508,l),
(5,389,l)
);
}
);
width = 349;
},
{
associatedMasterId = "090CB6A0-BE7C-4D17-A551-206C7456A8A3";
layerId = "E203DE70-6BFC-4090-ABEE-FBF8B92B1DC6";
name = "12 Aug 23, 01:26";
shapes = (
{
closed = 1;
nodes = (
(226,0,l),
(226,521,ls),
(226,570,o),
(257,601,o),
(306,601,cs),
(329,601,l),
(334,612,l),
(334,720,l),
(263,720,ls),
(158,720,o),
(91,649,o),
(91,536,cs),
(91,0,l)
);
},
{
closed = 1;
nodes = (
(334,389,l),
(334,508,l),
(5,508,l),
(5,389,l)
);
}
);
width = 349;
}
);
unicode = 102;
},
{
color = 5;
glyphname = g;
kernLeft = g;
kernRight = g;
layers = (
{
anchors = (
{
name = bottom;
pos = (259,-200);
},
{
name = top;
pos = (259,492);
}
);
layerId = "3114FB65-9464-41A5-B67E-A8F9F43C0EF1";
shapes = (
{
closed = 1;
nodes = (
(288,-200,ls),
(399,-200,o),
(469,-147,o),
(469,-64,cs),
(469,9,o),
(410,61,o),
(324,61,cs),
(194,61,ls),
(135,61,o),
(102,83,o),
(102,124,cs),
(102,161,o),
(138,187,o),
(183,192,c),
(153,211,l),
(105,200,o),
(72,168,o),
(72,121,cs),
(72,69,o),
(117,33,o),
(190,33,cs),
(321,33,ls),
(389,33,o),
(439,-4,o),
(439,-63,cs),
(439,-132,o),
(381,-172,o),
(288,-172,cs),
(229,-172,ls),
(129,-172,o),
(72,-129,o),
(72,-59,cs),
(72,-17,o),
(101,33,o),
(155,47,c),
(121,62,l),
(78,43,o),
(42,-3,o),
(42,-64,cs),
(42,-144,o),
(113,-200,o),
(229,-200,cs)
);
},
{
closed = 1;
nodes = (
(365,170,o),
(439,237,o),
(439,335,cs),
(439,433,o),
(365,500,o),
(256,500,cs),
(147,500,o),
(73,433,o),
(73,335,cs),
(73,237,o),
(147,170,o),
(256,170,cs)
);
},
{
closed = 1;
nodes = (
(165,198,o),
(103,254,o),
(103,335,cs),
(103,416,o),
(165,472,o),
(256,472,cs),
(347,472,o),
(409,416,o),
(409,335,cs),
(409,254,o),
(347,198,o),
(256,198,cs)
);
},
{
closed = 1;
nodes = (
(383,503,o),
(409,543,o),
(455,543,cs),
(464,543,o),
(472,542,o),
(479,540,c),
(483,550,l),
(483,572,l),
(478,574,o),
(466,575,o),
(454,575,cs),
(401,575,o),
(360,524,o),
(360,468,c),
(383,452,l)
);
}
);
width = 493;
},
{
anchors = (
{
name = bottom;
pos = (261,-200);
},
{
name = top;
pos = (267,508);
}
);
layerId = "090CB6A0-BE7C-4D17-A551-206C7456A8A3";
shapes = (
{
closed = 1;
nodes = (
(294,-200,ls),
(430,-200,o),
(516,-137,o),
(516,-39,cs),
(516,51,o),
(448,110,o),
(346,110,cs),
(228,110,ls),
(198,110,o),
(180,122,o),
(180,142,cs),
(180,161,o),
(202,175,o),
(239,181,c),
(147,241,l),
(85,216,o),
(50,175,o),
(50,119,cs),
(50,51,o),
(117,0,o),
(209,0,cs),
(327,0,ls),
(358,0,o),
(384,-14,o),
(384,-42,cs),
(384,-73,o),
(353,-90,o),
(296,-90,cs),
(225,-90,ls),
(170,-90,o),
(152,-58,o),
(152,-28,cs),
(152,-3,o),
(168,22,o),
(196,33,c),
(121,84,l),
(55,59,o),
(20,11,o),
(20,-51,cs),
(20,-144,o),
(105,-200,o),
(244,-200,cs)
);
},
{
closed = 1;
nodes = (
(401,158,o),
(488,233,o),
(488,341,cs),
(488,449,o),
(401,524,o),
(272,524,cs),
(143,524,o),
(56,449,o),
(56,341,cs),
(56,233,o),
(143,158,o),
(272,158,cs)
);
},
{
closed = 1;
nodes = (
(222,268,o),
(188,298,o),
(188,341,cs),
(188,384,o),
(222,414,o),
(272,414,cs),
(322,414,o),
(356,384,o),
(356,341,cs),
(356,298,o),
(322,268,o),
(272,268,cs)
);
},
{
closed = 1;
nodes = (
(425,471,o),
(445,502,o),
(485,502,cs),
(495,502,o),
(504,501,o),
(511,499,c),
(516,509,l),
(516,620,l),
(511,622,o),
(495,623,o),
(477,623,cs),
(400,623,o),
(341,554,o),
(341,462,c),
(425,427,l)
);
}
);
width = 521;
},
{
associatedMasterId = "14EEE41F-D714-4243-A717-73445EE7DABA";
layerId = "8A02287B-0D9B-46A9-9109-FE18E9171059";
name = "1 Aug 23, 18:51";
shapes = (
{
closed = 1;
nodes = (
(71,227,o),
(152,152,o),
(268,152,cs),
(384,152,o),
(465,227,o),
(465,334,cs),
(465,441,o),
(384,516,o),
(268,516,cs),
(152,516,o),
(71,441,o),
(71,334,cs)
);
},
{
closed = 1;
nodes = (
(146,400,o),
(196,446,o),
(268,446,cs),
(340,446,o),
(390,400,o),
(390,334,cs),
(390,268,o),
(340,222,o),
(268,222,cs),
(196,222,o),
(146,268,o),
(146,334,cs)
);
},
{
closed = 1;
nodes = (
(394,445,l),
(394,497,o),
(418,534,o),
(467,534,cs),
(478,534,o),
(490,532,o),
(497,529,c),
(497,606,l),
(490,608,o),
(475,609,o),
(467,609,cs),
(392,609,o),
(334,554,o),
(334,482,c)
);
},
{
closed = 1;
nodes = (
(396,-203,o),
(477,-148,o),
(477,-55,cs),
(477,27,o),
(413,82,o),
(310,82,cs),
(211,82,ls),
(163,82,o),
(133,100,o),
(133,128,cs),
(133,152,o),
(154,170,o),
(190,177,c),
(133,224,l),
(87,203,o),
(58,163,o),
(58,120,cs),
(58,57,o),
(121,12,o),
(197,12,cs),
(310,12,ls),
(369,12,o),
(401,-15,o),
(401,-55,cs),
(401,-106,o),
(349,-133,o),
(269,-133,cs),
(235,-133,ls),
(154,-133,o),
(104,-99,o),
(104,-44,cs),
(104,-12,o),
(124,15,o),
(158,28,c),
(113,71,l),
(58,48,o),
(28,3,o),
(28,-54,cs),
(28,-145,o),
(104,-203,o),
(235,-203,cs),
(269,-203,ls)
);
}
);
width = 488;
},
{
associatedMasterId = "14EEE41F-D714-4243-A717-73445EE7DABA";
layerId = "1C2CF66B-C780-4641-A12E-DF561FD40094";
name = "3 Aug 23, 22:43";
shapes = (
{
closed = 1;
nodes = (
(55,232,o),
(133,160,o),
(248,160,cs),
(363,160,o),
(441,232,o),
(441,336,cs),
(441,440,o),
(363,512,o),
(248,512,cs),
(133,512,o),
(55,440,o),
(55,336,cs)
);
},
{
closed = 1;
nodes = (
(129,399,o),
(177,442,o),
(248,442,cs),
(319,442,o),
(367,399,o),
(367,336,cs),
(367,273,o),
(319,230,o),
(248,230,cs),
(177,230,o),
(129,273,o),
(129,336,cs)
);
},
{
closed = 1;
nodes = (
(378,427,l),
(378,477,o),
(401,512,o),
(447,512,cs),
(458,512,o),
(469,510,o),
(476,507,c),
(476,580,l),
(469,582,o),
(455,583,o),
(447,583,cs),
(380,583,o),
(328,531,o),
(328,462,c)
);
},
{
closed = 1;
nodes = (
(400,-200,o),
(479,-142,o),
(479,-48,cs),
(479,34,o),
(417,90,o),
(318,90,cs),
(193,90,ls),
(151,90,o),
(125,105,o),
(125,134,cs),
(125,159,o),
(146,176,o),
(182,183,c),
(137,222,l),
(81,202,o),
(50,165,o),
(50,123,cs),
(50,61,o),
(113,20,o),
(189,20,cs),
(318,20,ls),
(373,20,o),
(403,-7,o),
(403,-47,cs),
(403,-101,o),
(353,-130,o),
(277,-130,cs),
(224,-130,ls),
(145,-130,o),
(96,-93,o),
(96,-41,cs),
(96,-8,o),
(116,20,o),
(150,33,c),
(111,74,l),
(52,50,o),
(20,4,o),
(20,-54,cs),
(20,-143,o),
(95,-200,o),
(224,-200,cs),
(277,-200,ls)
);
}
);
width = 489;
},
{
associatedMasterId = "090CB6A0-BE7C-4D17-A551-206C7456A8A3";
background = {
shapes = (
{
closed = 1;
nodes = (
(65,232,o),
(143,160,o),
(258,160,cs),
(373,160,o),
(451,232,o),
(451,336,cs),
(451,440,o),
(373,512,o),
(258,512,cs),
(143,512,o),
(65,440,o),
(65,336,cs)
);
},
{
closed = 1;
nodes = (
(139,399,o),
(187,442,o),
(258,442,cs),
(329,442,o),
(377,399,o),
(377,336,cs),
(377,273,o),
(329,230,o),
(258,230,cs),
(187,230,o),
(139,273,o),
(139,336,cs)
);
},
{
closed = 1;
nodes = (
(388,427,l),
(388,477,o),
(411,512,o),
(457,512,cs),
(468,512,o),
(479,510,o),
(486,507,c),
(486,580,l),
(479,582,o),
(465,583,o),
(457,583,cs),
(390,583,o),
(338,531,o),
(338,462,c)
);
},
{
closed = 1;
nodes = (
(410,-200,o),
(489,-143,o),
(489,-51,cs),
(489,35,o),
(427,93,o),
(328,93,cs),
(203,93,ls),
(161,93,o),
(135,107,o),
(135,134,cs),
(135,159,o),
(156,176,o),
(192,183,c),
(147,222,l),
(91,202,o),
(60,166,o),
(60,124,cs),
(60,63,o),
(123,23,o),
(199,23,cs),
(328,23,ls),
(383,23,o),
(413,-7,o),
(413,-41,cs),
(413,-101,o),
(363,-130,o),
(287,-130,cs),
(234,-130,ls),
(155,-130,o),
(106,-96,o),
(106,-41,cs),
(106,-8,o),
(126,20,o),
(160,33,c),
(121,74,l),
(62,51,o),
(30,6,o),
(30,-51,cs),
(30,-142,o),
(105,-200,o),
(234,-200,cs),
(287,-200,ls)
);
}
);
};
layerId = "774A6955-C6BF-4660-91F3-04DE9B998506";
name = "3 Aug 23, 22:45";
shapes = (
{
closed = 1;
nodes = (
(50,226,o),
(134,150,o),
(258,150,cs),
(382,150,o),
(466,226,o),
(466,336,cs),
(466,446,o),
(382,522,o),
(258,522,cs),
(134,522,o),
(50,446,o),
(50,336,cs)
);
},
{
closed = 1;
nodes = (
(174,381,o),
(208,412,o),
(258,412,cs),
(308,412,o),
(342,381,o),
(342,336,cs),
(342,291,o),
(308,260,o),
(258,260,cs),
(208,260,o),
(174,291,o),
(174,336,cs)
);
},
{
closed = 1;
nodes = (
(402,427,l),
(402,471,o),
(423,502,o),
(465,502,cs),
(477,502,o),
(488,500,o),
(496,497,c),
(496,610,l),
(491,612,o),
(475,613,o),
(457,613,cs),
(382,613,o),
(324,548,o),
(324,462,c)
);
},
{
closed = 1;
nodes = (
(423,-200,o),
(509,-137,o),
(509,-39,cs),
(509,51,o),
(441,110,o),
(339,110,cs),
(203,110,ls),
(173,110,o),
(155,122,o),
(155,142,cs),
(155,161,o),
(177,175,o),
(214,181,c),
(143,232,l),
(77,209,o),
(40,171,o),
(40,119,cs),
(40,51,o),
(107,0,o),
(199,0,cs),
(320,0,ls),
(351,0,o),
(377,-17,o),
(377,-42,cs),
(377,-73,o),
(346,-90,o),
(289,-90,cs),
(206,-90,ls),
(155,-90,o),
(126,-58,o),
(126,-28,cs),
(126,-3,o),
(146,22,o),
(180,33,c),
(121,84,l),
(49,59,o),
(10,11,o),
(10,-51,cs),
(10,-144,o),
(95,-200,o),
(234,-200,cs),
(287,-200,ls)
);
}
);
width = 514;
},
{
associatedMasterId = "090CB6A0-BE7C-4D17-A551-206C7456A8A3";
background = {
shapes = (
{
closed = 1;
nodes = (
(65,232,o),
(143,160,o),
(258,160,cs),
(373,160,o),
(451,232,o),
(451,336,cs),
(451,440,o),
(373,512,o),
(258,512,cs),
(143,512,o),
(65,440,o),
(65,336,cs)
);
},
{
closed = 1;
nodes = (
(139,399,o),
(187,442,o),
(258,442,cs),
(329,442,o),
(377,399,o),
(377,336,cs),
(377,273,o),
(329,230,o),
(258,230,cs),
(187,230,o),
(139,273,o),
(139,336,cs)
);
},
{
closed = 1;
nodes = (
(388,427,l),
(388,477,o),
(411,512,o),
(457,512,cs),
(468,512,o),
(479,510,o),
(486,507,c),
(486,580,l),
(479,582,o),
(465,583,o),
(457,583,cs),
(390,583,o),
(338,531,o),
(338,462,c)
);
},
{
closed = 1;
nodes = (
(410,-200,o),
(489,-143,o),
(489,-51,cs),
(489,35,o),
(427,93,o),
(328,93,cs),
(203,93,ls),
(161,93,o),
(135,107,o),
(135,134,cs),
(135,159,o),
(156,176,o),
(192,183,c),
(147,222,l),
(91,202,o),
(60,166,o),
(60,124,cs),
(60,63,o),
(123,23,o),
(199,23,cs),
(328,23,ls),
(383,23,o),
(413,-7,o),
(413,-41,cs),
(413,-101,o),
(363,-130,o),
(287,-130,cs),
(234,-130,ls),
(155,-130,o),
(106,-96,o),
(106,-41,cs),
(106,-8,o),
(126,20,o),
(160,33,c),
(121,74,l),
(62,51,o),
(30,6,o),
(30,-51,cs),
(30,-142,o),
(105,-200,o),
(234,-200,cs),
(287,-200,ls)
);
}
);
};
layerId = "80130483-41D2-4D2A-804D-DB3006652513";
name = "4 Aug 23, 00:14";
shapes = (
{
closed = 1;
nodes = (
(50,233,o),
(134,158,o),
(258,158,cs),
(382,158,o),
(466,233,o),
(466,341,cs),
(466,449,o),
(382,524,o),
(258,524,cs),
(134,524,o),
(50,449,o),
(50,341,cs)
);
},
{
closed = 1;
nodes = (
(174,384,o),
(208,414,o),
(258,414,cs),
(308,414,o),
(342,384,o),
(342,341,cs),
(342,298,o),
(308,268,o),
(258,268,cs),
(208,268,o),
(174,298,o),
(174,341,cs)
);
},
{
closed = 1;
nodes = (
(496,509,l),
(496,610,l),
(491,612,o),
(475,613,o),
(457,613,cs),
(382,613,o),
(324,548,o),
(324,462,c),
(402,427,l),
(402,471,o),
(423,502,o),
(465,502,cs),
(475,502,o),
(484,501,o),
(491,499,c)
);
},
{
closed = 1;
nodes = (
(417,-200,o),
(503,-137,o),
(503,-39,cs),
(503,51,o),
(435,110,o),
(333,110,cs),
(215,110,ls),
(185,110,o),
(167,122,o),
(167,142,cs),
(167,161,o),
(189,175,o),
(226,181,c),
(140,232,l),
(74,209,o),
(37,171,o),
(37,119,cs),
(37,51,o),
(104,0,o),
(196,0,cs),
(314,0,ls),
(345,0,o),
(371,-14,o),
(371,-42,cs),
(371,-73,o),
(340,-90,o),
(283,-90,cs),
(219,-90,ls),
(168,-90,o),
(139,-58,o),
(139,-28,cs),
(139,-3,o),
(159,22,o),
(193,33,c),
(118,84,l),
(46,59,o),
(7,11,o),
(7,-51,cs),
(7,-144,o),
(92,-200,o),
(231,-200,cs),
(281,-200,ls)
);
}
);
width = 514;
},
{
associatedMasterId = "14EEE41F-D714-4243-A717-73445EE7DABA";
layerId = "2F3FF85E-CC04-407F-B57D-3EA4E50DE7AA";
name = "9 Aug 23, 02:57";
shapes = (
{
closed = 1;
nodes = (
(64,232,o),
(142,160,o),
(258,160,cs),
(374,160,o),
(452,232,o),
(452,336,cs),
(452,440,o),
(374,512,o),
(258,512,cs),
(142,512,o),
(64,440,o),
(64,336,cs)
);
},
{
closed = 1;
nodes = (
(139,398,o),
(187,440,o),
(258,440,cs),
(329,440,o),
(377,398,o),
(377,336,cs),
(377,274,o),
(329,232,o),
(258,232,cs),
(187,232,o),
(139,274,o),
(139,336,cs)
);
},
{
closed = 1;
nodes = (
(486,518,l),
(486,580,l),
(479,582,o),
(465,583,o),
(457,583,cs),
(390,583,o),
(338,531,o),
(338,462,c),
(388,427,l),
(388,476,o),
(411,510,o),
(457,510,cs),
(466,510,o),
(474,509,o),
(481,507,c)
);
},
{
closed = 1;
nodes = (
(410,-200,o),
(489,-142,o),
(489,-48,cs),
(489,34,o),
(427,90,o),
(328,90,cs),
(203,90,ls),
(160,90,o),
(134,105,o),
(134,134,cs),
(134,159,o),
(155,176,o),
(192,183,c),
(147,222,l),
(91,202,o),
(60,165,o),
(60,123,cs),
(60,60,o),
(123,18,o),
(199,18,cs),
(328,18,ls),
(384,18,o),
(414,-8,o),
(414,-47,cs),
(414,-100,o),
(364,-128,o),
(287,-128,cs),
(228,-128,ls),
(152,-128,o),
(105,-92,o),
(105,-41,cs),
(105,-8,o),
(125,20,o),
(160,33,c),
(121,74,l),
(62,50,o),
(30,4,o),
(30,-54,cs),
(30,-143,o),
(105,-200,o),
(234,-200,cs),
(287,-200,ls)
);
}
);
width = 504;
},
{
associatedMasterId = "090CB6A0-BE7C-4D17-A551-206C7456A8A3";
background = {
shapes = (
{
closed = 1;
nodes = (
(78,232,o),
(156,160,o),
(271,160,cs),
(386,160,o),
(464,232,o),
(464,336,cs),
(464,440,o),
(386,512,o),
(271,512,cs),
(156,512,o),
(78,440,o),
(78,336,cs)
);
},
{
closed = 1;
nodes = (
(152,399,o),
(200,442,o),
(271,442,cs),
(342,442,o),
(390,399,o),
(390,336,cs),
(390,273,o),
(342,230,o),
(271,230,cs),
(200,230,o),
(152,273,o),
(152,336,cs)
);
},
{
closed = 1;
nodes = (
(401,427,l),
(401,477,o),
(424,512,o),
(470,512,cs),
(481,512,o),
(492,510,o),
(499,507,c),
(499,580,l),
(492,582,o),
(478,583,o),
(470,583,cs),
(403,583,o),
(351,531,o),
(351,462,c)
);
},
{
closed = 1;
nodes = (
(423,-200,o),
(502,-143,o),
(502,-51,cs),
(502,35,o),
(440,93,o),
(341,93,cs),
(216,93,ls),
(174,93,o),
(148,107,o),
(148,134,cs),
(148,159,o),
(169,176,o),
(205,183,c),
(160,222,l),
(104,202,o),
(73,166,o),
(73,124,cs),
(73,63,o),
(136,23,o),
(212,23,cs),
(341,23,ls),
(396,23,o),
(426,-7,o),
(426,-41,cs),
(426,-101,o),
(376,-130,o),
(300,-130,cs),
(247,-130,ls),
(168,-130,o),
(119,-96,o),
(119,-41,cs),
(119,-8,o),
(139,20,o),
(173,33,c),
(134,74,l),
(75,51,o),
(43,6,o),
(43,-51,cs),
(43,-142,o),
(118,-200,o),
(247,-200,cs),
(300,-200,ls)
);
}
);
};
layerId = "44941E5F-5E51-4681-B6E1-B23AA498B69E";
name = "9 Aug 23, 03:23";
shapes = (
{
closed = 1;
nodes = (
(63,233,o),
(147,158,o),
(271,158,cs),
(395,158,o),
(479,233,o),
(479,341,cs),
(479,449,o),
(395,524,o),
(271,524,cs),
(147,524,o),
(63,449,o),
(63,341,cs)
);
},
{
closed = 1;
nodes = (
(187,384,o),
(221,414,o),
(271,414,cs),
(321,414,o),
(355,384,o),
(355,341,cs),
(355,298,o),
(321,268,o),
(271,268,cs),
(221,268,o),
(187,298,o),
(187,341,cs)
);
},
{
closed = 1;
nodes = (
(509,509,l),
(509,610,l),
(504,612,o),
(488,613,o),
(470,613,cs),
(395,613,o),
(337,548,o),
(337,462,c),
(415,427,l),
(415,471,o),
(436,502,o),
(478,502,cs),
(488,502,o),
(497,501,o),
(504,499,c)
);
},
{
closed = 1;
nodes = (
(430,-200,o),
(516,-137,o),
(516,-39,cs),
(516,51,o),
(448,110,o),
(346,110,cs),
(228,110,ls),
(198,110,o),
(180,122,o),
(180,142,cs),
(180,161,o),
(202,175,o),
(239,181,c),
(153,232,l),
(87,209,o),
(50,171,o),
(50,119,cs),
(50,51,o),
(117,0,o),
(209,0,cs),
(327,0,ls),
(358,0,o),
(384,-14,o),
(384,-42,cs),
(384,-73,o),
(353,-90,o),
(296,-90,cs),
(225,-90,ls),
(170,-90,o),
(152,-58,o),
(152,-28,cs),
(152,-3,o),
(172,22,o),
(206,33,c),
(131,84,l),
(59,59,o),
(20,11,o),
(20,-51,cs),
(20,-144,o),
(105,-200,o),
(244,-200,cs),
(294,-200,ls)
);
}
);
width = 521;
},
{
associatedMasterId = "14EEE41F-D714-4243-A717-73445EE7DABA";
layerId = "7B6982BB-A9F7-4C22-8C7A-44188F422C2C";
name = "20 Oct 23, 14:03";
shapes = (
{
closed = 1;
nodes = (
(75,232,o),
(153,160,o),
(268,160,cs),
(383,160,o),
(461,232,o),
(461,336,cs),
(461,440,o),
(383,512,o),
(268,512,cs),
(153,512,o),
(75,440,o),
(75,336,cs)
);
},
{
closed = 1;
nodes = (
(149,399,o),
(197,442,o),
(268,442,cs),
(339,442,o),
(387,399,o),
(387,336,cs),
(387,273,o),
(339,230,o),
(268,230,cs),
(197,230,o),
(149,273,o),
(149,336,cs)
);
},
{
closed = 1;
nodes = (
(496,520,l),
(496,590,l),
(489,592,o),
(475,593,o),
(467,593,cs),
(400,593,o),
(348,537,o),
(348,462,c),
(398,427,l),
(398,477,o),
(421,512,o),
(467,512,cs),
(476,512,o),
(484,511,o),
(491,509,c)
);
},
{
closed = 1;
nodes = (
(420,-200,o),
(499,-142,o),
(499,-48,cs),
(499,34,o),
(437,90,o),
(338,90,cs),
(203,90,ls),
(161,90,o),
(135,105,o),
(135,134,cs),
(135,159,o),
(156,176,o),
(192,183,c),
(147,222,l),
(91,202,o),
(60,165,o),
(60,123,cs),
(60,61,o),
(123,20,o),
(199,20,cs),
(338,20,ls),
(393,20,o),
(423,-7,o),
(423,-47,cs),
(423,-101,o),
(373,-130,o),
(297,-130,cs),
(228,-130,ls),
(153,-130,o),
(106,-93,o),
(106,-41,cs),
(106,-8,o),
(126,20,o),
(160,33,c),
(121,74,l),
(62,50,o),
(30,4,o),
(30,-54,cs),
(30,-143,o),
(105,-200,o),
(234,-200,cs),
(297,-200,ls)
);
}
);
width = 504;
},
{
associatedMasterId = "14EEE41F-D714-4243-A717-73445EE7DABA";
layerId = "09C26726-4706-4086-BF7A-8FA4E70CBC0D";
name = "20 Oct 23, 14:32";
shapes = (
{
closed = 1;
nodes = (
(67,229,o),
(145,155,o),
(263,155,cs),
(382,155,o),
(460,229,o),
(460,333,cs),
(460,440,o),
(382,512,o),
(263,512,cs),
(145,512,o),
(67,440,o),
(67,333,cs)
);
},
{
closed = 1;
nodes = (
(141,397,o),
(190,442,o),
(263,442,cs),
(336,442,o),
(386,397,o),
(386,333,cs),
(386,269,o),
(336,225,o),
(263,225,cs),
(190,225,o),
(141,269,o),
(141,333,cs)
);
},
{
closed = 1;
nodes = (
(496,520,l),
(496,590,l),
(489,592,o),
(475,593,o),
(467,593,cs),
(400,593,o),
(348,537,o),
(348,462,c),
(398,427,l),
(398,477,o),
(421,512,o),
(467,512,cs),
(476,512,o),
(484,511,o),
(491,509,c)
);
},
{
closed = 1;
nodes = (
(425,-212,o),
(504,-154,o),
(504,-66,cs),
(504,24,o),
(444,78,o),
(338,78,cs),
(207,78,ls),
(167,78,o),
(148,98,o),
(148,119,cs),
(148,142,o),
(164,167,o),
(195,176,c),
(150,215,l),
(98,193,o),
(74,152,o),
(74,112,cs),
(74,59,o),
(119,8,o),
(203,8,cs),
(338,8,ls),
(401,8,o),
(430,-19,o),
(430,-67,cs),
(430,-113,o),
(379,-142,o),
(278,-142,cs),
(240,-142,ls),
(152,-142,o),
(108,-105,o),
(108,-61,cs),
(108,-20,o),
(124,8,o),
(150,21,c),
(111,62,l),
(61,37,o),
(34,-6,o),
(34,-69,cs),
(34,-156,o),
(108,-212,o),
(240,-212,cs),
(278,-212,ls)
);
}
);
width = 504;
},
{
anchors = (
{
name = bottom;
pos = (260,-200);
},
{
name = top;
pos = (263,500);
}
);
layerId = "14EEE41F-D714-4243-A717-73445EE7DABA";
name = Regular;
shapes = (
{
closed = 1;
nodes = (
(297,-200,ls),
(420,-200,o),
(499,-142,o),
(499,-49,cs),
(499,34,o),
(437,90,o),
(338,90,cs),
(203,90,ls),
(161,90,o),
(135,107,o),
(135,139,cs),
(135,162,o),
(148,183,o),
(184,190,c),
(139,229,l),
(83,210,o),
(60,172,o),
(60,131,cs),
(60,64,o),
(123,20,o),
(199,20,cs),
(338,20,ls),
(393,20,o),
(423,-7,o),
(423,-48,cs),
(423,-101,o),
(373,-130,o),
(297,-130,cs),
(228,-130,ls),
(153,-130,o),
(106,-93,o),
(106,-39,cs),
(106,-8,o),
(122,20,o),
(150,33,c),
(111,74,l),
(58,50,o),
(30,4,o),
(30,-52,cs),
(30,-143,o),
(105,-200,o),
(234,-200,cs)
);
},
{
closed = 1;
nodes = (
(385,152,o),
(465,226,o),
(465,332,cs),
(465,438,o),
(385,512,o),
(268,512,cs),
(151,512,o),
(71,438,o),
(71,332,cs),
(71,226,o),
(151,152,o),
(268,152,cs)
);
},
{
closed = 1;
nodes = (
(194,222,o),
(145,267,o),
(145,332,cs),
(145,397,o),
(194,442,o),
(268,442,cs),
(342,442,o),
(391,397,o),
(391,332,cs),
(391,267,o),
(342,222,o),
(268,222,cs)
);
},
{
closed = 1;
nodes = (
(402,490,o),
(425,525,o),
(472,525,cs),
(480,525,o),
(488,524,o),
(495,522,c),
(500,533,l),
(500,603,l),
(493,605,o),
(479,606,o),
(470,606,cs),
(404,606,o),
(352,550,o),
(352,475,c),
(402,440,l)
);
}
);
width = 504;
},
{
associatedMasterId = "14EEE41F-D714-4243-A717-73445EE7DABA";
layerId = "33955127-3C2F-44B1-94EF-D777BD755026";
name = "15 Dec 23, 03:07";
shapes = (
{
closed = 1;
nodes = (
(72,232,o),
(150,160,o),
(265,160,cs),
(380,160,o),
(458,232,o),
(458,336,cs),
(458,440,o),
(380,512,o),
(265,512,cs),
(150,512,o),
(72,440,o),
(72,336,cs)
);
},
{
closed = 1;
nodes = (
(146,399,o),
(194,442,o),
(265,442,cs),
(336,442,o),
(384,399,o),
(384,336,cs),
(384,273,o),
(336,230,o),
(265,230,cs),
(194,230,o),
(146,273,o),
(146,336,cs)
);
},
{
closed = 1;
nodes = (
(496,520,l),
(496,590,l),
(489,592,o),
(475,593,o),
(466,593,cs),
(400,593,o),
(348,537,o),
(348,462,c),
(398,427,l),
(398,477,o),
(421,512,o),
(468,512,cs),
(476,512,o),
(484,511,o),
(491,509,c)
);
},
{
closed = 1;
nodes = (
(420,-200,o),
(499,-142,o),
(499,-49,cs),
(499,34,o),
(437,90,o),
(338,90,cs),
(203,90,ls),
(161,90,o),
(135,107,o),
(135,139,cs),
(135,162,o),
(148,183,o),
(184,190,c),
(139,229,l),
(83,210,o),
(60,172,o),
(60,131,cs),
(60,64,o),
(123,20,o),
(199,20,cs),
(338,20,ls),
(393,20,o),
(423,-7,o),
(423,-48,cs),
(423,-101,o),
(373,-130,o),
(297,-130,cs),
(228,-130,ls),
(153,-130,o),
(106,-93,o),
(106,-39,cs),
(106,-8,o),
(122,20,o),
(150,33,c),
(111,74,l),
(58,50,o),
(30,4,o),
(30,-52,cs),
(30,-143,o),
(105,-200,o),
(234,-200,cs),
(297,-200,ls)
);
}
);
width = 504;
},
{
associatedMasterId = "3114FB65-9464-41A5-B67E-A8F9F43C0EF1";
layerId = "7E903034-7ED7-44B4-A660-B75CBAB7F6DB";
name = "29 Jan 24, 01:53";
shapes = (
{
closed = 1;
nodes = (
(81,240,o),
(154,175,o),
(261,175,cs),
(368,175,o),
(440,241,o),
(440,337,cs),
(440,434,o),
(368,500,o),
(261,500,cs),
(153,500,o),
(81,434,o),
(81,337,cs)
);
},
{
closed = 1;
nodes = (
(111,417,o),
(172,472,o),
(261,472,cs),
(349,472,o),
(410,417,o),
(410,337,cs),
(410,258,o),
(349,203,o),
(261,203,cs),
(172,203,o),
(111,258,o),
(111,337,cs)
);
},
{
closed = 1;
nodes = (
(480,556,l),
(480,578,l),
(475,580,o),
(463,581,o),
(451,581,cs),
(398,581,o),
(357,530,o),
(357,474,c),
(380,458,l),
(380,509,o),
(406,549,o),
(452,549,cs),
(461,549,o),
(469,548,o),
(476,546,c)
);
},
{
closed = 1;
nodes = (
(401,-200,o),
(471,-146,o),
(471,-61,cs),
(471,13,o),
(412,64,o),
(326,64,cs),
(192,64,ls),
(133,64,o),
(100,87,o),
(100,127,cs),
(100,162,o),
(136,187,o),
(181,192,c),
(151,211,l),
(103,200,o),
(70,169,o),
(70,124,cs),
(70,73,o),
(115,36,o),
(188,36,cs),
(323,36,ls),
(391,36,o),
(441,0,o),
(441,-60,cs),
(441,-131,o),
(383,-172,o),
(290,-172,cs),
(227,-172,ls),
(127,-172,o),
(70,-128,o),
(70,-56,cs),
(70,-12,o),
(99,36,o),
(153,50,c),
(119,65,l),
(76,46,o),
(40,2,o),
(40,-61,cs),
(40,-143,o),
(111,-200,o),
(227,-200,cs),
(290,-200,ls)
);
}
);
width = 493;
}
);
unicode = 103;
},
{
color = 5;
glyphname = g.ss03;
kernLeft = o;
layers = (
{
anchors = (
{
name = bottom;
pos = (308,-200);
},
{
name = top;
pos = (308,508);
}
);
layerId = "090CB6A0-BE7C-4D17-A551-206C7456A8A3";
shapes = (
{
closed = 1;
nodes = (
(465,-216,o),
(566,-119,o),
(566,41,cs),
(566,508,l),
(441,508,l),
(441,367,l),
(471,264,l),
(431,161,l),
(431,18,ls),
(431,-46,o),
(376,-96,o),
(303,-96,cs),
(227,-96,o),
(192,-57,o),
(185,-20,c),
(174,-20,l),
(48,-44,l),
(68,-135,o),
(154,-216,o),
(303,-216,cs)
);
},
{
closed = 1;
nodes = (
(392,4,o),
(471,86,o),
(492,165,c),
(492,365,l),
(471,443,o),
(392,524,o),
(276,524,cs),
(137,524,o),
(30,413,o),
(30,265,cs),
(30,116,o),
(142,4,o),
(276,4,cs)
);
},
{
closed = 1;
nodes = (
(219,124,o),
(165,185,o),
(165,264,cs),
(165,343,o),
(219,404,o),
(300,404,cs),
(381,404,o),
(435,343,o),
(435,264,cs),
(435,185,o),
(381,124,o),
(300,124,cs)
);
}
);
width = 616;
},
{
anchors = (
{
name = bottom;
pos = (293,-200);
},
{
name = top;
pos = (293,492);
}
);
layerId = "3114FB65-9464-41A5-B67E-A8F9F43C0EF1";
shapes = (
{
closed = 1;
nodes = (
(436,-208,o),
(516,-111,o),
(516,35,cs),
(516,492,l),
(486,492,l),
(486,327,l),
(500,256,l),
(486,185,l),
(486,30,ls),
(486,-89,o),
(423,-180,o),
(296,-180,cs),
(201,-180,o),
(146,-130,o),
(118,-62,c),
(107,-62,l),
(88,-69,l),
(119,-151,o),
(188,-208,o),
(296,-208,cs)
);
},
{
closed = 1;
nodes = (
(400,12,o),
(483,86,o),
(507,201,c),
(507,311,l),
(483,426,o),
(400,500,o),
(284,500,cs),
(148,500,o),
(50,397,o),
(50,256,cs),
(50,115,o),
(148,12,o),
(284,12,cs)
);
},
{
closed = 1;
nodes = (
(165,40,o),
(80,131,o),
(80,256,cs),
(80,381,o),
(165,472,o),
(284,472,cs),
(403,472,o),
(488,381,o),
(488,256,cs),
(488,131,o),
(403,40,o),
(284,40,cs)
);
}
);
width = 586;
},
{
associatedMasterId = "14EEE41F-D714-4243-A717-73445EE7DABA";
layerId = "0B6E7DE5-DA1C-4096-89CE-C44B856DC97C";
name = "9 Aug 23, 00:59";
shapes = (
{
closed = 1;
nodes = (
(139,512,o),
(40,406,o),
(40,260,cs),
(40,114,o),
(139,8,o),
(280,8,cs),
(378,8,o),
(459,73,o),
(490,172,c),
(490,348,l),
(459,447,o),
(378,512,o),
(280,512,cs)
);
},
{
closed = 1;
nodes = (
(383,437,o),
(452,361,o),
(452,260,cs),
(452,159,o),
(383,83,o),
(286,83,cs),
(189,83,o),
(120,159,o),
(120,260,cs),
(120,361,o),
(189,437,o),
(286,437,cs)
);
},
{
closed = 1;
nodes = (
(453,323,l),
(465,260,l),
(451,197,l),
(451,73,l),
(526,73,l),
(526,500,l),
(453,500,l)
);
},
{
closed = 1;
nodes = (
(59,-65,l),
(89,-151,o),
(164,-212,o),
(282,-212,cs),
(437,-212,o),
(526,-108,o),
(526,34,cs),
(526,73,l),
(451,73,l),
(451,21,ls),
(451,-73,o),
(383,-142,o),
(281,-142,cs),
(200,-142,o),
(153,-98,o),
(136,-41,c),
(125,-41,l)
);
}
);
width = 586;
},
{
anchors = (
{
name = bottom;
pos = (293,-200);
},
{
name = top;
pos = (293,500);
}
);
layerId = "14EEE41F-D714-4243-A717-73445EE7DABA";
name = Regular;
shapes = (
{
closed = 1;
nodes = (
(440,-212,o),
(526,-101,o),
(526,48,cs),
(526,500,l),
(453,500,l),
(453,323,l),
(465,260,l),
(451,197,l),
(451,30,ls),
(451,-72,o),
(386,-142,o),
(288,-142,cs),
(211,-142,o),
(153,-98,o),
(136,-41,c),
(125,-41,l),
(59,-65,l),
(88,-151,o),
(166,-212,o),
(286,-212,cs)
);
},
{
closed = 1;
nodes = (
(378,6,o),
(460,69,o),
(490,164,c),
(490,354,l),
(460,449,o),
(378,512,o),
(276,512,cs),
(143,512,o),
(40,406,o),
(40,259,cs),
(40,112,o),
(143,6,o),
(276,6,cs)
);
},
{
closed = 1;
nodes = (
(184,79,o),
(115,152,o),
(115,259,cs),
(115,366,o),
(184,439,o),
(279,439,cs),
(378,439,o),
(451,366,o),
(451,259,cs),
(451,152,o),
(378,79,o),
(279,79,cs)
);
}
);
width = 586;
},
{
associatedMasterId = "14EEE41F-D714-4243-A717-73445EE7DABA";
layerId = "C29396ED-94A6-48A6-9F09-1742D463531B";
name = "9 Aug 23, 00:59";
shapes = (
{
closed = 1;
nodes = (
(139,512,o),
(40,406,o),
(40,260,cs),
(40,114,o),
(139,8,o),
(280,8,cs),
(378,8,o),
(459,73,o),
(490,172,c),
(490,348,l),
(459,447,o),
(378,512,o),
(280,512,cs)
);
},
{
closed = 1;
nodes = (
(383,437,o),
(452,361,o),
(452,260,cs),
(452,159,o),
(383,83,o),
(286,83,cs),
(189,83,o),
(120,159,o),
(120,260,cs),
(120,361,o),
(189,437,o),
(286,437,cs)
);
},
{
closed = 1;
nodes = (
(453,323,l),
(465,260,l),
(451,197,l),
(451,73,l),
(526,73,l),
(526,500,l),
(453,500,l)
);
},
{
closed = 1;
nodes = (
(59,-65,l),
(89,-151,o),
(164,-212,o),
(292,-212,cs),
(437,-212,o),
(526,-102,o),
(526,49,cs),
(526,73,l),
(451,73,l),
(451,27,ls),
(451,-71,o),
(381,-142,o),
(291,-142,cs),
(200,-142,o),
(153,-98,o),
(136,-41,c),
(125,-41,l)
);
}
);
width = 586;
},
{
associatedMasterId = "3114FB65-9464-41A5-B67E-A8F9F43C0EF1";
layerId = "9C33BF9F-3B58-480B-8D01-B519DE219E1D";
name = "9 Aug 23, 01:00";
shapes = (
{
closed = 1;
nodes = (
(148,500,o),
(50,397,o),
(50,256,cs),
(50,115,o),
(148,12,o),
(285,12,cs),
(400,12,o),
(483,86,o),
(507,201,c),
(507,311,l),
(483,426,o),
(400,500,o),
(285,500,cs)
);
},
{
closed = 1;
nodes = (
(403,470,o),
(488,380,o),
(488,256,cs),
(488,132,o),
(403,42,o),
(285,42,cs),
(167,42,o),
(82,132,o),
(82,256,cs),
(82,380,o),
(167,470,o),
(285,470,cs)
);
},
{
closed = 1;
nodes = (
(486,327,l),
(500,256,l),
(486,185,l),
(486,73,l),
(516,73,l),
(516,492,l),
(486,492,l)
);
},
{
closed = 1;
nodes = (
(88,-69,l),
(119,-151,o),
(187,-208,o),
(302,-208,cs),
(435,-208,o),
(516,-101,o),
(516,35,cs),
(516,73,l),
(486,73,l),
(486,30,ls),
(486,-80,o),
(419,-178,o),
(301,-178,cs),
(201,-178,o),
(148,-129,o),
(120,-62,c),
(109,-62,l)
);
}
);
width = 586;
},
{
associatedMasterId = "14EEE41F-D714-4243-A717-73445EE7DABA";
layerId = "C2C3A7DD-5496-43B1-88A9-A997CB40B802";
name = "18 Oct 23, 02:38";
shapes = (
{
closed = 1;
nodes = (
(440,-212,o),
(526,-101,o),
(526,48,cs),
(526,500,l),
(453,500,l),
(453,323,l),
(465,260,l),
(451,197,l),
(451,30,ls),
(451,-72,o),
(386,-142,o),
(288,-142,cs),
(211,-142,o),
(153,-98,o),
(136,-41,c),
(125,-41,l),
(59,-65,l),
(88,-151,o),
(166,-212,o),
(286,-212,cs)
);
},
{
closed = 1;
nodes = (
(378,6,o),
(459,69,o),
(490,164,c),
(490,354,l),
(459,449,o),
(378,512,o),
(280,512,cs),
(145,512,o),
(40,406,o),
(40,259,cs),
(40,112,o),
(145,6,o),
(280,6,cs)
);
},
{
closed = 1;
nodes = (
(186,79,o),
(115,152,o),
(115,259,cs),
(115,366,o),
(186,439,o),
(283,439,cs),
(380,439,o),
(451,366,o),
(451,259,cs),
(451,152,o),
(380,79,o),
(283,79,cs)
);
}
);
width = 586;
}
);
metricLeft = o;
metricRight = q;
},
{
color = 5;
glyphname = g.ss04;
layers = (
{
anchors = (
{
name = bottom;
pos = (293,-200);
},
{
name = top;
pos = (293,500);
}
);
layerId = "14EEE41F-D714-4243-A717-73445EE7DABA";
shapes = (
{
closed = 1;
nodes = (
(363,-200,ls),
(458,-200,o),
(526,-134,o),
(526,-30,cs),
(526,500,l),
(453,500,l),
(453,323,l),
(465,260,l),
(451,197,l),
(451,-24,ls),
(451,-100,o),
(422,-127,o),
(348,-127,cs),
(121,-127,l),
(116,-138,l),
(116,-200,l)
);
},
{
closed = 1;
nodes = (
(378,-12,o),
(460,53,o),
(490,152,c),
(490,348,l),
(460,447,o),
(378,512,o),
(276,512,cs),
(143,512,o),
(40,402,o),
(40,250,cs),
(40,98,o),
(143,-12,o),
(276,-12,cs)
);
},
{
closed = 1;
nodes = (
(184,61,o),
(115,138,o),
(115,250,cs),
(115,362,o),
(184,439,o),
(279,439,cs),
(378,439,o),
(451,362,o),
(451,250,cs),
(451,138,o),
(378,61,o),
(279,61,cs)
);
}
);
width = 586;
},
{
anchors = (
{
name = bottom;
pos = (293,-200);
},
{
name = top;
pos = (293,492);
}
);
layerId = "3114FB65-9464-41A5-B67E-A8F9F43C0EF1";
shapes = (
{
closed = 1;
nodes = (
(377,-200,ls),
(461,-200,o),
(516,-162,o),
(516,-57,cs),
(516,492,l),
(486,492,l),
(486,327,l),
(500,246,l),
(486,165,l),
(486,-56,ls),
(486,-142,o),
(449,-172,o),
(377,-172,cs),
(128,-172,l),
(124,-182,l),
(124,-200,l)
);
},
{
closed = 1;
nodes = (
(400,-8,o),
(483,66,o),
(507,181,c),
(507,311,l),
(483,426,o),
(400,500,o),
(284,500,cs),
(148,500,o),
(50,397,o),
(50,246,cs),
(50,95,o),
(148,-8,o),
(284,-8,cs)
);
},
{
closed = 1;
nodes = (
(165,20,o),
(80,111,o),
(80,246,cs),
(80,381,o),
(165,472,o),
(284,472,cs),
(403,472,o),
(488,381,o),
(488,246,cs),
(488,111,o),
(403,20,o),
(284,20,cs)
);
}
);
width = 586;
},
{
anchors = (
{
name = bottom;
pos = (308,-200);
},
{
name = top;
pos = (308,508);
}
);
layerId = "090CB6A0-BE7C-4D17-A551-206C7456A8A3";
shapes = (
{
closed = 1;
nodes = (
(394,-200,ls),
(499,-200,o),
(566,-129,o),
(566,-16,cs),
(566,508,l),
(431,508,l),
(431,367,l),
(471,254,l),
(441,141,l),
(441,0,ls),
(441,-50,o),
(413,-81,o),
(359,-81,cs),
(106,-81,l),
(101,-92,l),
(101,-200,l)
);
},
{
closed = 1;
nodes = (
(392,-16,o),
(471,65,o),
(492,143,c),
(492,363,l),
(471,442,o),
(392,524,o),
(276,524,cs),
(137,524,o),
(30,412,o),
(30,253,cs),
(30,95,o),
(137,-16,o),
(276,-16,cs)
);
},
{
closed = 1;
nodes = (
(219,104,o),
(165,165,o),
(165,254,cs),
(165,343,o),
(219,404,o),
(300,404,cs),
(381,404,o),
(435,343,o),
(435,254,cs),
(435,165,o),
(381,104,o),
(300,104,cs)
);
}
);
width = 616;
}
);
metricLeft = o;
metricWidth = g.ss03;
},
{
color = 5;
glyphname = h;
kernLeft = l;
kernRight = n;
layers = (
{
anchors = (
{
name = bottom;
pos = (260,0);
},
{
name = center;
pos = (120,586);
},
{
name = top;
pos = (260,720);
}
);
background = {
shapes = (
{
pos = (591,0);
ref = d;
scale = (-1,1);
}
);
};
layerId = "3114FB65-9464-41A5-B67E-A8F9F43C0EF1";
shapes = (
{
closed = 1;
nodes = (
(100,0,l),
(100,293,ls),
(100,404,o),
(183,472,o),
(274,472,cs),
(371,472,o),
(429,418,o),
(429,300,cs),
(429,0,l),
(459,0,l),
(459,304,ls),
(459,430,o),
(389,500,o),
(279,500,cs),
(199,500,o),
(115,457,o),
(85,365,c),
(100,368,l),
(100,716,l),
(97,724,l),
(70,720,l),
(70,0,l)
);
}
);
width = 519;
},
{
anchors = (
{
name = bottom;
pos = (278,0);
},
{
name = center;
pos = (136,605);
},
{
name = top;
pos = (278,720);
}
);
background = {
shapes = (
{
pos = (586,0);
ref = d;
scale = (-1,1);
}
);
};
layerId = "14EEE41F-D714-4243-A717-73445EE7DABA";
shapes = (
{
closed = 1;
nodes = (
(135,0,l),
(135,270,ls),
(135,375,o),
(211,438,o),
(294,438,cs),
(365,438,o),
(421,405,o),
(421,292,cs),
(421,0,l),
(496,0,l),
(496,309,ls),
(496,442,o),
(419,512,o),
(311,512,cs),
(219,512,o),
(137,458,o),
(111,374,c),
(135,355,l),
(135,721,l),
(132,729,l),
(60,720,l),
(60,0,l)
);
}
);
width = 556;
},
{
anchors = (
{
name = bottom;
pos = (292,0);
},
{
name = center;
pos = (155,605);
},
{
name = top;
pos = (292,720);
}
);
background = {
shapes = (
{
pos = (616,0);
ref = d;
scale = (-1,1);
}
);
};
layerId = "090CB6A0-BE7C-4D17-A551-206C7456A8A3";
shapes = (
{
closed = 1;
nodes = (
(185,0,l),
(185,247,ls),
(185,374,o),
(262,404,o),
(310,404,cs),
(372,404,o),
(408,358,o),
(408,273,cs),
(408,0,l),
(543,0,l),
(543,316,ls),
(543,453,o),
(454,524,o),
(347,524,cs),
(252,524,o),
(177,470,o),
(142,380,c),
(185,387,l),
(185,728,l),
(182,736,l),
(50,720,l),
(50,0,l)
);
}
);
width = 583;
}
);
metricLeft = l;
metricRight = n;
unicode = 104;
},
{
color = 5;
glyphname = hbar;
kernLeft = l;
kernRight = n;
layers = (
{
layerId = "3114FB65-9464-41A5-B67E-A8F9F43C0EF1";
shapes = (
{
ref = h;
},
{
pos = (-67,236);
ref = strokeshortcomb;
}
);
width = 519;
},
{
layerId = "14EEE41F-D714-4243-A717-73445EE7DABA";
shapes = (
{
ref = h;
},
{
pos = (-42,254);
ref = strokeshortcomb;
}
);
width = 556;
},
{
layerId = "090CB6A0-BE7C-4D17-A551-206C7456A8A3";
shapes = (
{
ref = h;
},
{
pos = (-32,255);
ref = strokeshortcomb;
}
);
width = 583;
},
{
associatedMasterId = "14EEE41F-D714-4243-A717-73445EE7DABA";
layerId = "5EE12F17-F676-43E1-B295-37266BFF7E72";
name = "29 Jan 24, 16:40";
shapes = (
{
ref = h;
},
{
closed = 1;
nodes = (
(-11,642,l),
(-11,569,l),
(285,569,l),
(285,642,l)
);
}
);
width = 556;
}
);
metricLeft = "=|dcroat";
metricRight = h;
unicode = 295;
},
{
color = 5;
glyphname = idotless;
kernLeft = n;
layers = (
{
anchors = (
{
name = bottom;
pos = (91,0);
},
{
name = ogonek;
pos = (106,0);
},
{
name = top;
pos = (91,492);
}
);
layerId = "3114FB65-9464-41A5-B67E-A8F9F43C0EF1";
shapes = (
{
closed = 1;
nodes = (
(106,0,l),
(106,492,l),
(76,492,l),
(76,0,l)
);
}
);
width = 182;
},
{
anchors = (
{
name = bottom;
pos = (104,0);
},
{
name = ogonek;
pos = (141,0);
},
{
name = top;
pos = (104,500);
}
);
layerId = "14EEE41F-D714-4243-A717-73445EE7DABA";
shapes = (
{
closed = 1;
nodes = (
(141,0,l),
(141,500,l),
(66,500,l),
(66,0,l)
);
}
);
width = 207;
},
{
anchors = (
{
name = bottom;
pos = (118,0);
},
{
name = ogonek;
pos = (185,0);
},
{
name = top;
pos = (118,508);
}
);
layerId = "090CB6A0-BE7C-4D17-A551-206C7456A8A3";
shapes = (
{
closed = 1;
nodes = (
(185,0,l),
(185,508,l),
(50,508,l),
(50,0,l)
);
}
);
width = 235;
}
);
unicode = 305;
},
{
color = 5;
glyphname = j;
kernLeft = j;
layers = (
{
layerId = "3114FB65-9464-41A5-B67E-A8F9F43C0EF1";
shapes = (
{
ref = jdotless;
},
{
pos = (42,0);
ref = dotaccentcomb.i;
}
);
width = 182;
},
{
layerId = "14EEE41F-D714-4243-A717-73445EE7DABA";
shapes = (
{
ref = jdotless;
},
{
pos = (19,0);
ref = dotaccentcomb.i;
}
);
width = 207;
},
{
layerId = "090CB6A0-BE7C-4D17-A551-206C7456A8A3";
shapes = (
{
ref = jdotless;
},
{
pos = (14,0);
ref = dotaccentcomb.i;
}
);
width = 235;
},
{
associatedMasterId = "14EEE41F-D714-4243-A717-73445EE7DABA";
layerId = "7377E262-FA53-4709-B0EA-C2CF68F0FD32";
name = "12 Aug 23, 00:58";
shapes = (
{
closed = 1;
nodes = (
(65,23,ls),
(65,-96,o),
(31,-137,o),
(-52,-137,c),
(-52,-212,l),
(89,-212,o),
(140,-120,o),
(140,23,cs),
(140,500,l),
(65,500,l)
);
},
{
closed = 1;
nodes = (
(133,614,o),
(156,637,o),
(156,667,cs),
(156,697,o),
(133,720,o),
(103,720,cs),
(73,720,o),
(50,697,o),
(50,667,cs),
(50,637,o),
(73,614,o),
(103,614,cs)
);
}
);
width = 206;
}
);
metricRight = i;
metricWidth = i;
unicode = 106;
},
{
color = 5;
glyphname = jdotless;
layers = (
{
anchors = (
{
name = bottom;
pos = (91,-200);
},
{
name = top;
pos = (91,492);
}
);
layerId = "3114FB65-9464-41A5-B67E-A8F9F43C0EF1";
shapes = (
{
closed = 1;
nodes = (
(-33,-200,ls),
(51,-200,o),
(106,-162,o),
(106,-57,cs),
(106,492,l),
(76,492,l),
(76,-56,ls),
(76,-142,o),
(39,-172,o),
(-33,-172,cs),
(-47,-172,l),
(-51,-182,l),
(-51,-200,l)
);
}
);
width = 182;
},
{
anchors = (
{
name = bottom;
pos = (104,-200);
},
{
name = top;
pos = (104,500);
}
);
layerId = "14EEE41F-D714-4243-A717-73445EE7DABA";
shapes = (
{
closed = 1;
nodes = (
(-22,-200,ls),
(73,-200,o),
(141,-134,o),
(141,-30,cs),
(141,500,l),
(66,500,l),
(66,-24,ls),
(66,-100,o),
(37,-127,o),
(-37,-127,cs),
(-58,-127,l),
(-63,-138,l),
(-63,-200,l)
);
}
);
width = 207;
},
{
anchors = (
{
name = bottom;
pos = (118,-200);
},
{
name = top;
pos = (118,508);
}
);
layerId = "090CB6A0-BE7C-4D17-A551-206C7456A8A3";
shapes = (
{
closed = 1;
nodes = (
(13,-200,ls),
(118,-200,o),
(185,-129,o),
(185,-16,cs),
(185,508,l),
(50,508,l),
(50,-10,ls),
(50,-59,o),
(28,-81,o),
(-21,-81,cs),
(-53,-81,l),
(-58,-92,l),
(-58,-200,l)
);
}
);
width = 235;
}
);
metricRight = idotless;
metricWidth = idotless;
unicode = 567;
},
{
color = 5;
glyphname = k;
kernLeft = l;
kernRight = k;
layers = (
{
anchors = (
{
name = bottom;
pos = (245,0);
},
{
name = top;
pos = (245,720);
}
);
layerId = "3114FB65-9464-41A5-B67E-A8F9F43C0EF1";
shapes = (
{
closed = 1;
nodes = (
(447,484,l),
(447,492,l),
(414,492,l),
(84,178,l),
(84,138,l)
);
},
{
closed = 1;
nodes = (
(100,0,l),
(100,716,l),
(97,724,l),
(70,720,l),
(70,0,l)
);
},
{
closed = 1;
nodes = (
(449,0,l),
(449,8,l),
(232,301,l),
(212,280,l),
(419,0,l)
);
}
);
width = 459;
},
{
anchors = (
{
name = bottom;
pos = (268,0);
},
{
name = top;
pos = (246,720);
}
);
layerId = "14EEE41F-D714-4243-A717-73445EE7DABA";
shapes = (
{
closed = 1;
nodes = (
(487,492,l),
(487,500,l),
(398,500,l),
(90,202,l),
(90,103,l)
);
},
{
closed = 1;
nodes = (
(135,0,l),
(135,721,l),
(132,729,l),
(60,720,l),
(60,0,l)
);
},
{
closed = 1;
nodes = (
(487,0,l),
(487,8,l),
(268,311,l),
(219,261,l),
(404,0,l)
);
}
);
width = 492;
},
{
anchors = (
{
name = bottom;
pos = (264,0);
},
{
name = top;
pos = (264,720);
}
);
layerId = "090CB6A0-BE7C-4D17-A551-206C7456A8A3";
shapes = (
{
closed = 1;
nodes = (
(535,500,l),
(535,508,l),
(366,508,l),
(137,261,l),
(137,80,l)
);
},
{
closed = 1;
nodes = (
(185,0,l),
(185,728,l),
(182,736,l),
(50,720,l),
(50,0,l)
);
},
{
closed = 1;
nodes = (
(538,0,l),
(538,8,l),
(315,334,l),
(219,250,l),
(387,0,l)
);
}
);
width = 528;
},
{
associatedMasterId = "14EEE41F-D714-4243-A717-73445EE7DABA";
background = {
shapes = (
{
closed = 1;
nodes = (
(60,0,l),
(135,0,l),
(135,160,l),
(208,233,l),
(374,0,l),
(461,0,l),
(260,284,l),
(461,484,l),
(363,484,l),
(135,257,l),
(135,720,l),
(60,720,l)
);
}
);
};
layerId = "C7B89D04-737B-4C60-8912-C282831F6DB5";
name = "18 Oct 23, 01:00";
shapes = (
{
closed = 1;
nodes = (
(364,500,l),
(111,236,l),
(111,137,l),
(460,500,l)
);
},
{
closed = 1;
nodes = (
(135,0,l),
(135,721,l),
(132,729,l),
(60,720,l),
(60,0,l)
);
},
{
closed = 1;
nodes = (
(461,0,l),
(236,311,l),
(187,261,l),
(372,0,l)
);
}
);
width = 466;
},
{
associatedMasterId = "14EEE41F-D714-4243-A717-73445EE7DABA";
layerId = "A6E489F8-CBCD-4061-B3C7-41C7CBA98EE7";
name = "18 Oct 23, 01:32";
shapes = (
{
closed = 1;
nodes = (
(487,500,l),
(399,500,l),
(90,202,l),
(90,103,l),
(487,491,l)
);
},
{
closed = 1;
nodes = (
(135,0,l),
(135,721,l),
(132,729,l),
(60,720,l),
(60,0,l)
);
},
{
closed = 1;
nodes = (
(487,9,l),
(268,311,l),
(219,261,l),
(404,0,l),
(487,0,l)
);
}
);
width = 492;
}
);
metricLeft = h;
unicode = 107;
},
{
color = 5;
glyphname = l;
kernLeft = l;
kernRight = l;
layers = (
{
anchors = (
{
name = bottom;
pos = (85,0);
},
{
name = center;
pos = (85,350);
},
{
name = top;
pos = (187,492);
},
{
name = topright;
pos = (150,720);
}
);
layerId = "3114FB65-9464-41A5-B67E-A8F9F43C0EF1";
shapes = (
{
closed = 1;
nodes = (
(100,0,l),
(100,716,l),
(97,724,l),
(70,720,l),
(70,0,l)
);
}
);
width = 170;
},
{
anchors = (
{
name = bottom;
pos = (98,0);
},
{
name = center;
pos = (98,350);
},
{
name = top;
pos = (222,500);
},
{
name = topright;
pos = (175,720);
}
);
layerId = "14EEE41F-D714-4243-A717-73445EE7DABA";
shapes = (
{
closed = 1;
nodes = (
(135,0,l),
(135,721,l),
(132,729,l),
(60,720,l),
(60,0,l)
);
}
);
width = 195;
},
{
anchors = (
{
name = bottom;
pos = (118,0);
},
{
name = center;
pos = (118,350);
},
{
name = top;
pos = (271,508);
},
{
name = topright;
pos = (215,720);
}
);
layerId = "090CB6A0-BE7C-4D17-A551-206C7456A8A3";
shapes = (
{
closed = 1;
nodes = (
(185,0,l),
(185,728,l),
(182,736,l),
(50,720,l),
(50,0,l)
);
}
);
width = 235;
}
);
unicode = 108;
},
{
color = 5;
glyphname = l.ss04;
layers = (
{
anchors = (
{
name = bottom;
pos = (135,0);
},
{
name = center;
pos = (98,350);
},
{
name = top;
pos = (222,500);
},
{
name = topright;
pos = (175,720);
}
);
layerId = "14EEE41F-D714-4243-A717-73445EE7DABA";
shapes = (
{
closed = 1;
nodes = (
(60,57,o),
(107,0,o),
(181,0,cs),
(199,0,l),
(199,62,l),
(194,73,l),
(153,73,o),
(135,94,o),
(135,145,cs),
(135,721,l),
(132,729,l),
(60,720,l),
(60,145,ls)
);
}
);
width = 195;
},
{
anchors = (
{
name = bottom;
pos = (115,0);
},
{
name = center;
pos = (85,350);
},
{
name = top;
pos = (187,492);
},
{
name = topright;
pos = (150,720);
}
);
layerId = "3114FB65-9464-41A5-B67E-A8F9F43C0EF1";
shapes = (
{
closed = 1;
nodes = (
(70,40,o),
(107,0,o),
(174,0,cs),
(178,0,l),
(178,18,l),
(174,28,l),
(123,28,o),
(100,58,o),
(100,133,cs),
(100,716,l),
(97,724,l),
(70,720,l),
(70,121,ls)
);
}
);
width = 170;
},
{
anchors = (
{
name = bottom;
pos = (151,0);
},
{
name = center;
pos = (118,350);
},
{
name = top;
pos = (272,508);
},
{
name = topright;
pos = (215,720);
}
);
layerId = "090CB6A0-BE7C-4D17-A551-206C7456A8A3";
shapes = (
{
closed = 1;
nodes = (
(50,59,o),
(123,0,o),
(215,0,cs),
(239,0,l),
(239,108,l),
(234,119,l),
(204,119,o),
(185,144,o),
(185,184,cs),
(185,728,l),
(182,736,l),
(50,720,l),
(50,159,ls)
);
}
);
width = 235;
},
{
associatedMasterId = "14EEE41F-D714-4243-A717-73445EE7DABA";
layerId = "E9544435-740C-4641-87A5-885B94C8A7BF";
name = "12 Aug 23, 00:55";
shapes = (
{
closed = 1;
nodes = (
(60,57,o),
(107,0,o),
(181,0,cs),
(199,0,l),
(199,62,l),
(194,73,l),
(153,73,o),
(135,94,o),
(135,145,cs),
(135,721,l),
(132,729,l),
(60,720,l),
(60,145,ls)
);
}
);
width = 195;
}
);
metricWidth = l;
},
{
color = 5;
glyphname = lslash;
kernLeft = l;
kernRight = l;
layers = (
{
layerId = "3114FB65-9464-41A5-B67E-A8F9F43C0EF1";
shapes = (
{
closed = 1;
nodes = (
(190,401,l),
(190,436,l),
(-20,299,l),
(-20,264,l)
);
},
{
ref = l;
}
);
width = 170;
},
{
layerId = "14EEE41F-D714-4243-A717-73445EE7DABA";
shapes = (
{
closed = 1;
nodes = (
(208,376,l),
(208,462,l),
(-13,324,l),
(-13,238,l)
);
},
{
ref = l;
}
);
width = 195;
},
{
layerId = "090CB6A0-BE7C-4D17-A551-206C7456A8A3";
shapes = (
{
closed = 1;
nodes = (
(255,367,l),
(255,504,l),
(-20,333,l),
(-20,196,l)
);
},
{
ref = l;
}
);
width = 235;
}
);
metricWidth = l;
unicode = 322;
},
{
color = 5;
glyphname = lslash.ss04;
kernLeft = l;
kernRight = l;
layers = (
{
layerId = "3114FB65-9464-41A5-B67E-A8F9F43C0EF1";
shapes = (
{
ref = l.ss04;
},
{
closed = 1;
nodes = (
(190,401,l),
(190,436,l),
(-20,299,l),
(-20,264,l)
);
}
);
width = 170;
},
{
layerId = "14EEE41F-D714-4243-A717-73445EE7DABA";
shapes = (
{
ref = l.ss04;
},
{
closed = 1;
nodes = (
(208,376,l),
(208,462,l),
(-13,324,l),
(-13,238,l)
);
}
);
width = 195;
},
{
layerId = "090CB6A0-BE7C-4D17-A551-206C7456A8A3";
shapes = (
{
ref = l.ss04;
},
{
closed = 1;
nodes = (
(255,367,l),
(255,504,l),
(-20,333,l),
(-20,196,l)
);
}
);
width = 235;
}
);
metricWidth = l;
},
{
color = 5;
glyphname = m;
kernLeft = n;
kernRight = n;
layers = (
{
background = {
shapes = (
{
alignment = -1;
pos = (349,0);
ref = n;
},
{
alignment = -1;
ref = n;
}
);
};
guides = (
{
pos = (156,400);
}
);
layerId = "3114FB65-9464-41A5-B67E-A8F9F43C0EF1";
shapes = (
{
closed = 1;
nodes = (
(100,0,l),
(100,293,ls),
(100,406,o),
(184,472,o),
(264,472,cs),
(351,472,o),
(409,418,o),
(409,300,cs),
(409,0,l),
(439,0,l),
(439,293,ls),
(439,406,o),
(523,472,o),
(603,472,cs),
(690,472,o),
(748,418,o),
(748,300,cs),
(748,0,l),
(778,0,l),
(778,304,ls),
(778,430,o),
(708,500,o),
(608,500,cs),
(533,500,o),
(445,452,o),
(419,351,c),
(436,351,l),
(422,443,o),
(357,500,o),
(269,500,cs),
(199,500,o),
(116,458,o),
(86,369,c),
(100,355,l),
(100,492,l),
(70,492,l),
(70,0,l)
);
}
);
width = 838;
},
{
background = {
shapes = (
{
pos = (351,0);
ref = n;
},
{
pos = (10,0);
ref = n;
}
);
};
guides = (
{
pos = (166,421);
}
);
layerId = "14EEE41F-D714-4243-A717-73445EE7DABA";
shapes = (
{
closed = 1;
nodes = (
(145,0,l),
(145,270,ls),
(145,377,o),
(226,438,o),
(299,438,cs),
(365,438,o),
(421,405,o),
(421,292,cs),
(421,0,l),
(496,0,l),
(496,270,ls),
(496,380,o),
(577,438,o),
(650,438,cs),
(716,438,o),
(772,405,o),
(772,292,cs),
(772,0,l),
(847,0,l),
(847,309,ls),
(847,442,o),
(770,512,o),
(667,512,cs),
(564,512,o),
(481,453,o),
(457,366,c),
(491,366,l),
(472,461,o),
(404,512,o),
(316,512,cs),
(232,512,o),
(146,458,o),
(121,374,c),
(143,355,l),
(143,500,l),
(70,500,l),
(70,0,l)
);
}
);
width = 907;
},
{
background = {
shapes = (
{
alignment = -1;
pos = (348,0);
ref = n;
},
{
alignment = -1;
ref = n;
}
);
};
guides = (
{
pos = (221,441);
}
);
layerId = "090CB6A0-BE7C-4D17-A551-206C7456A8A3";
shapes = (
{
closed = 1;
nodes = (
(185,0,l),
(185,247,ls),
(185,374,o),
(259,404,o),
(305,404,cs),
(362,404,o),
(398,361,o),
(398,283,cs),
(398,0,l),
(533,0,l),
(533,247,ls),
(533,374,o),
(607,404,o),
(653,404,cs),
(710,404,o),
(746,361,o),
(746,283,cs),
(746,0,l),
(881,0,l),
(881,316,ls),
(881,453,o),
(792,524,o),
(690,524,cs),
(602,524,o),
(520,476,o),
(483,393,c),
(522,390,l),
(497,479,o),
(423,524,o),
(342,524,cs),
(249,524,o),
(196,484,o),
(158,415,c),
(175,396,l),
(175,508,l),
(50,508,l),
(50,0,l)
);
}
);
width = 921;
}
);
metricLeft = n;
metricRight = n;
unicode = 109;
},
{
color = 5;
glyphname = n;
kernLeft = n;
kernRight = n;
layers = (
{
anchors = (
{
name = bottom;
pos = (260,0);
},
{
name = top;
pos = (260,492);
}
);
layerId = "3114FB65-9464-41A5-B67E-A8F9F43C0EF1";
shapes = (
{
closed = 1;
nodes = (
(100,0,l),
(100,293,ls),
(100,404,o),
(183,472,o),
(274,472,cs),
(371,472,o),
(429,418,o),
(429,300,cs),
(429,0,l),
(459,0,l),
(459,304,ls),
(459,430,o),
(389,500,o),
(279,500,cs),
(199,500,o),
(115,457,o),
(85,365,c),
(100,368,l),
(100,492,l),
(70,492,l),
(70,0,l)
);
}
);
width = 519;
},
{
anchors = (
{
name = bottom;
pos = (283,0);
},
{
name = top;
pos = (283,500);
}
);
layerId = "14EEE41F-D714-4243-A717-73445EE7DABA";
shapes = (
{
closed = 1;
nodes = (
(145,0,l),
(145,270,ls),
(145,375,o),
(221,438,o),
(304,438,cs),
(375,438,o),
(431,405,o),
(431,292,cs),
(431,0,l),
(506,0,l),
(506,309,ls),
(506,442,o),
(429,512,o),
(321,512,cs),
(229,512,o),
(147,458,o),
(121,374,c),
(143,355,l),
(143,500,l),
(70,500,l),
(70,0,l)
);
}
);
width = 566;
},
{
anchors = (
{
name = bottom;
pos = (292,0);
},
{
name = top;
pos = (292,508);
}
);
layerId = "090CB6A0-BE7C-4D17-A551-206C7456A8A3";
shapes = (
{
closed = 1;
nodes = (
(185,0,l),
(185,247,ls),
(185,374,o),
(262,404,o),
(310,404,cs),
(372,404,o),
(408,358,o),
(408,273,cs),
(408,0,l),
(543,0,l),
(543,316,ls),
(543,453,o),
(454,524,o),
(347,524,cs),
(252,524,o),
(177,470,o),
(142,380,c),
(175,387,l),
(175,508,l),
(50,508,l),
(50,0,l)
);
}
);
width = 583;
},
{
associatedMasterId = "14EEE41F-D714-4243-A717-73445EE7DABA";
layerId = "B40BB303-ED9C-4AA0-8A7D-7A34FE37550B";
name = "1 Aug 23, 16:48";
shapes = (
{
closed = 1;
nodes = (
(212,512,o),
(137,458,o),
(111,374,c),
(135,355,l),
(135,501,l),
(132,509,l),
(60,500,l),
(60,0,l),
(135,0,l),
(135,270,ls),
(135,374,o),
(211,437,o),
(294,437,cs),
(355,437,o),
(411,404,o),
(411,292,cs),
(411,0,l),
(486,0,l),
(486,309,ls),
(486,442,o),
(407,512,o),
(305,512,cs)
);
}
);
width = 536;
}
);
unicode = 110;
},
{
color = 5;
glyphname = eng;
kernLeft = n;
kernRight = n;
layers = (
{
background = {
shapes = (
{
alignment = -1;
pos = (353,0);
ref = j;
}
);
};
layerId = "3114FB65-9464-41A5-B67E-A8F9F43C0EF1";
shapes = (
{
closed = 1;
nodes = (
(320,-200,ls),
(404,-200,o),
(459,-162,o),
(459,-57,cs),
(459,304,ls),
(459,430,o),
(389,500,o),
(279,500,cs),
(199,500,o),
(115,457,o),
(85,365,c),
(100,368,l),
(100,492,l),
(70,492,l),
(70,0,l),
(100,0,l),
(100,293,ls),
(100,404,o),
(183,472,o),
(274,472,cs),
(371,472,o),
(429,418,o),
(429,300,cs),
(429,-56,ls),
(429,-142,o),
(392,-172,o),
(320,-172,cs),
(306,-172,l),
(302,-182,l),
(302,-200,l)
);
}
);
width = 519;
},
{
background = {
shapes = (
{
pos = (365,0);
ref = j;
}
);
};
layerId = "14EEE41F-D714-4243-A717-73445EE7DABA";
shapes = (
{
closed = 1;
nodes = (
(343,-200,ls),
(438,-200,o),
(506,-134,o),
(506,-30,cs),
(506,309,ls),
(506,442,o),
(429,512,o),
(321,512,cs),
(229,512,o),
(147,458,o),
(121,374,c),
(143,355,l),
(143,500,l),
(70,500,l),
(70,0,l),
(145,0,l),
(145,270,ls),
(145,375,o),
(221,438,o),
(304,438,cs),
(375,438,o),
(431,405,o),
(431,292,cs),
(431,-24,ls),
(431,-100,o),
(402,-127,o),
(328,-127,cs),
(307,-127,l),
(302,-138,l),
(302,-200,l)
);
}
);
width = 554;
},
{
background = {
shapes = (
{
alignment = -1;
pos = (358,0);
ref = j;
}
);
};
layerId = "090CB6A0-BE7C-4D17-A551-206C7456A8A3";
shapes = (
{
closed = 1;
nodes = (
(371,-200,ls),
(476,-200,o),
(543,-129,o),
(543,-16,cs),
(543,316,ls),
(543,453,o),
(454,524,o),
(347,524,cs),
(252,524,o),
(177,470,o),
(142,380,c),
(175,387,l),
(175,508,l),
(50,508,l),
(50,0,l),
(185,0,l),
(185,247,ls),
(185,374,o),
(262,404,o),
(310,404,cs),
(372,404,o),
(408,358,o),
(408,273,cs),
(408,-10,ls),
(408,-59,o),
(386,-81,o),
(337,-81,cs),
(305,-81,l),
(300,-92,l),
(300,-200,l)
);
}
);
width = 579;
}
);
metricLeft = n;
metricRight = j;
unicode = 331;
},
{
color = 5;
glyphname = o;
kernLeft = o;
kernRight = o;
layers = (
{
anchors = (
{
name = bottom;
pos = (285,0);
},
{
name = center;
pos = (285,246);
},
{
name = ogonek;
pos = (348,0);
},
{
name = top;
pos = (285,492);
},
{
name = topright;
pos = (550,492);
}
);
layerId = "3114FB65-9464-41A5-B67E-A8F9F43C0EF1";
shapes = (
{
closed = 1;
nodes = (
(422,-8,o),
(520,95,o),
(520,246,cs),
(520,397,o),
(422,500,o),
(285,500,cs),
(148,500,o),
(50,397,o),
(50,246,cs),
(50,95,o),
(148,-8,o),
(285,-8,cs)
);
},
{
closed = 1;
nodes = (
(166,20,o),
(80,111,o),
(80,246,cs),
(80,381,o),
(166,472,o),
(285,472,cs),
(404,472,o),
(490,381,o),
(490,246,cs),
(490,111,o),
(404,20,o),
(285,20,cs)
);
}
);
width = 570;
},
{
anchors = (
{
name = bottom;
pos = (286,0);
},
{
name = center;
pos = (286,250);
},
{
name = ogonek;
pos = (366,0);
},
{
name = top;
pos = (286,500);
},
{
name = topright;
pos = (552,500);
}
);
layerId = "14EEE41F-D714-4243-A717-73445EE7DABA";
shapes = (
{
closed = 1;
nodes = (
(431,-12,o),
(532,94,o),
(532,250,cs),
(532,406,o),
(431,512,o),
(286,512,cs),
(141,512,o),
(40,406,o),
(40,250,cs),
(40,94,o),
(141,-12,o),
(286,-12,cs)
);
},
{
closed = 1;
nodes = (
(186,61,o),
(115,135,o),
(115,250,cs),
(115,365,o),
(186,439,o),
(286,439,cs),
(386,439,o),
(457,365,o),
(457,250,cs),
(457,135,o),
(386,61,o),
(286,61,cs)
);
}
);
width = 572;
},
{
anchors = (
{
name = bottom;
pos = (295,0);
},
{
name = center;
pos = (295,254);
},
{
name = ogonek;
pos = (397,0);
},
{
name = top;
pos = (295,508);
},
{
name = topright;
pos = (570,508);
}
);
layerId = "090CB6A0-BE7C-4D17-A551-206C7456A8A3";
shapes = (
{
closed = 1;
nodes = (
(451,-16,o),
(560,96,o),
(560,254,cs),
(560,412,o),
(451,524,o),
(295,524,cs),
(139,524,o),
(30,412,o),
(30,254,cs),
(30,96,o),
(139,-16,o),
(295,-16,cs)
);
},
{
closed = 1;
nodes = (
(215,103,o),
(165,162,o),
(165,254,cs),
(165,346,o),
(215,405,o),
(295,405,cs),
(375,405,o),
(425,346,o),
(425,254,cs),
(425,162,o),
(375,103,o),
(295,103,cs)
);
}
);
width = 590;
},
{
associatedMasterId = "3114FB65-9464-41A5-B67E-A8F9F43C0EF1";
background = {
shapes = (
{
closed = 1;
nodes = (
(427,-8,o),
(524,95,o),
(524,246,cs),
(524,397,o),
(427,500,o),
(285,500,cs),
(145,500,o),
(47,397,o),
(47,246,cs),
(47,95,o),
(145,-8,o),
(285,-8,cs)
);
},
{
closed = 1;
nodes = (
(191,65,o),
(124,138,o),
(124,246,cs),
(124,354,o),
(191,427,o),
(285,427,cs),
(380,427,o),
(446,354,o),
(446,246,cs),
(446,138,o),
(380,65,o),
(285,65,cs)
);
}
);
};
layerId = "33D1E46C-F633-48AD-AD40-5CF99776C831";
name = "9 Aug 23, 01:09";
shapes = (
{
closed = 1;
nodes = (
(422,-8,o),
(520,95,o),
(520,246,cs),
(520,397,o),
(422,500,o),
(285,500,cs),
(148,500,o),
(50,397,o),
(50,246,cs),
(50,95,o),
(148,-8,o),
(285,-8,cs)
);
},
{
closed = 1;
nodes = (
(167,22,o),
(82,112,o),
(82,246,cs),
(82,380,o),
(167,470,o),
(285,470,cs),
(403,470,o),
(488,380,o),
(488,246,cs),
(488,112,o),
(403,22,o),
(285,22,cs)
);
}
);
width = 570;
},
{
associatedMasterId = "14EEE41F-D714-4243-A717-73445EE7DABA";
layerId = "9529A4F2-A5BF-4A38-AFEF-B5A98137C4D9";
name = "9 Aug 23, 02:12";
shapes = (
{
closed = 1;
nodes = (
(431,-12,o),
(532,94,o),
(532,250,cs),
(532,406,o),
(431,512,o),
(286,512,cs),
(141,512,o),
(40,406,o),
(40,250,cs),
(40,94,o),
(141,-12,o),
(286,-12,cs)
);
},
{
closed = 1;
nodes = (
(189,63,o),
(120,139,o),
(120,250,cs),
(120,361,o),
(189,437,o),
(286,437,cs),
(383,437,o),
(452,361,o),
(452,250,cs),
(452,139,o),
(383,63,o),
(286,63,cs)
);
}
);
width = 572;
}
);
unicode = 111;
},
{
color = 5;
glyphname = oslash;
kernLeft = o;
kernRight = o;
layers = (
{
layerId = "3114FB65-9464-41A5-B67E-A8F9F43C0EF1";
shapes = (
{
closed = 1;
nodes = (
(482,534,l),
(457,549,l),
(88,-43,l),
(113,-58,l)
);
},
{
ref = o;
}
);
width = 570;
},
{
layerId = "14EEE41F-D714-4243-A717-73445EE7DABA";
shapes = (
{
closed = 1;
nodes = (
(496,541,l),
(434,577,l),
(77,-42,l),
(139,-78,l)
);
},
{
ref = o;
}
);
width = 572;
},
{
layerId = "090CB6A0-BE7C-4D17-A551-206C7456A8A3";
shapes = (
{
closed = 1;
nodes = (
(534,544,l),
(428,604,l),
(57,-37,l),
(163,-97,l)
);
},
{
ref = o;
}
);
width = 590;
}
);
unicode = 248;
},
{
color = 5;
glyphname = p;
kernLeft = n;
kernRight = o;
layers = (
{
layerId = "3114FB65-9464-41A5-B67E-A8F9F43C0EF1";
shapes = (
{
closed = 1;
nodes = (
(438,-8,o),
(536,95,o),
(536,246,cs),
(536,397,o),
(438,500,o),
(302,500,cs),
(186,500,o),
(103,426,o),
(79,311,c),
(79,181,l),
(103,66,o),
(186,-8,o),
(302,-8,cs)
);
},
{
closed = 1;
nodes = (
(100,-200,l),
(100,165,l),
(86,246,l),
(100,327,l),
(100,492,l),
(70,492,l),
(70,-200,l)
);
},
{
closed = 1;
nodes = (
(183,20,o),
(98,111,o),
(98,246,cs),
(98,381,o),
(183,472,o),
(302,472,cs),
(421,472,o),
(506,381,o),
(506,246,cs),
(506,111,o),
(421,20,o),
(302,20,cs)
);
}
);
width = 586;
},
{
layerId = "14EEE41F-D714-4243-A717-73445EE7DABA";
shapes = (
{
closed = 1;
nodes = (
(443,-12,o),
(546,98,o),
(546,250,cs),
(546,402,o),
(443,512,o),
(310,512,cs),
(208,512,o),
(126,447,o),
(96,348,c),
(96,152,l),
(126,53,o),
(208,-12,o),
(310,-12,cs)
);
},
{
closed = 1;
nodes = (
(135,-200,l),
(135,187,l),
(121,250,l),
(133,313,l),
(133,500,l),
(60,500,l),
(60,-200,l)
);
},
{
closed = 1;
nodes = (
(208,61,o),
(135,138,o),
(135,250,cs),
(135,362,o),
(208,439,o),
(307,439,cs),
(402,439,o),
(471,362,o),
(471,250,cs),
(471,138,o),
(402,61,o),
(307,61,cs)
);
}
);
width = 586;
},
{
layerId = "090CB6A0-BE7C-4D17-A551-206C7456A8A3";
shapes = (
{
closed = 1;
nodes = (
(479,-16,o),
(586,96,o),
(586,255,cs),
(586,413,o),
(479,524,o),
(340,524,cs),
(224,524,o),
(145,443,o),
(124,365,c),
(124,145,l),
(145,66,o),
(224,-16,o),
(340,-16,cs)
);
},
{
closed = 1;
nodes = (
(185,-200,l),
(185,141,l),
(145,254,l),
(175,367,l),
(175,508,l),
(50,508,l),
(50,-200,l)
);
},
{
closed = 1;
nodes = (
(235,104,o),
(181,165,o),
(181,254,cs),
(181,343,o),
(235,404,o),
(316,404,cs),
(397,404,o),
(451,343,o),
(451,254,cs),
(451,165,o),
(397,104,o),
(316,104,cs)
);
}
);
width = 616;
}
);
metricRight = o;
unicode = 112;
},
{
color = 5;
glyphname = thorn;
kernLeft = l;
kernRight = o;
layers = (
{
background = {
shapes = (
{
ref = p;
}
);
};
layerId = "3114FB65-9464-41A5-B67E-A8F9F43C0EF1";
shapes = (
{
closed = 1;
nodes = (
(438,-8,o),
(536,95,o),
(536,246,cs),
(536,397,o),
(438,500,o),
(302,500,cs),
(186,500,o),
(103,426,o),
(79,311,c),
(79,181,l),
(103,66,o),
(186,-8,o),
(302,-8,cs)
);
},
{
closed = 1;
nodes = (
(100,-200,l),
(100,165,l),
(86,246,l),
(100,327,l),
(100,716,l),
(97,724,l),
(70,720,l),
(70,-200,l)
);
},
{
closed = 1;
nodes = (
(183,20,o),
(98,111,o),
(98,246,cs),
(98,381,o),
(183,472,o),
(302,472,cs),
(421,472,o),
(506,381,o),
(506,246,cs),
(506,111,o),
(421,20,o),
(302,20,cs)
);
}
);
width = 586;
},
{
background = {
shapes = (
{
ref = p;
}
);
};
layerId = "14EEE41F-D714-4243-A717-73445EE7DABA";
shapes = (
{
closed = 1;
nodes = (
(443,-12,o),
(546,98,o),
(546,250,cs),
(546,402,o),
(443,512,o),
(310,512,cs),
(208,512,o),
(126,447,o),
(96,348,c),
(96,152,l),
(126,53,o),
(208,-12,o),
(310,-12,cs)
);
},
{
closed = 1;
nodes = (
(135,-200,l),
(135,187,l),
(121,250,l),
(135,313,l),
(135,721,l),
(132,729,l),
(60,720,l),
(60,-200,l)
);
},
{
closed = 1;
nodes = (
(208,61,o),
(135,138,o),
(135,250,cs),
(135,362,o),
(208,439,o),
(307,439,cs),
(402,439,o),
(471,362,o),
(471,250,cs),
(471,138,o),
(402,61,o),
(307,61,cs)
);
}
);
width = 586;
},
{
background = {
shapes = (
{
ref = p;
}
);
};
layerId = "090CB6A0-BE7C-4D17-A551-206C7456A8A3";
shapes = (
{
closed = 1;
nodes = (
(479,-16,o),
(586,96,o),
(586,255,cs),
(586,413,o),
(479,524,o),
(340,524,cs),
(224,524,o),
(145,443,o),
(124,365,c),
(124,145,l),
(145,66,o),
(224,-16,o),
(340,-16,cs)
);
},
{
closed = 1;
nodes = (
(185,-200,l),
(185,141,l),
(145,254,l),
(185,421,l),
(185,728,l),
(182,736,l),
(50,720,l),
(50,-200,l)
);
},
{
closed = 1;
nodes = (
(235,104,o),
(181,165,o),
(181,254,cs),
(181,343,o),
(235,404,o),
(316,404,cs),
(397,404,o),
(451,343,o),
(451,254,cs),
(451,165,o),
(397,104,o),
(316,104,cs)
);
}
);
width = 616;
}
);
metricRight = "=p";
unicode = 254;
},
{
color = 5;
glyphname = r;
kernLeft = n;
kernRight = r;
layers = (
{
anchors = (
{
name = bottom;
pos = (85,0);
},
{
name = top;
pos = (162,492);
}
);
background = {
shapes = (
{
ref = n;
}
);
};
layerId = "3114FB65-9464-41A5-B67E-A8F9F43C0EF1";
shapes = (
{
closed = 1;
nodes = (
(100,0,l),
(100,300,ls),
(100,405,o),
(182,468,o),
(272,468,cs),
(280,468,o),
(287,468,o),
(295,467,c),
(299,477,l),
(299,499,l),
(292,500,o),
(286,500,o),
(279,500,cs),
(199,500,o),
(115,457,o),
(85,365,c),
(100,368,l),
(100,492,l),
(70,492,l),
(70,0,l)
);
}
);
width = 324;
},
{
anchors = (
{
name = bottom;
pos = (107,0);
},
{
name = top;
pos = (184,500);
}
);
background = {
shapes = (
{
pos = (10,0);
ref = n;
}
);
};
layerId = "14EEE41F-D714-4243-A717-73445EE7DABA";
shapes = (
{
closed = 1;
nodes = (
(145,0,l),
(145,270,ls),
(145,371,o),
(221,432,o),
(304,432,cs),
(317,432,o),
(330,431,o),
(343,430,c),
(348,441,l),
(348,511,l),
(337,512,o),
(332,512,o),
(321,512,cs),
(229,512,o),
(147,458,o),
(121,374,c),
(143,355,l),
(143,500,l),
(70,500,l),
(70,0,l)
);
}
);
width = 368;
},
{
anchors = (
{
name = bottom;
pos = (117,0);
},
{
name = top;
pos = (193,508);
}
);
background = {
shapes = (
{
ref = n;
}
);
};
layerId = "090CB6A0-BE7C-4D17-A551-206C7456A8A3";
shapes = (
{
closed = 1;
nodes = (
(185,0,l),
(185,244,ls),
(185,357,o),
(268,384,o),
(320,384,cs),
(337,384,o),
(349,382,o),
(370,378,c),
(375,388,l),
(375,523,l),
(368,524,o),
(360,524,o),
(352,524,cs),
(255,524,o),
(178,470,o),
(142,380,c),
(175,387,l),
(175,508,l),
(50,508,l),
(50,0,l)
);
}
);
width = 385;
},
{
associatedMasterId = "090CB6A0-BE7C-4D17-A551-206C7456A8A3";
background = {
shapes = (
{
ref = n;
}
);
};
layerId = "1201E7CE-871E-4F13-A0C0-343D8E6BBF2F";
name = "3 Aug 23, 22:55";
shapes = (
{
closed = 1;
nodes = (
(375,523,l),
(368,524,o),
(360,524,o),
(352,524,cs),
(255,524,o),
(178,470,o),
(142,380,c),
(175,387,l),
(175,508,l),
(50,508,l),
(50,0,l),
(185,0,l),
(185,244,ls),
(185,357,o),
(268,384,o),
(320,384,cs),
(338,384,o),
(351,382,o),
(375,377,c)
);
}
);
width = 385;
},
{
associatedMasterId = "14EEE41F-D714-4243-A717-73445EE7DABA";
background = {
shapes = (
{
ref = n;
}
);
};
layerId = "9D7F8723-B3B6-4A1E-9BEB-21BBED352018";
name = "3 Aug 23, 22:56";
shapes = (
{
closed = 1;
nodes = (
(338,511,l),
(327,512,o),
(322,512,o),
(311,512,cs),
(219,512,o),
(137,458,o),
(111,374,c),
(133,355,l),
(133,500,l),
(60,500,l),
(60,0,l),
(135,0,l),
(135,270,ls),
(135,374,o),
(211,437,o),
(294,437,cs),
(309,437,o),
(324,436,o),
(338,434,c)
);
}
);
width = 353;
}
);
metricLeft = n;
unicode = 114;
},
{
color = 5;
glyphname = s;
kernLeft = s;
kernRight = s;
layers = (
{
anchors = (
{
name = bottom;
pos = (228,0);
},
{
name = top;
pos = (228,492);
}
);
background = {
shapes = (
{
closed = 1;
nodes = (
(412,359,l),
(390,448,o),
(320,500,o),
(222,500,cs),
(121,500,o),
(49,441,o),
(49,360,cs),
(49,297,o),
(88,251,o),
(179,229,cs),
(268,209,ls),
(319,197,o),
(344,175,o),
(344,138,cs),
(344,96,o),
(295,63,o),
(233,63,cs),
(172,63,o),
(123,93,o),
(110,145,c),
(99,147,l),
(32,130,l),
(54,43,o),
(126,-8,o),
(225,-8,cs),
(337,-8,o),
(418,53,o),
(418,143,cs),
(418,213,o),
(377,258,o),
(289,279,cs),
(198,299,ls),
(146,311,o),
(123,332,o),
(123,363,cs),
(123,401,o),
(163,429,o),
(220,429,cs),
(273,429,o),
(321,398,o),
(334,346,c),
(345,344,l)
);
}
);
};
layerId = "3114FB65-9464-41A5-B67E-A8F9F43C0EF1";
shapes = (
{
closed = 1;
nodes = (
(397,359,l),
(381,441,o),
(320,500,o),
(221,500,cs),
(130,500,o),
(64,450,o),
(64,375,cs),
(64,318,o),
(103,268,o),
(189,249,cs),
(278,229,ls),
(347,213,o),
(376,184,o),
(376,132,cs),
(376,66,o),
(318,20,o),
(233,20,cs),
(153,20,o),
(94,61,o),
(76,133,c),
(65,135,l),
(45,130,l),
(65,42,o),
(134,-8,o),
(229,-8,cs),
(337,-8,o),
(406,49,o),
(406,137,cs),
(406,197,o),
(363,241,o),
(287,258,cs),
(198,278,ls),
(139,291,o),
(94,320,o),
(94,378,cs),
(94,435,o),
(147,472,o),
(217,472,cs),
(287,472,o),
(352,436,o),
(367,357,c),
(377,355,l)
);
}
);
width = 456;
},
{
anchors = (
{
name = bottom;
pos = (235,0);
},
{
name = top;
pos = (239,500);
}
);
layerId = "14EEE41F-D714-4243-A717-73445EE7DABA";
shapes = (
{
closed = 1;
nodes = (
(428,367,l),
(405,459,o),
(332,512,o),
(231,512,cs),
(127,512,o),
(52,452,o),
(52,369,cs),
(52,303,o),
(93,254,o),
(187,233,cs),
(279,212,ls),
(331,200,o),
(357,177,o),
(357,139,cs),
(357,92,o),
(306,61,o),
(243,61,cs),
(180,61,o),
(129,92,o),
(115,146,c),
(104,148,l),
(35,131,l),
(58,40,o),
(132,-12,o),
(235,-12,cs),
(350,-12,o),
(434,48,o),
(434,144,cs),
(434,216,o),
(392,263,o),
(300,284,cs),
(207,305,ls),
(152,317,o),
(129,339,o),
(129,372,cs),
(129,411,o),
(171,439,o),
(229,439,cs),
(284,439,o),
(333,408,o),
(347,354,c),
(358,352,l)
);
}
);
width = 477;
},
{
anchors = (
{
name = bottom;
pos = (249,0);
},
{
name = top;
pos = (249,508);
}
);
background = {
shapes = (
{
closed = 1;
nodes = (
(443,375,l),
(419,469,o),
(344,524,o),
(240,524,cs),
(133,524,o),
(56,462,o),
(56,377,cs),
(56,309,o),
(98,259,o),
(195,236,cs),
(289,215,ls),
(343,202,o),
(370,179,o),
(370,140,cs),
(370,94,o),
(317,59,o),
(252,59,cs),
(187,59,o),
(135,91,o),
(120,147,c),
(109,149,l),
(38,131,l),
(62,38,o),
(138,-16,o),
(244,-16,cs),
(363,-16,o),
(449,49,o),
(449,145,cs),
(449,219,o),
(406,267,o),
(311,289,cs),
(215,311,ls),
(159,323,o),
(135,346,o),
(135,380,cs),
(135,420,o),
(178,449,o),
(238,449,cs),
(295,449,o),
(345,417,o),
(360,361,c),
(371,359,l)
);
}
);
};
layerId = "090CB6A0-BE7C-4D17-A551-206C7456A8A3";
shapes = (
{
closed = 1;
nodes = (
(457,375,l),
(433,468,o),
(353,524,o),
(245,524,cs),
(125,524,o),
(36,460,o),
(36,365,cs),
(36,290,o),
(89,237,o),
(184,216,cs),
(280,195,ls),
(317,187,o),
(336,173,o),
(336,148,cs),
(336,119,o),
(301,99,o),
(256,99,cs),
(209,99,o),
(171,122,o),
(160,159,c),
(148,162,l),
(25,131,l),
(51,40,o),
(137,-16,o),
(251,-16,cs),
(376,-16,o),
(468,51,o),
(468,156,cs),
(468,237,o),
(414,280,o),
(311,304,cs),
(215,326,ls),
(183,333,o),
(168,349,o),
(168,367,cs),
(168,393,o),
(199,409,o),
(239,409,cs),
(283,409,o),
(322,385,o),
(332,352,c),
(343,350,l)
);
}
);
width = 498;
},
{
associatedMasterId = "14EEE41F-D714-4243-A717-73445EE7DABA";
layerId = "BD36F37E-C1DE-422E-8044-05FFBE51E8A9";
name = "3 Aug 23, 15:54";
shapes = (
{
closed = 1;
nodes = (
(350,-12,o),
(435,51,o),
(435,144,cs),
(435,216,o),
(392,263,o),
(298,284,cs),
(205,305,ls),
(151,317,o),
(129,339,o),
(129,372,cs),
(129,413,o),
(169,442,o),
(225,442,cs),
(281,442,o),
(331,408,o),
(344,350,c),
(426,367,l),
(403,459,o),
(330,512,o),
(229,512,cs),
(123,512,o),
(47,452,o),
(47,369,cs),
(47,303,o),
(89,255,o),
(185,233,cs),
(277,212,ls),
(328,200,o),
(353,177,o),
(353,139,cs),
(353,93,o),
(304,58,o),
(243,58,cs),
(178,58,o),
(128,92,o),
(115,150,c),
(33,133,l),
(56,41,o),
(130,-12,o),
(233,-12,cs)
);
}
);
width = 445;
},
{
associatedMasterId = "14EEE41F-D714-4243-A717-73445EE7DABA";
layerId = "D2928278-039E-4433-8F0C-63E9A918D598";
name = "3 Aug 23, 16:10";
shapes = (
{
closed = 1;
nodes = (
(426,367,l),
(403,459,o),
(330,512,o),
(229,512,cs),
(123,512,o),
(47,452,o),
(47,369,cs),
(47,303,o),
(89,255,o),
(185,233,cs),
(277,212,ls),
(328,200,o),
(353,177,o),
(353,139,cs),
(353,93,o),
(304,58,o),
(243,58,cs),
(180,58,o),
(130,90,o),
(116,146,c),
(105,148,l),
(33,133,l),
(56,41,o),
(130,-12,o),
(233,-12,cs),
(350,-12,o),
(435,51,o),
(435,144,cs),
(435,216,o),
(392,263,o),
(298,284,cs),
(205,305,ls),
(151,317,o),
(129,339,o),
(129,372,cs),
(129,413,o),
(169,442,o),
(225,442,cs),
(280,442,o),
(329,410,o),
(343,354,c),
(354,352,l)
);
}
);
width = 445;
},
{
associatedMasterId = "14EEE41F-D714-4243-A717-73445EE7DABA";
layerId = "245350D5-D0F2-425F-8F13-5CCBE156192D";
name = "9 Aug 23, 02:52";
shapes = (
{
closed = 1;
nodes = (
(428,367,l),
(405,459,o),
(332,512,o),
(231,512,cs),
(125,512,o),
(49,452,o),
(49,369,cs),
(49,303,o),
(91,255,o),
(187,233,cs),
(279,212,ls),
(330,200,o),
(355,177,o),
(355,139,cs),
(355,93,o),
(305,58,o),
(243,58,cs),
(181,58,o),
(132,90,o),
(118,146,c),
(107,148,l),
(35,131,l),
(58,40,o),
(132,-12,o),
(235,-12,cs),
(352,-12,o),
(437,51,o),
(437,144,cs),
(437,216,o),
(394,263,o),
(300,284,cs),
(207,305,ls),
(153,317,o),
(131,339,o),
(131,372,cs),
(131,413,o),
(171,442,o),
(227,442,cs),
(282,442,o),
(331,410,o),
(345,354,c),
(356,352,l)
);
}
);
width = 477;
}
);
unicode = 115;
},
{
color = 5;
glyphname = germandbls;
kernRight = a;
layers = (
{
background = {
shapes = (
{
pos = (-8,0);
ref = three;
}
);
};
layerId = "3114FB65-9464-41A5-B67E-A8F9F43C0EF1";
shapes = (
{
closed = 1;
nodes = (
(100,0,l),
(100,484,ls),
(100,620,o),
(167,680,o),
(270,680,cs),
(344,680,o),
(417,625,o),
(417,535,cs),
(417,443,o),
(344,388,o),
(257,388,cs),
(220,388,l),
(220,360,l),
(255,360,ls),
(368,360,o),
(451,304,o),
(451,197,cs),
(451,95,o),
(372,28,o),
(269,28,cs),
(220,28,l),
(220,0,l),
(271,0,ls),
(392,0,o),
(481,85,o),
(481,196,cs),
(481,296,o),
(409,377,o),
(295,378,c),
(295,369,l),
(386,378,o),
(447,444,o),
(447,536,cs),
(447,635,o),
(366,708,o),
(272,708,cs),
(150,708,o),
(70,635,o),
(70,486,cs),
(70,0,l)
);
}
);
width = 531;
},
{
background = {
shapes = (
{
ref = three;
}
);
};
layerId = "14EEE41F-D714-4243-A717-73445EE7DABA";
shapes = (
{
closed = 1;
nodes = (
(140,0,l),
(140,471,ls),
(140,599,o),
(207,640,o),
(275,640,cs),
(340,640,o),
(397,596,o),
(397,527,cs),
(397,452,o),
(338,409,o),
(264,409,cs),
(214,409,l),
(214,336,l),
(275,336,ls),
(368,336,o),
(426,291,o),
(426,208,cs),
(426,124,o),
(371,73,o),
(275,73,cs),
(214,73,l),
(214,0,l),
(275,0,ls),
(421,0,o),
(504,83,o),
(504,201,cs),
(504,312,o),
(428,382,o),
(308,383,c),
(308,362,l),
(407,371,o),
(475,426,o),
(475,532,cs),
(475,644,o),
(381,713,o),
(279,713,cs),
(172,713,o),
(65,646,o),
(65,461,cs),
(65,0,l)
);
}
);
width = 544;
},
{
background = {
shapes = (
{
pos = (8,0);
ref = three;
}
);
};
layerId = "090CB6A0-BE7C-4D17-A551-206C7456A8A3";
shapes = (
{
closed = 1;
nodes = (
(185,0,l),
(185,446,ls),
(185,554,o),
(237,591,o),
(291,591,cs),
(333,591,o),
(377,555,o),
(377,503,cs),
(377,451,o),
(342,420,o),
(307,420,cs),
(243,420,l),
(243,304,l),
(305,304,ls),
(365,304,o),
(401,273,o),
(401,218,cs),
(401,166,o),
(365,128,o),
(310,128,cs),
(243,128,l),
(243,0,l),
(301,0,ls),
(446,0,o),
(536,94,o),
(536,210,cs),
(536,301,o),
(473,378,o),
(374,379,c),
(374,358,l),
(456,368,o),
(512,434,o),
(512,520,cs),
(512,635,o),
(410,716,o),
(294,716,cs),
(150,716,o),
(50,621,o),
(50,468,cs),
(50,0,l)
);
}
);
width = 556;
},
{
associatedMasterId = "14EEE41F-D714-4243-A717-73445EE7DABA";
layerId = "B3FCC216-4BAD-49A8-9277-2E73B1DFA19D";
name = "15 Dec 23, 07:05";
shapes = (
{
closed = 1;
nodes = (
(369,360,l),
(369,428,o),
(495,437,o),
(495,554,cs),
(495,656,o),
(406,712,o),
(300,712,cs),
(188,712,o),
(101,635,o),
(101,463,cs),
(101,0,l),
(176,0,l),
(176,461,ls),
(176,594,o),
(241,639,o),
(302,639,cs),
(368,639,o),
(418,600,o),
(418,552,cs),
(418,485,o),
(292,461,o),
(292,353,c)
);
},
{
closed = 1;
nodes = (
(292,357,l),
(292,291,o),
(336,243,o),
(437,221,cs),
(484,212,ls),
(536,200,o),
(562,177,o),
(562,139,cs),
(562,92,o),
(511,61,o),
(448,61,cs),
(385,61,o),
(334,92,o),
(320,146,c),
(309,148,l),
(240,131,l),
(263,40,o),
(337,-12,o),
(440,-12,cs),
(555,-12,o),
(639,48,o),
(639,144,cs),
(639,216,o),
(597,263,o),
(505,284,cs),
(457,293,ls),
(395,306,o),
(369,327,o),
(369,360,c)
);
}
);
width = 675;
}
);
metricLeft = H;
metricRight = eight;
unicode = 223;
},
{
color = 5;
glyphname = t;
kernLeft = n;
kernRight = t;
layers = (
{
anchors = (
{
name = bottom;
pos = (190,0);
},
{
name = center;
pos = (156,246);
},
{
name = top;
pos = (216,492);
},
{
name = topright;
pos = (291,720);
}
);
layerId = "3114FB65-9464-41A5-B67E-A8F9F43C0EF1";
shapes = (
{
closed = 1;
nodes = (
(281,0,l),
(281,18,l),
(277,28,l),
(232,28,ls),
(164,28,o),
(133,58,o),
(133,144,cs),
(133,614,l),
(103,614,l),
(103,143,ls),
(103,38,o),
(148,0,o),
(232,0,cs)
);
},
{
closed = 1;
nodes = (
(281,464,l),
(281,492,l),
(20,492,l),
(20,464,l)
);
}
);
width = 311;
},
{
anchors = (
{
name = bottom;
pos = (224,0);
},
{
name = center;
pos = (182,250);
},
{
name = top;
pos = (272,500);
},
{
name = topright;
pos = (343,720);
}
);
layerId = "14EEE41F-D714-4243-A717-73445EE7DABA";
shapes = (
{
closed = 1;
nodes = (
(333,0,l),
(333,62,l),
(328,73,l),
(266,73,ls),
(209,73,o),
(186,94,o),
(186,153,cs),
(186,636,l),
(111,636,l),
(111,148,ls),
(111,57,o),
(170,0,o),
(253,0,cs)
);
},
{
closed = 1;
nodes = (
(333,427,l),
(333,500,l),
(25,500,l),
(25,427,l)
);
}
);
width = 363;
},
{
anchors = (
{
name = bottom;
pos = (238,0);
},
{
name = center;
pos = (187,254);
},
{
name = top;
pos = (289,508);
},
{
name = topright;
pos = (354,720);
}
);
background = {
shapes = (
{
closed = 1;
nodes = (
(121,636,l),
(121,148,ls),
(121,57,o),
(176,0,o),
(263,0,cs),
(343,0,l),
(343,59,l),
(338,70,l),
(276,70,ls),
(227,70,o),
(196,101,o),
(196,150,cs),
(196,636,l)
);
},
{
closed = 1;
nodes = (
(35,500,l),
(35,430,l),
(343,430,l),
(343,500,l)
);
}
);
};
layerId = "090CB6A0-BE7C-4D17-A551-206C7456A8A3";
shapes = (
{
closed = 1;
nodes = (
(359,0,l),
(359,108,l),
(354,119,l),
(306,119,ls),
(257,119,o),
(226,150,o),
(226,199,cs),
(226,636,l),
(91,636,l),
(91,184,ls),
(91,71,o),
(158,0,o),
(263,0,cs)
);
},
{
closed = 1;
nodes = (
(359,389,l),
(359,508,l),
(5,508,l),
(5,389,l)
);
}
);
width = 374;
}
);
unicode = 116;
},
{
color = 5;
glyphname = v;
kernLeft = v;
kernRight = v;
layers = (
{
layerId = "3114FB65-9464-41A5-B67E-A8F9F43C0EF1";
shapes = (
{
closed = 1;
nodes = (
(244,0,l),
(447,484,l),
(447,492,l),
(419,492,l),
(227,32,l),
(218,0,l)
);
},
{
closed = 1;
nodes = (
(244,0,l),
(235,32,l),
(43,492,l),
(15,492,l),
(15,484,l),
(218,0,l)
);
}
);
width = 462;
},
{
layerId = "14EEE41F-D714-4243-A717-73445EE7DABA";
shapes = (
{
closed = 1;
nodes = (
(286,0,l),
(489,492,l),
(489,500,l),
(411,500,l),
(239,76,l),
(239,0,l)
);
},
{
closed = 1;
nodes = (
(260,0,l),
(260,76,l),
(88,500,l),
(10,500,l),
(10,492,l),
(213,0,l)
);
}
);
width = 499;
},
{
layerId = "090CB6A0-BE7C-4D17-A551-206C7456A8A3";
shapes = (
{
closed = 1;
nodes = (
(336,0,l),
(539,500,l),
(539,508,l),
(401,508,l),
(219,39,l),
(203,0,l)
);
},
{
closed = 1;
nodes = (
(336,0,l),
(320,39,l),
(138,508,l),
(0,508,l),
(0,500,l),
(203,0,l)
);
}
);
width = 539;
},
{
associatedMasterId = "14EEE41F-D714-4243-A717-73445EE7DABA";
background = {
shapes = (
{
closed = 1;
nodes = (
(218,0,l),
(298,0,l),
(494,484,l),
(410,484,l),
(258,83,l),
(106,484,l),
(23,484,l)
);
}
);
};
layerId = "39355858-88C4-45B3-907D-1AF92CFE8344";
name = "18 Oct 23, 01:32";
shapes = (
{
closed = 1;
nodes = (
(497,500,l),
(421,500,l),
(245,76,l),
(245,0,l),
(290,0,l),
(497,491,l)
);
},
{
closed = 1;
nodes = (
(217,0,l),
(262,0,l),
(262,76,l),
(86,500,l),
(10,500,l),
(10,491,l)
);
}
);
width = 507;
}
);
unicode = 118;
},
{
color = 5;
glyphname = w;
kernLeft = v;
kernRight = v;
layers = (
{
anchors = (
{
name = bottom;
pos = (353,0);
},
{
name = top;
pos = (353,492);
}
);
layerId = "3114FB65-9464-41A5-B67E-A8F9F43C0EF1";
shapes = (
{
closed = 1;
nodes = (
(528,0,l),
(691,484,l),
(691,492,l),
(663,492,l),
(511,32,l),
(502,0,l)
);
},
{
closed = 1;
nodes = (
(204,0,l),
(195,32,l),
(43,492,l),
(15,492,l),
(15,484,l),
(178,0,l)
);
},
{
closed = 1;
nodes = (
(204,0,l),
(367,484,l),
(367,492,l),
(339,492,l),
(187,32,l),
(178,0,l)
);
},
{
closed = 1;
nodes = (
(528,0,l),
(519,32,l),
(367,492,l),
(339,492,l),
(339,484,l),
(502,0,l)
);
}
);
width = 706;
},
{
anchors = (
{
name = bottom;
pos = (378,0);
},
{
name = top;
pos = (378,500);
}
);
background = {
shapes = (
{
pos = (-52,0);
ref = v;
}
);
};
layerId = "14EEE41F-D714-4243-A717-73445EE7DABA";
shapes = (
{
closed = 1;
nodes = (
(581,0,l),
(742,492,l),
(742,500,l),
(666,500,l),
(533,80,l),
(511,0,l)
);
},
{
closed = 1;
nodes = (
(241,0,l),
(219,80,l),
(85,500,l),
(10,500,l),
(10,492,l),
(171,0,l)
);
},
{
closed = 1;
nodes = (
(241,0,l),
(410,492,l),
(410,500,l),
(342,500,l),
(199,80,l),
(171,0,l)
);
},
{
closed = 1;
nodes = (
(581,0,l),
(553,80,l),
(410,500,l),
(342,500,l),
(342,492,l),
(511,0,l)
);
}
);
width = 752;
},
{
anchors = (
{
name = bottom;
pos = (407,0);
},
{
name = top;
pos = (407,508);
}
);
layerId = "090CB6A0-BE7C-4D17-A551-206C7456A8A3";
shapes = (
{
closed = 1;
nodes = (
(644,0,l),
(814,500,l),
(814,508,l),
(679,508,l),
(527,14,l),
(511,0,l)
);
},
{
closed = 1;
nodes = (
(303,0,l),
(287,14,l),
(135,508,l),
(0,508,l),
(0,500,l),
(170,0,l)
);
},
{
closed = 1;
nodes = (
(303,0,l),
(456,500,l),
(476,508,l),
(338,508,l),
(186,14,l),
(170,0,l)
);
},
{
closed = 1;
nodes = (
(644,0,l),
(628,14,l),
(476,508,l),
(338,508,l),
(358,500,l),
(511,0,l)
);
}
);
width = 814;
}
);
metricLeft = v;
metricRight = v;
unicode = 119;
},
{
color = 5;
glyphname = x;
kernLeft = n;
layers = (
{
layerId = "3114FB65-9464-41A5-B67E-A8F9F43C0EF1";
shapes = (
{
closed = 1;
nodes = (
(409,0,l),
(409,8,l),
(50,492,l),
(20,492,l),
(20,484,l),
(379,0,l)
);
},
{
closed = 1;
nodes = (
(38,0,l),
(217,240,l),
(202,262,l),
(10,8,l),
(10,0,l)
);
},
{
closed = 1;
nodes = (
(399,484,l),
(399,492,l),
(371,492,l),
(206,264,l),
(221,240,l)
);
}
);
width = 419;
},
{
background = {
shapes = (
{
closed = 1;
nodes = (
(370,0,l),
(458,0,l),
(272,255,l),
(449,500,l),
(361,500,l),
(230,311,l),
(93,500,l),
(5,500,l),
(184,255,l),
(-3,0,l),
(85,0,l),
(225,197,l)
);
}
);
};
guides = (
{
angle = 234.2461;
pos = (104,147);
},
{
angle = 54.8721;
pos = (170,113);
}
);
layerId = "14EEE41F-D714-4243-A717-73445EE7DABA";
shapes = (
{
closed = 1;
nodes = (
(441,0,l),
(441,8,l),
(90,500,l),
(5,500,l),
(5,492,l),
(356,0,l)
);
},
{
closed = 1;
nodes = (
(90,0,l),
(249,226,l),
(203,284,l),
(5,8,l),
(5,0,l)
);
},
{
closed = 1;
nodes = (
(441,492,l),
(441,500,l),
(359,500,l),
(209,284,l),
(255,224,l)
);
}
);
width = 446;
},
{
layerId = "090CB6A0-BE7C-4D17-A551-206C7456A8A3";
shapes = (
{
closed = 1;
nodes = (
(512,0,l),
(512,8,l),
(161,508,l),
(10,508,l),
(10,500,l),
(361,0,l)
);
},
{
closed = 1;
nodes = (
(147,0,l),
(292,207,l),
(213,312,l),
(0,8,l),
(0,0,l)
);
},
{
closed = 1;
nodes = (
(502,500,l),
(502,508,l),
(355,508,l),
(217,307,l),
(296,202,l)
);
}
);
width = 512;
},
{
associatedMasterId = "14EEE41F-D714-4243-A717-73445EE7DABA";
background = {
shapes = (
{
closed = 1;
nodes = (
(395,0,l),
(483,0,l),
(297,255,l),
(474,500,l),
(386,500,l),
(255,311,l),
(118,500,l),
(30,500,l),
(209,255,l),
(22,0,l),
(110,0,l),
(250,197,l)
);
}
);
};
layerId = "899F7841-3179-4988-A358-AE51868B9142";
name = "18 Oct 23, 02:20";
shapes = (
{
closed = 1;
nodes = (
(466,500,l),
(381,500,l),
(30,9,l),
(30,0,l),
(115,0,l),
(466,491,l)
);
},
{
closed = 1;
nodes = (
(381,0,l),
(466,0,l),
(466,9,l),
(115,500,l),
(30,500,l),
(30,491,l)
);
}
);
width = 507;
}
);
unicode = 120;
},
{
color = 5;
glyphname = y;
kernLeft = v;
kernRight = v;
layers = (
{
anchors = (
{
name = bottom;
pos = (233,0);
},
{
name = top;
pos = (233,492);
}
);
background = {
shapes = (
{
ref = v;
}
);
};
layerId = "3114FB65-9464-41A5-B67E-A8F9F43C0EF1";
shapes = (
{
closed = 1;
nodes = (
(164,-200,l),
(451,484,l),
(451,492,l),
(424,492,l),
(232,32,l),
(218,0,l),
(137,-192,l),
(137,-200,l)
);
},
{
closed = 1;
nodes = (
(235,0,l),
(235,32,l),
(43,492,l),
(15,492,l),
(15,484,l),
(218,0,l)
);
}
);
width = 466;
},
{
anchors = (
{
name = bottom;
pos = (254,0);
},
{
name = top;
pos = (254,500);
}
);
background = {
shapes = (
{
ref = v;
}
);
};
layerId = "14EEE41F-D714-4243-A717-73445EE7DABA";
shapes = (
{
closed = 1;
nodes = (
(207,-200,l),
(497,492,l),
(497,500,l),
(419,500,l),
(238,55,l),
(212,0,l),
(131,-192,l),
(131,-200,l)
);
},
{
closed = 1;
nodes = (
(259,0,l),
(259,76,l),
(88,500,l),
(10,500,l),
(10,492,l),
(213,0,l)
);
}
);
width = 507;
},
{
anchors = (
{
name = bottom;
pos = (275,0);
},
{
name = top;
pos = (275,508);
}
);
background = {
shapes = (
{
closed = 1;
nodes = (
(207,-200,l),
(497,492,l),
(497,500,l),
(419,500,l),
(238,55,l),
(212,0,l),
(131,-192,l),
(131,-200,l)
);
},
{
closed = 1;
nodes = (
(259,0,l),
(259,76,l),
(88,500,l),
(10,500,l),
(10,492,l),
(213,0,l)
);
},
{
ref = v;
}
);
};
layerId = "090CB6A0-BE7C-4D17-A551-206C7456A8A3";
shapes = (
{
closed = 1;
nodes = (
(255,-200,l),
(549,500,l),
(549,508,l),
(411,508,l),
(250,108,l),
(199,0,l),
(117,-192,l),
(117,-200,l)
);
},
{
closed = 1;
nodes = (
(317,0,l),
(317,39,l),
(138,508,l),
(0,508,l),
(0,500,l),
(199,0,l)
);
}
);
width = 549;
},
{
associatedMasterId = "14EEE41F-D714-4243-A717-73445EE7DABA";
background = {
shapes = (
{
ref = v;
}
);
};
layerId = "DFEDE047-3937-4267-9C74-AAEE7984351D";
name = "18 Oct 23, 03:11";
shapes = (
{
closed = 1;
nodes = (
(497,500,l),
(419,500,l),
(224,15,l),
(217,0,l),
(195,-54,ls),
(174,-106,o),
(143,-139,o),
(101,-139,cs),
(82,-139,o),
(62,-132,o),
(41,-118,c),
(30,-118,l),
(10,-185,l),
(43,-203,o),
(74,-212,o),
(103,-212,cs),
(170,-212,o),
(221,-167,o),
(258,-79,cs),
(497,491,l)
);
},
{
closed = 1;
nodes = (
(217,0,l),
(264,0,l),
(264,76,l),
(88,500,l),
(10,500,l),
(10,491,l)
);
}
);
width = 507;
}
);
metricLeft = v;
metricRight = v;
unicode = 121;
},
{
color = 5;
glyphname = y.ss04;
layers = (
{
anchors = (
{
name = bottom;
pos = (273,0);
},
{
name = top;
pos = (273,500);
}
);
layerId = "14EEE41F-D714-4243-A717-73445EE7DABA";
shapes = (
{
closed = 1;
nodes = (
(323,-200,ls),
(418,-200,o),
(486,-134,o),
(486,-30,cs),
(486,500,l),
(411,500,l),
(411,230,ls),
(411,125,o),
(335,62,o),
(252,62,cs),
(181,62,o),
(125,95,o),
(125,208,cs),
(125,500,l),
(50,500,l),
(50,191,ls),
(50,58,o),
(127,-12,o),
(235,-12,cs),
(327,-12,o),
(409,42,o),
(435,126,c),
(413,145,l),
(413,-24,ls),
(413,-100,o),
(383,-127,o),
(308,-127,cs),
(101,-127,l),
(96,-138,l),
(96,-200,l)
);
}
);
width = 546;
},
{
anchors = (
{
name = bottom;
pos = (260,0);
},
{
name = top;
pos = (260,492);
}
);
layerId = "3114FB65-9464-41A5-B67E-A8F9F43C0EF1";
shapes = (
{
closed = 1;
nodes = (
(310,-200,ls),
(394,-200,o),
(449,-162,o),
(449,-57,cs),
(449,492,l),
(419,492,l),
(419,199,ls),
(419,88,o),
(336,20,o),
(245,20,cs),
(148,20,o),
(90,74,o),
(90,192,cs),
(90,492,l),
(60,492,l),
(60,188,ls),
(60,62,o),
(130,-8,o),
(240,-8,cs),
(320,-8,o),
(404,35,o),
(434,127,c),
(419,124,l),
(419,-56,ls),
(419,-142,o),
(382,-172,o),
(310,-172,cs),
(95,-172,l),
(91,-182,l),
(91,-200,l)
);
}
);
width = 519;
},
{
anchors = (
{
name = bottom;
pos = (292,0);
},
{
name = top;
pos = (292,508);
}
);
layerId = "090CB6A0-BE7C-4D17-A551-206C7456A8A3";
shapes = (
{
closed = 1;
nodes = (
(361,-200,ls),
(466,-200,o),
(533,-129,o),
(533,-16,cs),
(533,508,l),
(398,508,l),
(398,271,ls),
(398,136,o),
(321,104,o),
(273,104,cs),
(211,104,o),
(175,154,o),
(175,245,cs),
(175,508,l),
(40,508,l),
(40,192,ls),
(40,55,o),
(129,-16,o),
(236,-16,cs),
(331,-16,o),
(406,38,o),
(441,128,c),
(408,121,l),
(408,0,ls),
(408,-50,o),
(380,-81,o),
(326,-81,cs),
(73,-81,l),
(68,-92,l),
(68,-200,l)
);
}
);
width = 583;
}
);
},
{
color = 5;
glyphname = z;
kernLeft = n;
layers = (
{
anchors = (
{
name = bottom;
pos = (233,0);
},
{
name = center;
pos = (233,246);
},
{
name = top;
pos = (233,492);
}
);
layerId = "3114FB65-9464-41A5-B67E-A8F9F43C0EF1";
shapes = (
{
closed = 1;
nodes = (
(431,0,l),
(431,28,l),
(56,28,l),
(65,18,l),
(431,476,l),
(431,500,l),
(38,500,l),
(38,472,l),
(410,472,l),
(399,481,l),
(35,25,l),
(35,0,l)
);
}
);
width = 466;
},
{
anchors = (
{
name = bottom;
pos = (233,0);
},
{
name = center;
pos = (233,250);
},
{
name = top;
pos = (233,500);
}
);
layerId = "14EEE41F-D714-4243-A717-73445EE7DABA";
shapes = (
{
closed = 1;
nodes = (
(436,0,l),
(436,73,l),
(76,73,l),
(91,33,l),
(436,431,l),
(436,500,l),
(33,500,l),
(33,427,l),
(390,427,l),
(374,466,l),
(30,70,l),
(30,0,l)
);
}
);
width = 466;
},
{
anchors = (
{
name = bottom;
pos = (228,0);
},
{
name = center;
pos = (228,254);
},
{
name = top;
pos = (228,508);
}
);
layerId = "090CB6A0-BE7C-4D17-A551-206C7456A8A3";
shapes = (
{
closed = 1;
nodes = (
(446,0,l),
(446,119,l),
(117,119,l),
(98,33,l),
(446,391,l),
(446,500,l),
(13,500,l),
(13,381,l),
(338,381,l),
(360,466,l),
(10,109,l),
(10,0,l)
);
}
);
width = 456;
}
);
unicode = 122;
},
{
color = 5;
glyphname = fi;
kernLeft = fi;
layers = (
{
layerId = "3114FB65-9464-41A5-B67E-A8F9F43C0EF1";
shapes = (
{
ref = f;
},
{
pos = (296,0);
ref = i;
}
);
width = 478;
},
{
layerId = "14EEE41F-D714-4243-A717-73445EE7DABA";
shapes = (
{
ref = f;
},
{
pos = (313,0);
ref = i;
}
);
width = 520;
},
{
layerId = "090CB6A0-BE7C-4D17-A551-206C7456A8A3";
shapes = (
{
ref = f;
},
{
pos = (349,0);
ref = i;
}
);
width = 584;
},
{
associatedMasterId = "14EEE41F-D714-4243-A717-73445EE7DABA";
layerId = "224DE32B-2EAA-4B5C-A101-2D5026955931";
name = "14 Dec 23, 20:26";
shapes = (
{
closed = 1;
nodes = (
(171,0,l),
(171,567,ls),
(171,626,o),
(194,647,o),
(251,647,cs),
(288,647,l),
(293,658,l),
(293,720,l),
(238,720,ls),
(155,720,o),
(96,663,o),
(96,572,cs),
(96,0,l)
);
},
{
closed = 1;
nodes = (
(403,427,l),
(403,500,l),
(10,500,l),
(10,427,l)
);
},
{
pos = (313,0);
ref = i;
}
);
width = 519;
},
{
associatedMasterId = "090CB6A0-BE7C-4D17-A551-206C7456A8A3";
layerId = "11995468-9224-4425-A672-3E49D34D9168";
name = "14 Dec 23, 20:27";
shapes = (
{
closed = 1;
nodes = (
(226,0,l),
(226,521,ls),
(226,570,o),
(257,601,o),
(306,601,cs),
(329,601,l),
(334,612,l),
(334,720,l),
(263,720,ls),
(158,720,o),
(91,649,o),
(91,536,cs),
(91,0,l)
);
},
{
closed = 1;
nodes = (
(483,389,l),
(483,508,l),
(5,508,l),
(5,389,l)
);
},
{
pos = (349,0);
ref = i;
}
);
width = 584;
},
{
associatedMasterId = "3114FB65-9464-41A5-B67E-A8F9F43C0EF1";
layerId = "44BF1DDC-A90D-4DCD-9031-126266C6C951";
name = "14 Dec 23, 20:27";
shapes = (
{
closed = 1;
nodes = (
(133,0,l),
(133,576,ls),
(133,662,o),
(164,692,o),
(232,692,cs),
(262,692,l),
(266,702,l),
(266,720,l),
(232,720,ls),
(148,720,o),
(103,682,o),
(103,577,cs),
(103,0,l)
);
},
{
closed = 1;
nodes = (
(387,464,l),
(387,492,l),
(20,492,l),
(20,464,l)
);
},
{
pos = (296,0);
ref = i;
}
);
width = 478;
}
);
note = fi;
unicode = 64257;
},
{
color = 5;
glyphname = fl;
layers = (
{
layerId = "3114FB65-9464-41A5-B67E-A8F9F43C0EF1";
shapes = (
{
ref = f;
},
{
pos = (296,0);
ref = l;
}
);
width = 466;
},
{
layerId = "14EEE41F-D714-4243-A717-73445EE7DABA";
shapes = (
{
ref = f;
},
{
pos = (313,0);
ref = l;
}
);
width = 508;
},
{
layerId = "090CB6A0-BE7C-4D17-A551-206C7456A8A3";
shapes = (
{
ref = f;
},
{
pos = (349,0);
ref = l;
}
);
width = 584;
},
{
associatedMasterId = "14EEE41F-D714-4243-A717-73445EE7DABA";
layerId = "BF6892F9-885E-49E4-888A-93A0C09DEB1C";
name = "14 Dec 23, 20:26";
shapes = (
{
closed = 1;
nodes = (
(171,0,l),
(171,567,ls),
(171,626,o),
(194,647,o),
(251,647,cs),
(436,647,l),
(436,720,l),
(238,720,ls),
(155,720,o),
(96,663,o),
(96,572,cs),
(96,0,l)
);
},
{
closed = 1;
nodes = (
(293,427,l),
(293,500,l),
(10,500,l),
(10,427,l)
);
},
{
closed = 1;
nodes = (
(448,0,l),
(448,720,l),
(373,720,l),
(373,0,l)
);
}
);
width = 508;
},
{
associatedMasterId = "3114FB65-9464-41A5-B67E-A8F9F43C0EF1";
layerId = "5118423F-EB20-4622-AEC6-9B829274D620";
name = "14 Dec 23, 20:27";
shapes = (
{
closed = 1;
nodes = (
(133,0,l),
(133,576,ls),
(133,662,o),
(164,692,o),
(232,692,cs),
(379,692,l),
(379,720,l),
(232,720,ls),
(148,720,o),
(103,682,o),
(103,577,cs),
(103,0,l)
);
},
{
closed = 1;
nodes = (
(266,464,l),
(266,492,l),
(20,492,l),
(20,464,l)
);
},
{
closed = 1;
nodes = (
(396,0,l),
(396,720,l),
(366,720,l),
(366,0,l)
);
}
);
width = 466;
},
{
associatedMasterId = "090CB6A0-BE7C-4D17-A551-206C7456A8A3";
layerId = "652F6282-9531-4CDF-90A5-34E526B9A38F";
name = "14 Dec 23, 20:27";
shapes = (
{
closed = 1;
nodes = (
(226,0,l),
(226,521,ls),
(226,570,o),
(257,601,o),
(306,601,cs),
(449,601,l),
(449,720,l),
(263,720,ls),
(158,720,o),
(91,649,o),
(91,536,cs),
(91,0,l)
);
},
{
closed = 1;
nodes = (
(334,389,l),
(334,508,l),
(5,508,l),
(5,389,l)
);
},
{
closed = 1;
nodes = (
(534,0,l),
(534,720,l),
(399,720,l),
(399,0,l)
);
}
);
width = 584;
}
);
note = fl;
unicode = 64258;
},
{
color = 5;
glyphname = ordfeminine;
layers = (
{
layerId = "3114FB65-9464-41A5-B67E-A8F9F43C0EF1";
shapes = (
{
closed = 1;
nodes = (
(71,612,l),
(88,658,o),
(126,684,o),
(175,684,cs),
(243,684,o),
(282,637,o),
(282,565,cs),
(282,509,ls),
(282,439,o),
(222,380,o),
(154,380,cs),
(103,380,o),
(63,411,o),
(63,457,cs),
(63,498,o),
(95,525,o),
(153,529,cs),
(291,539,l),
(291,568,l),
(145,557,ls),
(70,551,o),
(33,509,o),
(33,456,cs),
(33,397,o),
(83,352,o),
(152,352,cs),
(219,352,o),
(276,397,o),
(293,452,c),
(283,461,l),
(283,360,l),
(312,360,l),
(312,558,ls),
(312,657,o),
(261,713,o),
(176,713,cs),
(112,713,o),
(63,681,o),
(40,621,c),
(63,612,l)
);
}
);
userData = {
RMXScaler = {
height = 70;
verticalShift = 360;
width = 70;
};
};
width = 352;
},
{
layerId = "14EEE41F-D714-4243-A717-73445EE7DABA";
shapes = (
{
closed = 1;
nodes = (
(97,594,l),
(107,629,o),
(138,652,o),
(180,652,cs),
(232,652,o),
(269,615,o),
(269,564,cs),
(269,506,ls),
(269,448,o),
(220,401,o),
(160,401,cs),
(120,401,o),
(92,423,o),
(92,452,cs),
(92,482,o),
(115,500,o),
(165,504,cs),
(289,514,l),
(289,571,l),
(153,560,ls),
(72,554,o),
(26,512,o),
(26,450,cs),
(26,386,o),
(79,341,o),
(151,341,cs),
(219,341,o),
(278,383,o),
(296,443,c),
(273,452,l),
(273,350,l),
(333,350,l),
(333,548,ls),
(333,652,o),
(276,711,o),
(180,711,cs),
(110,711,o),
(54,677,o),
(33,611,c),
(89,594,l)
);
}
);
userData = {
RMXScaler = {
height = 70;
verticalShift = 350;
weight = -10;
width = 70;
};
};
width = 366;
},
{
layerId = "090CB6A0-BE7C-4D17-A551-206C7456A8A3";
shapes = (
{
closed = 1;
nodes = (
(118,582,l),
(125,608,o),
(145,628,o),
(182,628,cs),
(223,628,o),
(253,602,o),
(253,566,cs),
(253,508,ls),
(253,466,o),
(214,428,o),
(166,428,cs),
(143,428,o),
(127,439,o),
(127,455,cs),
(127,473,o),
(138,487,o),
(170,490,cs),
(295,500,l),
(295,580,l),
(158,568,ls),
(67,561,o),
(18,517,o),
(18,450,cs),
(18,385,o),
(73,339,o),
(148,339,cs),
(223,339,o),
(282,389,o),
(300,450,c),
(264,453,l),
(264,350,l),
(349,350,l),
(349,550,ls),
(349,655,o),
(285,715,o),
(182,715,cs),
(97,715,o),
(40,662,o),
(24,599,c),
(110,582,l)
);
}
);
userData = {
RMXScaler = {
height = 70;
verticalShift = 350;
weight = -50;
width = 70;
};
};
width = 374;
},
{
associatedMasterId = "090CB6A0-BE7C-4D17-A551-206C7456A8A3";
layerId = "FE53586C-20D7-47CE-B13C-E885F1F6F75C";
name = "29 Jan 24, 04:40";
shapes = (
{
closed = 1;
nodes = (
(108,590,l),
(115,618,o),
(141,641,o),
(182,641,cs),
(228,641,o),
(261,609,o),
(261,566,cs),
(261,508,ls),
(261,459,o),
(218,415,o),
(166,415,cs),
(133,415,o),
(109,431,o),
(109,455,cs),
(109,477,o),
(124,493,o),
(170,497,cs),
(295,507,l),
(295,577,l),
(158,565,ls),
(70,558,o),
(23,515,o),
(23,450,cs),
(23,385,o),
(76,339,o),
(148,339,cs),
(223,339,o),
(282,389,o),
(300,450,c),
(269,453,l),
(269,350,l),
(344,350,l),
(344,550,ls),
(344,655,o),
(282,715,o),
(182,715,cs),
(101,715,o),
(44,670,o),
(28,607,c),
(100,590,l)
);
}
);
userData = {
RMXScaler = {
height = 70;
verticalShift = 350;
weight = -50;
width = 70;
};
};
width = 374;
}
);
unicode = 170;
userData = {
RMXScaler = {
source = a;
};
};
},
{
color = 5;
glyphname = ordmasculine;
layers = (
{
layerId = "3114FB65-9464-41A5-B67E-A8F9F43C0EF1";
shapes = (
{
closed = 1;
nodes = (
(297,354,o),
(366,426,o),
(366,533,cs),
(366,640,o),
(297,712,o),
(200,712,cs),
(102,712,o),
(33,639,o),
(33,533,cs),
(33,427,o),
(102,354,o),
(200,354,cs)
);
},
{
closed = 1;
nodes = (
(120,382,o),
(63,443,o),
(63,533,cs),
(63,623,o),
(120,684,o),
(200,684,cs),
(279,684,o),
(336,623,o),
(336,533,cs),
(336,443,o),
(279,382,o),
(200,382,cs)
);
}
);
userData = {
RMXScaler = {
height = 70;
verticalShift = 360;
width = 70;
};
};
width = 399;
},
{
layerId = "14EEE41F-D714-4243-A717-73445EE7DABA";
shapes = (
{
closed = 1;
nodes = (
(306,340,o),
(378,416,o),
(378,526,cs),
(378,635,o),
(306,711,o),
(202,711,cs),
(98,711,o),
(26,635,o),
(26,526,cs),
(26,416,o),
(99,340,o),
(202,340,cs)
);
},
{
closed = 1;
nodes = (
(136,401,o),
(91,450,o),
(91,526,cs),
(91,601,o),
(136,650,o),
(202,650,cs),
(268,650,o),
(313,601,o),
(313,526,cs),
(313,450,o),
(268,401,o),
(202,401,cs)
);
}
);
userData = {
RMXScaler = {
height = 70;
verticalShift = 350;
weight = -10;
width = 70;
};
};
width = 404;
},
{
layerId = "090CB6A0-BE7C-4D17-A551-206C7456A8A3";
shapes = (
{
closed = 1;
nodes = (
(312,339,o),
(387,417,o),
(387,527,cs),
(387,637,o),
(312,715,o),
(205,715,cs),
(98,715,o),
(23,637,o),
(23,527,cs),
(23,417,o),
(98,339,o),
(205,339,cs)
);
},
{
closed = 1;
nodes = (
(155,430,o),
(123,469,o),
(123,527,cs),
(123,585,o),
(155,624,o),
(205,624,cs),
(255,624,o),
(287,585,o),
(287,527,cs),
(287,469,o),
(255,430,o),
(205,430,cs)
);
}
);
userData = {
RMXScaler = {
height = 70;
verticalShift = 350;
weight = -50;
width = 70;
};
};
width = 411;
}
);
unicode = 186;
userData = {
RMXScaler = {
source = o;
};
};
},
